<?xml version="1.0" encoding="utf-8"?>
<!-- Generator: Adobe Illustrator 23.0.4, SVG Export Plug-In . SVG Version: 6.00 Build 0)  -->
<svg version="1.1" id="Layer_1" xmlns="http://www.w3.org/2000/svg" xmlns:xlink="http://www.w3.org/1999/xlink" x="0px" y="0px"
	 viewBox="0 0 63.4 63.4" style="enable-background:new 0 0 63.4 63.4;" xml:space="preserve">
<style type="text/css">
	.st0{fill:#FFFFFF;}
</style>
<rect y="0" width="63.4" height="63.4"/>
<g>
	<path class="st0" d="M29,27.6c2.9-2.1,19.7-4.5,19.7-9.7C48.7,12,36,6.5,16.7,7.2C9.5,7.5,7.1,8.5,7.1,8.5v26.4H48
		C44.8,30,25.1,30.5,29,27.6z"/>
	<path class="st0" d="M47.9,41.6c-1.4-1.9-5.8-5-19.4-4.7c-13.1,0.3-22.3,3.9-22.3,8.8c0,2.8,2.4,5.3,7,7.4c4.6,1.9,9.5,3,14.5,3.2
		h0.1c0.6,0,1.1-0.4,1.3-1c0-0.3-0.1-0.5-0.2-0.7c-0.2-0.2-0.5-0.4-0.9-0.4c-11.3-0.5-19.1-4.9-19.1-8.4c0-3.4,8.9-6.4,19.8-6.7
		c12.9-0.3,16.3,2.5,17.2,3.7c0.4,0.6,0.5,1.4,0.1,2.1c-0.3,0.7-1.2,1.7-3.3,2.5c-2.6,0.9-7.5,1.3-12.3,1c-4.6-0.2-11.2-1.4-14.6-4
		c-0.5-0.4-1.2-0.4-1.7,0c-0.2,0.2-0.4,0.5-0.4,0.8c0,0.3,0.2,0.6,0.4,0.8c3.9,2.9,11.2,4.2,16.1,4.5c5.2,0.3,10.4-0.2,13.3-1.2
		s4.3-2.5,4.8-3.7C48.9,44.2,48.7,42.7,47.9,41.6z"/>
</g>
</svg>
