<svg width="129" height="129" viewBox="0 0 129 129" fill="none" xmlns="http://www.w3.org/2000/svg">
<path d="M64.5 129C29.1525 129 0 99.8475 0 64.5C0 29.1525 29.1525 0 64.5 0C99.8475 0 129 29.1525 129 64.5C129 99.8475 99.8475 129 64.5 129Z" fill="#212121"/>
<path d="M30.2457 56.4829C30.2457 54.2965 32.0678 52.8389 33.8898 52.8389H49.1949C54.661 52.8389 58.6695 54.2965 61.5847 57.2117C63.7711 59.3982 65.2288 62.6779 65.2288 66.3219C65.2288 73.2456 61.2203 77.2541 55.3898 79.0762L63.7711 89.2795C64.5 90.3728 64.8644 91.1016 64.8644 92.1948C64.8644 94.3812 63.0423 95.8389 61.2203 95.8389C59.3983 95.8389 58.305 95.1101 57.5762 94.0168L47.0084 80.5338H37.5339V92.1948C37.5339 94.3812 35.7118 95.8389 33.8898 95.8389C31.7034 95.8389 30.2457 94.0168 30.2457 92.1948V56.4829ZM48.8305 73.9745C54.2966 73.9745 57.5762 71.0592 57.5762 66.6863C57.5762 61.949 54.2966 59.3982 48.8305 59.3982H37.8983V73.9745H48.8305Z" fill="white"/>
<path d="M87.822 71.788C76.8898 71.788 68.8729 64.1355 68.8729 52.4744C68.8729 41.9066 76.5254 33.1609 87.0932 33.1609C98.7542 33.1609 104.585 42.9999 104.585 51.3812C104.585 53.9321 102.763 55.3897 100.576 55.3897H77.2542C78.3474 61.5846 82.3559 64.8643 87.822 64.8643C91.4661 64.8643 94.3813 63.7711 96.5678 61.5846C97.2966 61.2202 97.661 60.8558 98.7542 60.8558C100.576 60.8558 102.034 62.3134 102.034 64.1355C102.034 65.2287 101.669 65.9575 100.941 66.6863C97.661 69.966 93.6525 71.788 87.822 71.788ZM96.2034 49.9236C95.4746 44.4575 92.5593 40.0846 86.7288 40.0846C81.6271 40.0846 77.983 44.0931 77.2542 49.9236H96.2034Z" fill="white"/>
</svg>
