<svg width="130" height="129" viewBox="0 0 130 129" fill="none" xmlns="http://www.w3.org/2000/svg">
<g clip-path="url(#clip0)">
<path d="M64.7966 129C29.4492 129 0.296631 99.8475 0.296631 64.5C0.296631 29.1525 29.4492 0 64.7966 0C100.144 0 129.297 29.1525 129.297 64.5C129.297 99.8475 100.144 129 64.7966 129Z" fill="white"/>
<path d="M30.5424 56.4829C30.5424 54.2965 32.3644 52.8389 34.1864 52.8389H49.4915C54.9576 52.8389 58.9661 54.2965 61.8813 57.2117C64.0678 59.3982 65.5254 62.6779 65.5254 66.3219C65.5254 73.2456 61.5169 77.2541 55.6864 79.0762L64.0678 89.2795C64.7966 90.3728 65.161 91.1016 65.161 92.1948C65.161 94.3812 63.339 95.8389 61.5169 95.8389C59.6949 95.8389 58.6017 95.1101 57.8729 94.0168L47.3051 80.5338H37.8305V92.1948C37.8305 94.3812 36.0085 95.8389 34.1864 95.8389C32 95.8389 30.5424 94.0168 30.5424 92.1948V56.4829ZM49.1271 73.9745C54.5932 73.9745 57.8729 71.0592 57.8729 66.6863C57.8729 61.949 54.5932 59.3982 49.1271 59.3982H38.1949V73.9745H49.1271Z" fill="#212121"/>
<path d="M88.1186 71.788C77.1864 71.788 69.1694 64.1355 69.1694 52.4744C69.1694 41.9066 76.822 33.1609 87.3898 33.1609C99.0508 33.1609 104.881 42.9999 104.881 51.3812C104.881 53.9321 103.059 55.3897 100.873 55.3897H77.5508C78.644 61.5846 82.6525 64.8643 88.1186 64.8643C91.7627 64.8643 94.6779 63.7711 96.8643 61.5846C97.5932 61.2202 97.9576 60.8558 99.0508 60.8558C100.873 60.8558 102.33 62.3134 102.33 64.1355C102.33 65.2287 101.966 65.9575 101.237 66.6863C97.9576 69.966 93.9491 71.788 88.1186 71.788ZM96.4999 49.9236C95.7711 44.4575 92.8559 40.0846 87.0254 40.0846C81.9237 40.0846 78.2796 44.0931 77.5508 49.9236H96.4999Z" fill="#212121"/>
</g>
<defs>
<clipPath id="clip0">
<rect x="0.296631" width="129" height="129" fill="white"/>
</clipPath>
</defs>
</svg>
