<svg width="130" height="129" viewBox="0 0 130 129" fill="none" xmlns="http://www.w3.org/2000/svg">
<g clip-path="url(#clip0)">
<path d="M66.5687 3.54396C99.1731 3.54396 125.753 30.1236 125.753 62.728V66.272C125.753 98.8764 99.1731 125.456 66.5687 125.456H63.0247C30.4203 125.456 3.84065 98.8764 3.84065 66.272V62.728C3.84065 30.1236 30.4203 3.54396 63.0247 3.54396H66.5687ZM66.5687 0H63.0247C28.6483 0 0.296692 28.3517 0.296692 62.728V66.272C0.296692 100.648 28.6483 129 63.0247 129H66.5687C100.945 129 129.297 100.648 129.297 66.272V62.728C129.297 28.3517 100.945 0 66.5687 0Z" fill="#212121"/>
<path d="M31.4835 56.7034C31.4835 54.577 33.2554 53.1594 35.0274 53.1594H49.912C55.228 53.1594 59.1263 54.577 61.9615 57.4122C64.0879 59.5385 65.5054 62.7281 65.5054 66.2721C65.5054 73.0056 61.6071 76.9039 55.9368 78.6759L64.0879 88.599C64.7966 89.6622 65.151 90.371 65.151 91.4342C65.151 93.5605 63.3791 94.9781 61.6071 94.9781C59.8351 94.9781 58.7719 94.2693 58.0631 93.2061L47.7857 80.0935H38.5714V91.4342C38.5714 93.5605 36.7994 94.9781 35.0274 94.9781C32.901 94.9781 31.4835 93.2061 31.4835 91.4342V56.7034ZM49.5576 73.7144C54.8736 73.7144 58.0631 70.8792 58.0631 66.6265C58.0631 62.0193 54.8736 59.5385 49.5576 59.5385H38.9258V73.7144H49.5576Z" fill="#212121"/>
<path d="M87.478 71.5879C76.8461 71.5879 69.0494 64.1456 69.0494 52.8049C69.0494 42.5275 76.4917 34.022 86.7692 34.022C98.1098 34.022 103.78 43.5907 103.78 51.7418C103.78 54.2225 102.008 55.6401 99.8818 55.6401H77.2005C78.2637 61.6648 82.162 64.8544 87.478 64.8544C91.0219 64.8544 93.8571 63.7912 95.9835 61.6648C96.6923 61.3104 97.0467 60.956 98.1098 60.956C99.8818 60.956 101.299 62.3736 101.299 64.1456C101.299 65.2088 100.945 65.9176 100.236 66.6264C97.0467 69.8159 93.1483 71.5879 87.478 71.5879ZM95.6291 50.3242C94.9203 45.0082 92.0851 40.7555 86.4148 40.7555C81.4533 40.7555 77.9093 44.6538 77.2005 50.3242H95.6291Z" fill="#212121"/>
</g>
<defs>
<clipPath id="clip0">
<rect x="0.296692" width="129" height="129" fill="white"/>
</clipPath>
</defs>
</svg>
