<?xml version="1.0" encoding="utf-8"?>
<!-- Generator: Adobe Illustrator 24.0.3, SVG Export Plug-In . SVG Version: 6.00 Build 0)  -->
<svg version="1.1" id="Layer_1" xmlns="http://www.w3.org/2000/svg" xmlns:xlink="http://www.w3.org/1999/xlink" x="0px" y="0px"
	 viewBox="0 0 172.8 45.3" style="enable-background:new 0 0 172.8 45.3;" xml:space="preserve">
<style type="text/css">
	.st0{clip-path:url(#SVGID_2_);}
	.st1{fill:#212121;}
</style>
<g>
	<g>
		<defs>
			<rect id="SVGID_1_" width="172.8" height="45.1"/>
		</defs>
		<clipPath id="SVGID_2_">
			<use xlink:href="#SVGID_1_"  style="overflow:visible;"/>
		</clipPath>
		<g class="st0">
			<path class="st1" d="M0,15.6c0-1.6,1.2-2.8,2.8-2.8h11.4c4,0,7.1,1.2,9.2,3.2C25,17.8,26,20.2,26,23v0.1c0,5.2-2.9,8.2-7.2,9.6
				l6.1,7.6c0.6,0.6,0.9,1.3,0.9,2.1c0,1.6-1.3,2.6-2.7,2.6c-1.3,0-2.1-0.6-2.8-1.5l-7.7-9.8H5.6v8.6c0,1.6-1.2,2.8-2.8,2.8
				C1.2,45.1,0,43.8,0,42.2V15.6z M13.7,28.6c4,0,6.5-2.1,6.5-5.3c0-3.4-2.4-5.3-6.6-5.3h-8v10.8L13.7,28.6L13.7,28.6z"/>
			<path class="st1" d="M46.2,30.3c-8.4,0-14.8-6.1-14.8-15.1v-0.1C31.4,6.8,37.3,0,45.5,0c9.2,0,13.7,7.5,13.7,14.4
				c0,1.9-1.5,3.2-3.1,3.2H38c0.6,4.8,4,7.4,8.3,7.4c2.8,0,5-1,6.9-2.6c0.5-0.4,0.9-0.6,1.7-0.6c1.5,0,2.7,1.1,2.7,2.7
				c0,0.7-0.4,1.6-0.9,2C54.1,28.9,50.8,30.3,46.2,30.3z M52.8,13.1c-0.5-4.3-2.9-7.6-7.3-7.6c-4,0-6.9,3.1-7.5,7.6H52.8z"/>
			<path class="st1" d="M59.2,41.2l11.9-26.4c0.6-1.5,1.7-2.3,3.3-2.3h0.2c1.6,0,2.7,0.9,3.3,2.3l11.9,26.4c0.2,0.5,0.4,0.7,0.4,1.2
				c0,1.6-1.1,2.7-2.7,2.7c-1.3,0-2.2-0.7-2.8-2l-2.6-6H66.7L64,43.3c-0.5,1.1-1.5,1.7-2.6,1.7c-1.5,0-2.6-1.1-2.6-2.6
				C59,41.9,59.1,41.7,59.2,41.2z M80,32.1l-5.6-12.9l-5.6,12.9H80z"/>
			<path class="st1" d="M96.2,15.6c0-1.6,1.2-2.8,2.8-2.8h11.4c4,0,7.1,1.2,9.2,3.2c1.7,1.7,2.7,4.1,2.7,6.9v0.1
				c0,5.2-2.9,8.2-7.2,9.6l6.1,7.6c0.6,0.6,0.9,1.3,0.9,2.1c0,1.6-1.3,2.6-2.7,2.6c-1.3,0-2.1-0.6-2.8-1.5l-7.7-9.8h-7.1v8.6
				c0,1.6-1.2,2.8-2.8,2.8s-2.8-1.2-2.8-2.8L96.2,15.6L96.2,15.6z M110,28.6c4,0,6.5-2.1,6.5-5.3c0-3.4-2.4-5.3-6.6-5.3h-8.2v10.8
				L110,28.6L110,28.6z"/>
			<path class="st1" d="M129.7,15.5c0-1.6,1.2-2.8,2.8-2.8c1.6,0,2.8,1.2,2.8,2.8v26.8c0,1.6-1.2,2.8-2.8,2.8
				c-1.6,0-2.8-1.2-2.8-2.8V15.5z"/>
			<path class="st1" d="M141.9,41.2l11.9-26.4c0.6-1.5,1.7-2.3,3.3-2.3h0.2c1.6,0,2.7,0.9,3.3,2.3l11.9,26.4
				c0.2,0.5,0.4,0.7,0.4,1.2c0,1.6-1.1,2.7-2.7,2.7c-1.3,0-2.2-0.7-2.8-2l-2.6-6h-15.5l-2.7,6.1c-0.5,1.1-1.5,1.7-2.6,1.7
				c-1.5,0-2.6-1.1-2.6-2.6C141.6,41.9,141.8,41.7,141.9,41.2z M162.7,32.1l-5.6-12.9l-5.6,12.9H162.7z"/>
		</g>
	</g>
</g>
</svg>
