<?xml version="1.0" encoding="utf-8"?>
<!-- Generator: Adobe Illustrator 24.0.3, SVG Export Plug-In . SVG Version: 6.00 Build 0)  -->
<svg version="1.1" id="Layer_1" xmlns="http://www.w3.org/2000/svg" xmlns:xlink="http://www.w3.org/1999/xlink" x="0px" y="0px"
	 viewBox="0 0 142.4 37.1" style="enable-background:new 0 0 142.4 37.1;" xml:space="preserve">
<style type="text/css">
	.st0{clip-path:url(#SVGID_2_);}
	.st1{fill:#212121;}
</style>
<g>
	<g>
		<g>
			<defs>
				<polygon id="SVGID_1_" points="0,0 142.1,0 142.4,37.1 0,37.1 				"/>
			</defs>
			<clipPath id="SVGID_2_">
				<use xlink:href="#SVGID_1_"  style="overflow:visible;"/>
			</clipPath>
			<g class="st0">
				<path class="st1" d="M0,12.8c0-1.3,1-2.3,2.3-2.3h9.4c3.3,0,5.8,1,7.6,2.6c1.3,1.5,2.1,3.5,2.1,5.8V19c0,4.3-2.4,6.7-5.9,7.9
					l5,6.3c0.5,0.5,0.7,1.1,0.7,1.7c0,1.3-1.1,2.1-2.2,2.1c-1.1,0-1.7-0.5-2.3-1.2l-6.3-8.1H4.6v7.1c0,1.3-1,2.3-2.3,2.3
					C1,37.1,0,36,0,34.7V12.8z M11.3,23.5c3.3,0,5.3-1.7,5.3-4.4c0-2.8-2-4.4-5.4-4.4H4.6v8.9L11.3,23.5L11.3,23.5z"/>
				<path class="st1" d="M38,24.9c-6.9,0-12.2-5-12.2-12.4v-0.1C25.8,5.6,30.7,0,37.4,0C45,0,48.7,6.2,48.7,11.8
					c0,1.6-1.2,2.6-2.6,2.6H31.3c0.5,3.9,3.3,6.1,6.8,6.1c2.3,0,4.1-0.8,5.7-2.1c0.4-0.3,0.7-0.5,1.4-0.5c1.2,0,2.2,0.9,2.2,2.2
					c0,0.6-0.3,1.3-0.7,1.6C44.5,23.8,41.8,24.9,38,24.9z M43.4,10.8c-0.4-3.5-2.4-6.3-6-6.3c-3.3,0-5.7,2.6-6.2,6.3H43.4z"/>
				<path class="st1" d="M48.7,33.9l9.8-21.7c0.5-1.2,1.4-1.9,2.7-1.9h0.2c1.3,0,2.2,0.7,2.7,1.9l9.8,21.7c0.2,0.4,0.3,0.6,0.3,1
					c0,1.3-0.9,2.2-2.2,2.2c-1.1,0-1.8-0.6-2.3-1.6l-2.1-4.9H54.9l-2.2,5.1c-0.4,0.9-1.2,1.4-2.1,1.4c-1.2,0-2.1-0.9-2.1-2.1
					C48.4,34.4,48.5,34.3,48.7,33.9z M65.8,26.4l-4.6-10.6l-4.6,10.6H65.8z"/>
				<path class="st1" d="M79.1,12.8c0-1.3,1-2.3,2.3-2.3h9.4c3.3,0,5.8,1,7.6,2.6c1.4,1.4,2.2,3.4,2.2,5.7v0.1
					c0,4.3-2.4,6.7-5.9,7.9l5,6.3c0.5,0.5,0.7,1.1,0.7,1.7c0,1.3-1.1,2.1-2.2,2.1c-1.1,0-1.7-0.5-2.3-1.2l-6.3-8.1h-5.8v7.1
					c0,1.3-1,2.3-2.3,2.3s-2.3-1-2.3-2.3V12.8L79.1,12.8z M90.5,23.5c3.3,0,5.3-1.7,5.3-4.4c0-2.8-2-4.4-5.4-4.4h-6.7v8.9L90.5,23.5
					L90.5,23.5z"/>
				<path class="st1" d="M106.7,12.8c0-1.3,1-2.3,2.3-2.3c1.3,0,2.3,1,2.3,2.3v22c0,1.3-1,2.3-2.3,2.3c-1.3,0-2.3-1-2.3-2.3V12.8z"
					/>
				<path class="st1" d="M116.7,33.9l9.8-21.7c0.5-1.2,1.4-1.9,2.7-1.9h0.2c1.3,0,2.2,0.7,2.7,1.9l9.8,21.7c0.2,0.5,0.4,0.6,0.3,1.2
					c-0.1,1.1-1.1,2-2.2,2c-1.1,0-1.8-0.6-2.3-1.6l-2.1-4.9h-12.8l-2.2,5c-0.4,0.9-1.2,1.4-2.1,1.4c-1.1,0-2-0.8-2.1-1.9
					c0-0.2,0-0.4,0.1-0.5C116.5,34.4,116.6,34.2,116.7,33.9z M133.8,26.4l-4.6-10.6l-4.6,10.6H133.8z"/>
			</g>
		</g>
	</g>
</g>
</svg>
