<?xml version="1.0" encoding="utf-8"?>
<!-- Generator: Adobe Illustrator 24.1.0, SVG Export Plug-In . SVG Version: 6.00 Build 0)  -->
<svg version="1.1" xmlns="http://www.w3.org/2000/svg" xmlns:xlink="http://www.w3.org/1999/xlink" x="0px" y="0px"
	 viewBox="0 0 1200 900" style="enable-background:new 0 0 1200 900;" xml:space="preserve">
<style type="text/css">
	.st0{fill:#1F0E72;}
	.st1{fill:#FFF5EE;}
	.st2{fill:#E5DEFF;}
	.st3{fill:#616161;}
	.st4{fill:#FAFAFA;}
	.st5{fill:#D16800;}
	.st6{fill:#00C19C;}
	.st7{fill:#5447FC;}
	.st8{fill:#FFD00D;}
	.st9{fill:#E3FFFA;}
	.st10{fill:#C2F9EE;}
	.st11{fill:#92EFDD;}
	.st12{fill:#2ADDBA;}
	.st13{fill:#098E74;}
	.st14{fill:#046653;}
	.st15{fill:#01493B;}
	.st16{fill:#002820;}
	.st17{fill:#FFFBE9;}
	.st18{fill:#FFF4BB;}
	.st19{fill:#FFEA92;}
	.st20{fill:#FFDF5A;}
	.st21{fill:#FFBC00;}
	.st22{fill:#F29B00;}
	.st23{fill:#ED8100;}
	.st24{fill:#B8B8FF;}
	.st25{fill:#A497FF;}
	.st26{fill:#775DF4;}
	.st27{fill:#4320EF;}
	.st28{fill:#3D15CE;}
	.st29{fill:#2A12A0;}
	.st30{fill:#EFD9CE;}
	.st31{fill:#D6B9AA;}
	.st32{fill:#BF9D82;}
	.st33{fill:#B28662;}
	.st34{fill:#F5F5F5;}
	.st35{fill:#EEEEEE;}
	.st36{fill:#E0E0E0;}
	.st37{fill:#BDBDBD;}
	.st38{fill:#9E9E9E;}
	.st39{fill:#757575;}
	.st40{fill:#424242;}
	.st41{fill:#212121;}
	.st42{font-family:'Nunito-Bold';}
	.st43{font-size:22px;}
	.st44{font-size:32px;}
	.st45{filter:url(#Adobe_OpacityMaskFilter);}
	.st46{fill:#FFFFFF;}
	.st47{fill:#58595B;}
	.st48{fill:#606060;}
</style>
<g id="Background">
</g>
<g id="pic">
	<text transform="matrix(1 0 0 1 114.4046 135.04)"><tspan x="0" y="0" class="st41 st42 st43">BVI Applications </tspan><tspan x="0" y="34.4" class="st41 st42 st44">Icons</tspan></text>
	<g>
		<path class="st48" d="M284.8,312.3c-1.1-1.1-1.6-2.6-1.6-4.5v-59.9c0-2,0.6-3.6,1.8-4.8c1.2-1.2,2.8-1.8,4.8-1.8
			c2,0,3.7,0.6,4.9,1.8c1.2,1.2,1.8,2.8,1.8,4.8v55.2H325c4.1,0,6.1,1.8,6.1,5.4c0,3.6-2,5.4-6.1,5.4h-35.7
			C287.4,313.9,285.9,313.4,284.8,312.3z"/>
	</g>
	<path class="st48" d="M206.5,305l-9.3-14.2c-1.4-2.2-2.9-3.9-4.4-5.1c-1.5-1.2-3.2-2.1-5.2-2.6c5.8-1,10.3-3.3,13.4-6.9
		c3.2-3.6,4.8-8.2,4.8-13.7c0-6.9-2.1-12.1-6.4-15.8c-4.3-3.6-10.5-5.5-18.6-5.5h-25.5c-2,0-3.5,0.5-4.6,1.6
		c-1.1,1.1-1.7,2.6-1.7,4.6v59.8c0,2,0.6,3.7,1.8,4.9c1.2,1.2,2.8,1.8,4.8,1.8c2,0,3.5-0.6,4.7-1.8c1.2-1.2,1.7-2.8,1.7-4.9v-55.8
		h17.1c5,0,8.6,0.9,10.9,2.7c2.3,1.8,3.5,4.7,3.5,8.6c0,3.9-1.2,6.8-3.5,8.6c-2.3,1.9-6,2.8-10.9,2.8h-4.4c-2.9,0-5.3,2.4-5.3,5.3
		l0,0c0,2.7,2,5,4.6,5.2c1.9,0.2,3.3,0.5,4,0.9c1.5,0.9,3,2.4,4.3,4.6l13.6,20.6c0.7,1,1.5,1.8,2.5,2.3c1,0.5,2,0.8,3.1,0.8
		c1.7,0,3.2-0.5,4.4-1.5c1.3-1,1.9-2.3,1.9-3.9C207.7,307.5,207.3,306.3,206.5,305z"/>
	<path class="st48" d="M390.5,411.9c-0.9-34.6-29.7-61.8-64.3-60.9c-34.6,0.9-61.8,29.7-60.9,64.3c0.9,34.6,29.7,61.8,64.3,60.9
		C364.2,475.3,391.5,446.5,390.5,411.9z M347.8,448.9h-35.7c-2,0-3.5-0.5-4.6-1.6c-1.1-1.1-1.6-2.6-1.6-4.5v-59.9
		c0-2,0.6-3.6,1.8-4.8c1.2-1.2,2.8-1.8,4.8-1.8c2,0,3.7,0.6,4.9,1.8c1.2,1.2,1.8,2.8,1.8,4.8v55.2h28.7c4.1,0,6.1,1.8,6.1,5.4
		C353.9,447.1,351.9,448.9,347.8,448.9z"/>
	<path class="st48" d="M240.9,411.9c-0.9-34.6-29.7-61.8-64.3-60.9c-34.6,0.9-61.8,29.7-60.9,64.3c0.9,34.6,29.7,61.8,64.3,60.9
		C214.6,475.3,241.8,446.5,240.9,411.9z M207.8,448.5c-1.3,1-2.7,1.5-4.4,1.5c-1.1,0-2.1-0.3-3.1-0.8c-1-0.5-1.8-1.3-2.5-2.3
		l-13.6-20.6c-1.4-2.2-2.8-3.7-4.3-4.6c-0.7-0.4-2.1-0.8-4-0.9c-2.6-0.2-4.6-2.6-4.6-5.2c0-2.9,2.4-5.3,5.3-5.3h4.4
		c5,0,8.6-0.9,10.9-2.8c2.3-1.9,3.5-4.8,3.5-8.6c0-3.9-1.2-6.8-3.5-8.6c-2.3-1.8-6-2.7-10.9-2.7h-17.1v55.8c0,2-0.6,3.7-1.7,4.9
		c-1.2,1.2-2.7,1.8-4.7,1.8c-2,0-3.6-0.6-4.8-1.8c-1.2-1.2-1.8-2.8-1.8-4.9v-59.8c0-2,0.6-3.5,1.7-4.6c1.1-1.1,2.7-1.6,4.6-1.6h25.5
		c8.2,0,14.4,1.8,18.6,5.5c4.3,3.6,6.4,8.9,6.4,15.8c0,5.6-1.6,10.2-4.8,13.7s-7.6,5.9-13.4,6.9c2,0.5,3.7,1.3,5.2,2.6
		c1.5,1.2,3,2.9,4.4,5.1l9.3,14.2c0.8,1.2,1.2,2.4,1.2,3.6C209.7,446.2,209.1,447.4,207.8,448.5z"/>
</g>
<g id="logo">
</g>
</svg>
