<?xml version="1.0" encoding="utf-8"?>
<!-- Generator: Adobe Illustrator 24.1.0, SVG Export Plug-In . SVG Version: 6.00 Build 0)  -->
<svg version="1.1" xmlns="http://www.w3.org/2000/svg" xmlns:xlink="http://www.w3.org/1999/xlink" x="0px" y="0px"
	 viewBox="0 0 1200 900" style="enable-background:new 0 0 1200 900;" xml:space="preserve">
<style type="text/css">
	.st0{fill:#1F0E72;}
	.st1{fill:#FFF5EE;}
	.st2{fill:#E5DEFF;}
	.st3{fill:#616161;}
	.st4{fill:#FAFAFA;}
	.st5{fill:#D16800;}
	.st6{fill:#00C19C;}
	.st7{fill:#5447FC;}
	.st8{fill:#FFD00D;}
	.st9{fill:#E3FFFA;}
	.st10{fill:#C2F9EE;}
	.st11{fill:#92EFDD;}
	.st12{fill:#2ADDBA;}
	.st13{fill:#098E74;}
	.st14{fill:#046653;}
	.st15{fill:#01493B;}
	.st16{fill:#002820;}
	.st17{fill:#FFFBE9;}
	.st18{fill:#FFF4BB;}
	.st19{fill:#FFEA92;}
	.st20{fill:#FFDF5A;}
	.st21{fill:#FFBC00;}
	.st22{fill:#F29B00;}
	.st23{fill:#ED8100;}
	.st24{fill:#B8B8FF;}
	.st25{fill:#A497FF;}
	.st26{fill:#775DF4;}
	.st27{fill:#4320EF;}
	.st28{fill:#3D15CE;}
	.st29{fill:#2A12A0;}
	.st30{fill:#EFD9CE;}
	.st31{fill:#D6B9AA;}
	.st32{fill:#BF9D82;}
	.st33{fill:#B28662;}
	.st34{fill:#F5F5F5;}
	.st35{fill:#EEEEEE;}
	.st36{fill:#E0E0E0;}
	.st37{fill:#BDBDBD;}
	.st38{fill:#9E9E9E;}
	.st39{fill:#757575;}
	.st40{fill:#424242;}
	.st41{fill:#212121;}
	.st42{filter:url(#Adobe_OpacityMaskFilter);}
	.st43{fill:#FFFFFF;}
	.st44{font-family:'Nunito-Bold';}
	.st45{font-size:42px;}
	.st46{font-size:62px;}
	.st47{fill:#58595B;}
	.st48{fill:#606060;}
	.st49{font-family:'GothamRounded-Medium';}
	.st50{font-size:18.8115px;}
	.st51{font-size:22.7007px;}
	.st52{letter-spacing:-1;}
</style>
<g id="Background">
	<rect class="st0" width="1200" height="900"/>
</g>
<g id="pic">
	<g>
		<path class="st20" d="M1214,398.4c34.1,86.3,45.9,176.4,30,262.8c-25.1,116.5-122.2,168.5-223.8,123.3
			C868,716.7,755.1,545.3,736,359.1c-9.9-122.2,61.4-201,147.8-217.9c105.4-19,224,56.1,291.8,180
			C1189.6,345.1,1202.4,371,1214,398.4z"/>
	</g>
	<defs>
		<filter id="Adobe_OpacityMaskFilter" filterUnits="userSpaceOnUse" x="156.8" y="122.1" width="1042.5" height="694.8">
			<feColorMatrix  type="matrix" values="1 0 0 0 0  0 1 0 0 0  0 0 1 0 0  0 0 0 1 0"/>
		</filter>
	</defs>
	<mask maskUnits="userSpaceOnUse" x="156.8" y="122.1" width="1042.5" height="694.8" id="SVGID_1_">
		<g class="st42">
			<path class="st43" d="M1108.4,417.9c1.1,69.5-17.2,139.7-50.5,201.1c-16.6,30.7-37,59.3-60.6,84.5
				C924,787.3,806,830.2,698.8,792.6c-30.4-11.6-58.8-27.4-84.8-46.5c-102.9-71.5-161.9-189.5-145.8-307.4
				C495,299.2,602.2,197.3,731,149.1c107.3-37.5,236-10.7,310.7,80.1c24.9,30.3,44.1,65.5,55.8,103.9
				C1104.7,359.4,1108.5,387.7,1108.4,417.9z"/>
		</g>
	</mask>
	<g style="mask:url(#SVGID_1_);">
		
			<image style="overflow:visible;" width="2048" height="1365" xlink:href="../../company/photo_stock/product/IMG_3449.jpg"  transform="matrix(0.509 0 0 0.509 156.8035 122.0667)">
		</image>
	</g>
	<path class="st23" d="M1108.4,417.9c1.1,69.5-17.2,139.7-50.5,201.1c-16.6,30.7-37,59.3-60.6,84.5C924,787.3,806,830.2,698.8,792.6
		c-30.4-11.6-58.8-27.4-84.8-46.5c-102.9-71.5-161.9-189.5-145.8-307.4C495,299.2,602.2,197.3,731,149.1
		c107.3-37.5,236-10.7,310.7,80.1c24.9,30.3,44.1,65.5,55.8,103.9C1104.7,359.4,1108.5,387.7,1108.4,417.9z"/>
	<text transform="matrix(1 0 0 1 114.4046 469.477)"><tspan x="0" y="0" class="st43 st44 st45">Brand Visual Identity </tspan><tspan x="0" y="60.4" class="st43 st44 st46">Guidelines</tspan></text>
</g>
<g id="logo">
	<text transform="matrix(1 0 0 1 115.6202 389.0664)"><tspan x="0" y="0" class="st43 st49 st50">R</tspan><tspan x="14" y="-6.2" class="st43 st49 st51 st52">e</tspan><tspan x="26.3" y="0" class="st43 st49 st50">ARIA</tspan></text>
</g>
</svg>
