<?xml version="1.0" encoding="utf-8"?>
<!-- Generator: Adobe Illustrator 24.1.0, SVG Export Plug-In . SVG Version: 6.00 Build 0)  -->
<svg version="1.1" xmlns="http://www.w3.org/2000/svg" xmlns:xlink="http://www.w3.org/1999/xlink" x="0px" y="0px"
	 viewBox="0 0 1200 900" style="enable-background:new 0 0 1200 900;" xml:space="preserve">
<style type="text/css">
	.st0{fill:#1F0E72;}
	.st1{fill:#FFF5EE;}
	.st2{fill:#E5DEFF;}
	.st3{fill:#616161;}
	.st4{fill:#FAFAFA;}
	.st5{fill:#D16800;}
	.st6{fill:#00C19C;}
	.st7{fill:#212121;}
	.st8{font-family:'Karla-Regular';}
	.st9{font-size:18.59px;}
	.st10{font-size:14.1638px;}
	.st11{fill:#5447FC;}
	.st12{fill:#FFD00D;}
	.st13{fill:#E3FFFA;}
	.st14{fill:#C2F9EE;}
	.st15{fill:#92EFDD;}
	.st16{fill:#2ADDBA;}
	.st17{fill:#098E74;}
	.st18{fill:#046653;}
	.st19{fill:#01493B;}
	.st20{fill:#002820;}
	.st21{fill:#FFFBE9;}
	.st22{fill:#FFF4BB;}
	.st23{fill:#FFEA92;}
	.st24{fill:#FFDF5A;}
	.st25{fill:#FFBC00;}
	.st26{fill:#F29B00;}
	.st27{fill:#ED8100;}
	.st28{fill:#B8B8FF;}
	.st29{fill:#A497FF;}
	.st30{fill:#775DF4;}
	.st31{fill:#4320EF;}
	.st32{fill:#3D15CE;}
	.st33{fill:#2A12A0;}
	.st34{fill:#EFD9CE;}
	.st35{fill:#D6B9AA;}
	.st36{fill:#BF9D82;}
	.st37{fill:#B28662;}
	.st38{fill:#F5F5F5;}
	.st39{fill:#EEEEEE;}
	.st40{fill:#E0E0E0;}
	.st41{fill:#BDBDBD;}
	.st42{fill:#9E9E9E;}
	.st43{fill:#757575;}
	.st44{fill:#424242;}
	.st45{font-family:'Nunito-Bold';}
	.st46{font-size:22px;}
	.st47{font-size:32px;}
	.st48{font-family:'SukhumvitSet-Text';}
	.st49{font-size:8.59px;}
	.st50{filter:url(#Adobe_OpacityMaskFilter);}
	.st51{fill:#FFFFFF;}
	.st52{fill:#58595B;}
	.st53{fill:#606060;}
</style>
<g id="Background">
</g>
<g id="pic">
	<rect x="115.8" y="257.6" class="st6" width="153.1" height="62.3"/>
	<text transform="matrix(1 0 0 1 115.6209 225.8671)"><tspan x="0" y="0" class="st7 st8 st9">Primary Colour </tspan><tspan x="0" y="17" class="st7 st8 st10">Innovation</tspan></text>
	<rect x="508.6" y="257.6" class="st11" width="153.1" height="62.3"/>
	<text transform="matrix(1 0 0 1 508.4627 225.8671)"><tspan x="0" y="0" class="st7 st8 st9">Supplementary Colour </tspan><tspan x="0" y="17" class="st7 st8 st10">Tech savvy</tspan></text>
	<rect x="312.2" y="257.6" class="st12" width="153.1" height="62.3"/>
	<text transform="matrix(1 0 0 1 312.0418 225.8671)"><tspan x="0" y="0" class="st7 st8 st9">Secondary Colour </tspan><tspan x="0" y="17" class="st7 st8 st10">Friendly &amp; Dynamic</tspan></text>
	<text transform="matrix(1 0 0 1 742.6752 247.8476)" class="st7 st8 st10">Background Colour </text>
	<rect x="115.8" y="347.9" class="st13" width="153.1" height="47.3"/>
	<rect x="115.8" y="397.4" class="st14" width="153.1" height="47.3"/>
	<rect x="115.8" y="446.9" class="st15" width="153.1" height="47.3"/>
	<rect x="115.8" y="496.4" class="st16" width="153.1" height="47.3"/>
	<rect x="115.8" y="545.9" class="st6" width="153.1" height="47.3"/>
	<rect x="115.8" y="595.5" class="st17" width="153.1" height="47.3"/>
	<rect x="115.8" y="645" class="st18" width="153.1" height="47.3"/>
	<rect x="115.8" y="694.5" class="st19" width="153.1" height="47.3"/>
	<rect x="115.8" y="744" class="st20" width="153.1" height="47.3"/>
	<rect x="312" y="347.9" class="st21" width="153.1" height="47.3"/>
	<rect x="312" y="397.4" class="st22" width="153.1" height="47.3"/>
	<rect x="312" y="446.9" class="st23" width="153.1" height="47.3"/>
	<rect x="312" y="496.4" class="st24" width="153.1" height="47.3"/>
	<rect x="312" y="545.9" class="st12" width="153.1" height="47.3"/>
	<rect x="312" y="595.5" class="st25" width="153.1" height="47.3"/>
	<rect x="312" y="645" class="st26" width="153.1" height="47.3"/>
	<rect x="312" y="694.5" class="st27" width="153.1" height="47.3"/>
	<rect x="312" y="744" class="st5" width="153.1" height="47.3"/>
	<rect x="508.6" y="347.9" class="st2" width="153.1" height="47.3"/>
	<rect x="508.6" y="397.4" class="st28" width="153.1" height="47.3"/>
	<rect x="508.6" y="446.9" class="st29" width="153.1" height="47.3"/>
	<rect x="508.6" y="496.4" class="st30" width="153.1" height="47.3"/>
	<rect x="508.6" y="545.9" class="st11" width="153.1" height="47.3"/>
	<rect x="508.6" y="595.5" class="st31" width="153.1" height="47.3"/>
	<rect x="508.6" y="645" class="st32" width="153.1" height="47.3"/>
	<rect x="508.6" y="694.5" class="st33" width="153.1" height="47.3"/>
	<rect x="508.6" y="744" class="st0" width="153.1" height="47.3"/>
	<rect x="742.7" y="257.6" class="st1" width="153.1" height="47.3"/>
	<rect x="742.7" y="307.1" class="st34" width="153.1" height="47.3"/>
	<rect x="742.7" y="356.6" class="st35" width="153.1" height="47.3"/>
	<rect x="742.7" y="406.1" class="st36" width="153.1" height="47.3"/>
	<rect x="742.7" y="455.6" class="st37" width="153.1" height="47.3"/>
	<text transform="matrix(1 0 0 1 940.8105 247.8476)" class="st7 st8 st10">Grayscale Colour </text>
	<rect x="940.8" y="257.6" class="st4" width="153.1" height="47.3"/>
	<rect x="940.8" y="307.1" class="st38" width="153.1" height="47.3"/>
	<rect x="940.8" y="356.6" class="st39" width="153.1" height="47.3"/>
	<rect x="940.8" y="406.1" class="st40" width="153.1" height="47.3"/>
	<rect x="940.8" y="455.6" class="st41" width="153.1" height="47.3"/>
	<rect x="940.8" y="505.1" class="st42" width="153.1" height="47.3"/>
	<rect x="940.8" y="554.6" class="st43" width="153.1" height="47.3"/>
	<rect x="940.8" y="604.1" class="st3" width="153.1" height="47.3"/>
	<rect x="940.8" y="653.6" class="st44" width="153.1" height="47.3"/>
	<rect x="940.8" y="703.1" class="st7" width="153.1" height="47.3"/>
	<text transform="matrix(1 0 0 1 114.4046 135.0332)"><tspan x="0" y="0" class="st7 st45 st46">Brand Visual Identity </tspan><tspan x="0" y="34.4" class="st7 st45 st47">Colour Palette</tspan></text>
	<g>
		<text transform="matrix(1 0 0 1 90.782 373.4023)" class="st43 st48 st49">100</text>
		<text transform="matrix(1 0 0 1 90.782 422.9068)" class="st43 st48 st49">200</text>
		<text transform="matrix(1 0 0 1 90.782 472.4113)" class="st43 st48 st49">300</text>
		<text transform="matrix(1 0 0 1 90.782 521.9153)" class="st43 st48 st49">400</text>
		<text transform="matrix(1 0 0 1 90.782 571.42)" class="st43 st48 st49">500</text>
		<text transform="matrix(1 0 0 1 90.782 290.5193)" class="st43 st48 st49">500</text>
		<text transform="matrix(1 0 0 1 90.782 620.9241)" class="st43 st48 st49">600</text>
		<text transform="matrix(1 0 0 1 90.782 670.4288)" class="st43 st48 st49">700</text>
		<text transform="matrix(1 0 0 1 90.782 719.9329)" class="st43 st48 st49">800</text>
		<text transform="matrix(1 0 0 1 90.782 769.4374)" class="st43 st48 st49">900</text>
	</g>
	<g>
		<text transform="matrix(1 0 0 1 288.4972 373.4023)" class="st43 st48 st49">100</text>
		<text transform="matrix(1 0 0 1 288.4972 422.9068)" class="st43 st48 st49">200</text>
		<text transform="matrix(1 0 0 1 288.4972 472.4113)" class="st43 st48 st49">300</text>
		<text transform="matrix(1 0 0 1 288.4972 521.9153)" class="st43 st48 st49">400</text>
		<text transform="matrix(1 0 0 1 288.4972 571.42)" class="st43 st48 st49">500</text>
		<text transform="matrix(1 0 0 1 288.4972 290.5193)" class="st43 st48 st49">500</text>
		<text transform="matrix(1 0 0 1 288.4972 620.9241)" class="st43 st48 st49">600</text>
		<text transform="matrix(1 0 0 1 288.4972 670.4288)" class="st43 st48 st49">700</text>
		<text transform="matrix(1 0 0 1 288.4972 719.9329)" class="st43 st48 st49">800</text>
		<text transform="matrix(1 0 0 1 288.4972 769.4374)" class="st43 st48 st49">900</text>
	</g>
	<g>
		<text transform="matrix(1 0 0 1 483.9698 373.4023)" class="st43 st48 st49">100</text>
		<text transform="matrix(1 0 0 1 483.9698 422.9068)" class="st43 st48 st49">200</text>
		<text transform="matrix(1 0 0 1 483.9698 472.4113)" class="st43 st48 st49">300</text>
		<text transform="matrix(1 0 0 1 483.9698 521.9153)" class="st43 st48 st49">400</text>
		<text transform="matrix(1 0 0 1 483.9698 571.42)" class="st43 st48 st49">500</text>
		<text transform="matrix(1 0 0 1 483.9698 290.5193)" class="st43 st48 st49">500</text>
		<text transform="matrix(1 0 0 1 483.9698 620.9241)" class="st43 st48 st49">600</text>
		<text transform="matrix(1 0 0 1 483.9698 670.4288)" class="st43 st48 st49">700</text>
		<text transform="matrix(1 0 0 1 483.9698 719.9329)" class="st43 st48 st49">800</text>
		<text transform="matrix(1 0 0 1 483.9698 769.4374)" class="st43 st48 st49">900</text>
	</g>
	<g>
		<text transform="matrix(1 0 0 1 914.7381 283.7727)" class="st43 st48 st49">100</text>
		<text transform="matrix(1 0 0 1 914.7381 333.2775)" class="st43 st48 st49">200</text>
		<text transform="matrix(1 0 0 1 914.7381 382.782)" class="st43 st48 st49">300</text>
		<text transform="matrix(1 0 0 1 914.7381 432.2859)" class="st43 st48 st49">400</text>
		<text transform="matrix(1 0 0 1 914.7381 481.7905)" class="st43 st48 st49">500</text>
		<text transform="matrix(1 0 0 1 914.7381 531.2946)" class="st43 st48 st49">600</text>
		<text transform="matrix(1 0 0 1 914.7381 580.7993)" class="st43 st48 st49">700</text>
		<text transform="matrix(1 0 0 1 914.7381 630.3033)" class="st43 st48 st49">800</text>
		<text transform="matrix(1 0 0 1 914.7381 679.8079)" class="st43 st48 st49">900</text>
		<text transform="matrix(1 0 0 1 909.7381 728.765)" class="st43 st48 st49">1000</text>
	</g>
	<g>
		<text transform="matrix(1 0 0 1 717.1728 283.7725)" class="st43 st48 st49">100</text>
		<text transform="matrix(1 0 0 1 717.1728 333.2773)" class="st43 st48 st49">200</text>
		<text transform="matrix(1 0 0 1 717.1728 382.7818)" class="st43 st48 st49">300</text>
		<text transform="matrix(1 0 0 1 717.1728 432.2857)" class="st43 st48 st49">400</text>
		<text transform="matrix(1 0 0 1 717.1728 481.7902)" class="st43 st48 st49">500</text>
	</g>
</g>
<g id="logo">
</g>
</svg>
