<?xml version="1.0" encoding="utf-8"?>
<!-- Generator: Adobe Illustrator 23.0.4, SVG Export Plug-In . SVG Version: 6.00 Build 0)  -->
<svg version="1.1" id="Layer_1" xmlns="http://www.w3.org/2000/svg" xmlns:xlink="http://www.w3.org/1999/xlink" x="0px" y="0px"
	 viewBox="0 0 187 49" style="enable-background:new 0 0 187 49;" xml:space="preserve">
<style type="text/css">
	.st0{clip-path:url(#SVGID_2_);}
	.st1{fill:#212121;}
</style>
<g>
	<defs>
		<rect id="SVGID_1_" width="187.8" height="49"/>
	</defs>
	<clipPath id="SVGID_2_">
		<use xlink:href="#SVGID_1_"  style="overflow:visible;"/>
	</clipPath>
	<g class="st0">
		<path class="st1" d="M0,17c0-1.7,1.3-3,3-3h12.4c4.3,0,7.7,1.3,10,3.5c1.8,1.9,2.9,4.5,2.9,7.5v0.1c0,5.6-3.2,8.9-7.8,10.4
			l6.6,8.3c0.6,0.7,1,1.4,1,2.3c0,1.7-1.4,2.8-2.9,2.8c-1.4,0-2.3-0.6-3-1.6l-8.4-10.7H6.1v9.3c0,1.7-1.3,3-3,3
			C1.3,49,0,47.6,0,45.9V17z M14.9,31.1c4.3,0,7.1-2.3,7.1-5.8c0-3.7-2.6-5.8-7.2-5.8H6.1v11.7h8.8V31.1z"/>
		<path class="st1" d="M50.2,32.9c-9.1,0-16.1-6.6-16.1-16.4v-0.1C34.1,7.4,40.5,0,49.5,0c10,0,14.9,8.2,14.9,15.6
			c0,2.1-1.6,3.5-3.4,3.5H41.3c0.7,5.2,4.4,8,9,8c3,0,5.4-1.1,7.5-2.8c0.5-0.4,1-0.6,1.8-0.6c1.6,0,2.9,1.2,2.9,2.9
			c0,0.8-0.4,1.7-1,2.2C58.8,31.4,55.2,32.9,50.2,32.9z M57.4,14.2c-0.5-4.7-3.2-8.3-7.9-8.3c-4.4,0-7.5,3.4-8.2,8.3H57.4z"/>
		<path class="st1" d="M64.4,44.8l12.9-28.7c0.7-1.6,1.9-2.5,3.6-2.5h0.2c1.7,0,2.9,1,3.6,2.5l12.9,28.7c0.2,0.5,0.4,0.8,0.4,1.3
			c0,1.7-1.2,2.9-2.9,2.9c-1.4,0-2.4-0.8-3-2.2l-2.8-6.5H72.5l-2.9,6.8C69.1,48.3,68,49,66.8,49c-1.6,0-2.8-1.2-2.8-2.8
			C64.1,45.6,64.2,45.3,64.4,44.8z M87,34.9l-6.1-14l-6.1,14H87z"/>
		<path class="st1" d="M104.6,17c0-1.7,1.3-3,3-3h12.4c4.3,0,7.7,1.3,10,3.5c1.8,1.9,2.9,4.5,2.9,7.5v0.1c0,5.6-3.2,8.9-7.8,10.4
			l6.6,8.3c0.6,0.7,1,1.4,1,2.3c0,1.7-1.4,2.8-2.9,2.8c-1.4,0-2.3-0.6-3-1.6l-8.4-10.7h-7.7v9.3c0,1.7-1.3,3-3,3c-1.7,0-3-1.3-3-3
			V17z M119.6,31.1c4.3,0,7.1-2.3,7.1-5.8c0-3.7-2.6-5.8-7.2-5.8h-8.9v11.7h9V31.1z"/>
		<path class="st1" d="M141,16.8c0-1.7,1.3-3,3-3c1.7,0,3,1.3,3,3v29.1c0,1.7-1.3,3-3,3c-1.7,0-3-1.3-3-3V16.8z"/>
		<path class="st1" d="M154.3,44.8l12.9-28.7c0.7-1.6,1.9-2.5,3.6-2.5h0.2c1.7,0,2.9,1,3.6,2.5l12.9,28.7c0.2,0.5,0.4,0.8,0.4,1.3
			c0,1.7-1.2,2.9-2.9,2.9c-1.4,0-2.4-0.8-3-2.2l-2.8-6.5h-16.8l-2.9,6.6c-0.5,1.2-1.6,1.9-2.8,1.9c-1.6,0-2.8-1.2-2.8-2.8
			C153.9,45.6,154.1,45.3,154.3,44.8z M176.9,34.9l-6.1-14l-6.1,14H176.9z"/>
	</g>
</g>
</svg>
