<?xml version="1.0" encoding="utf-8"?>
<!-- Generator: Adobe Illustrator 24.1.0, SVG Export Plug-In . SVG Version: 6.00 Build 0)  -->
<svg version="1.1" xmlns="http://www.w3.org/2000/svg" xmlns:xlink="http://www.w3.org/1999/xlink" x="0px" y="0px"
	 viewBox="0 0 1200 900" style="enable-background:new 0 0 1200 900;" xml:space="preserve">
<style type="text/css">
	.st0{fill:#1F0E72;}
	.st1{fill:#FFF5EE;}
	.st2{fill:#E5DEFF;}
	.st3{fill:#616161;}
	.st4{fill:#FAFAFA;}
	.st5{fill:#D16800;}
	.st6{fill:#00C19C;}
	.st7{fill:#5447FC;}
	.st8{fill:#FFD00D;}
	.st9{fill:#E3FFFA;}
	.st10{fill:#C2F9EE;}
	.st11{fill:#92EFDD;}
	.st12{fill:#2ADDBA;}
	.st13{fill:#098E74;}
	.st14{fill:#046653;}
	.st15{fill:#01493B;}
	.st16{fill:#002820;}
	.st17{fill:#FFFBE9;}
	.st18{fill:#FFF4BB;}
	.st19{fill:#FFEA92;}
	.st20{fill:#FFDF5A;}
	.st21{fill:#FFBC00;}
	.st22{fill:#F29B00;}
	.st23{fill:#ED8100;}
	.st24{fill:#B8B8FF;}
	.st25{fill:#A497FF;}
	.st26{fill:#775DF4;}
	.st27{fill:#4320EF;}
	.st28{fill:#3D15CE;}
	.st29{fill:#2A12A0;}
	.st30{fill:#EFD9CE;}
	.st31{fill:#D6B9AA;}
	.st32{fill:#BF9D82;}
	.st33{fill:#B28662;}
	.st34{fill:#F5F5F5;}
	.st35{fill:#EEEEEE;}
	.st36{fill:#E0E0E0;}
	.st37{fill:#BDBDBD;}
	.st38{fill:#9E9E9E;}
	.st39{fill:#757575;}
	.st40{fill:#424242;}
	.st41{fill:#212121;}
	.st42{filter:url(#Adobe_OpacityMaskFilter);}
	.st43{fill:#FFFFFF;}
	.st44{font-family:'Nunito-Bold';}
	.st45{font-size:22px;}
	.st46{font-size:32px;}
	.st47{fill:none;}
	.st48{font-family:'Karla-Regular';}
	.st49{font-size:18px;}
	.st50{font-family:'HalyardTextBook-Regular';}
	.st51{fill:#000F24;}
	.st52{font-family:'PingFangTC-Semibold-B5pc-H';}
	.st53{font-size:11px;}
	.st54{font-family:'PingFangTC-Regular-B5pc-H';}
	.st55{font-size:6.7px;}
	.st56{font-size:12px;}
	.st57{letter-spacing:-1;}
	.st58{font-family:'Karla-Bold';}
	.st59{font-size:9.2px;}
	.st60{fill:#58595B;}
	.st61{font-size:7px;}
	.st62{font-size:6.5px;}
	.st63{font-size:9.1688px;}
	.st64{fill:#606060;}
</style>
<g id="Background">
	<rect x="115.6" y="520.1" class="st2" width="484.4" height="285.9"/>
	<rect x="600" y="520.1" class="st3" width="484.4" height="285.9"/>
	<rect x="600" y="234.2" class="st4" width="484.4" height="285.9"/>
	<rect x="115.6" y="234.2" class="st5" width="484.4" height="285.9"/>
</g>
<g id="pic">
	<text transform="matrix(1 0 0 1 114.4046 135.04)"><tspan x="0" y="0" class="st41 st44 st45">BVI Applications </tspan><tspan x="0" y="34.4" class="st41 st44 st46">Business Card</tspan></text>
	<rect x="644.4" y="270.8" class="st47" width="392.9" height="203.4"/>
	<text transform="matrix(1 0 0 1 644.3596 283.0549)"><tspan x="0" y="0" class="st48 st49">It is allowed to fill the logotypes with one single </tspan><tspan x="0" y="30.4" class="st48 st49">colour. However, for the background in dark co</tspan><tspan x="380.3" y="30.4" class="st48 st49">-</tspan><tspan x="0" y="60.8" class="st48 st49">lours (brightness equal to / darker than ~800 </tspan><tspan x="0" y="91.2" class="st48 st49">on the colour palette), colours of the logotype </tspan><tspan x="0" y="121.6" class="st48 st49">should be lighter than ~200. Conversely, for </tspan><tspan x="0" y="152" class="st48 st49">light backgrounds (</tspan><tspan x="162" y="152" class="st50 st49">≤</tspan><tspan x="170.2" y="152" class="st48 st49">200), the brightness of the </tspan><tspan x="0" y="182.4" class="st48 st49">logotypes should reach at least 800.</tspan></text>
	<g>
		<rect x="187.3" y="589.1" class="st43" width="260.8" height="158.7"/>
		<text transform="matrix(1 0 0 1 213.2841 631.9955)"><tspan x="0" y="0" class="st51 st52 st53">鄭凱文  </tspan><tspan x="0" y="13" class="st51 st54 st55">共同創辦人 </tspan><tspan x="35.7" y="13" class="st51 st52 st56 st57"> </tspan></text>
		<text transform="matrix(1 0 0 1 213.2841 663.2685)"><tspan x="0" y="0" class="st51 st48 st55">+886-976229088</tspan><tspan x="0" y="10.5" class="st51 st48 st55">kevin@rearia.io</tspan></text>
		<text transform="matrix(1 0 0 1 250.8127 633.6508)"><tspan x="0" y="0" class="st51 st58 st59">Kevin Cheng </tspan><tspan x="0" y="12" class="st51 st48 st55">Co-founder</tspan></text>
		<g>
			<text transform="matrix(1 0 0 1 335.8669 681.2568)"><tspan x="0" y="0" class="st60 st52 st61">叡製作所股份有限公司 </tspan><tspan x="0" y="10" class="st60 st58 st61">Rearia Co., Ltd.</tspan><tspan x="0" y="20" class="st60 st54 st62">統編 </tspan><tspan x="15.2" y="20" class="st60 st48 st62"> </tspan><tspan x="16.7" y="20" class="st60 st48 st55">82803034 </tspan><tspan x="0" y="30" class="st60 st48 st62">100</tspan><tspan x="9.9" y="30" class="st60 st48 st62"> </tspan><tspan x="10.9" y="30" class="st60 st54 st62">台北市中正區新生南路一段</tspan><tspan x="88.9" y="30" class="st60 st48 st62"> </tspan><tspan x="89.9" y="30" class="st60 st48 st62"> </tspan><tspan x="0" y="40" class="st60 st48 st62">6</tspan><tspan x="3.7" y="40" class="st60 st54 st62 st57"> </tspan><tspan x="4.7" y="40" class="st60 st54 st62">號地下</tspan><tspan x="24.2" y="40" class="st60 st48 st62"> </tspan><tspan x="25.2" y="40" class="st60 st48 st62">2</tspan><tspan x="29" y="40" class="st60 st48 st62"> </tspan><tspan x="30" y="40" class="st60 st54 st62">樓之</tspan><tspan x="43" y="40" class="st60 st48 st62"> </tspan><tspan x="44" y="40" class="st60 st48 st62">20</tspan></text>
		</g>
		<g>
			<path class="st60" d="M347.5,656.5c-0.7,0-1.2,0.5-1.3,1.3h2.5C348.7,657.1,348.3,656.5,347.5,656.5z"/>
			<path class="st60" d="M342.4,659.1H341v2h1.5c0.7,0,1.2-0.4,1.2-1C343.6,659.4,343.2,659.1,342.4,659.1z"/>
			<path class="st60" d="M344.5,651.1c-4.8,0-8.7,3.9-8.7,8.7c0,4.8,3.9,8.7,8.7,8.7s8.7-3.9,8.7-8.7
				C353.2,655,349.3,651.1,344.5,651.1z M344.4,663.1c0.1,0.1,0.1,0.2,0.1,0.4c0,0.3-0.2,0.5-0.5,0.5c-0.2,0-0.4-0.1-0.5-0.2
				l-1.4-1.8h-1.3v1.6c0,0.3-0.2,0.5-0.5,0.5c-0.3,0-0.5-0.2-0.5-0.5v-4.8c0-0.3,0.2-0.5,0.5-0.5h2.1c0.7,0,1.3,0.2,1.7,0.6
				c0.3,0.3,0.5,0.7,0.5,1.2c0,0.9-0.5,1.5-1.3,1.7L344.4,663.1z M349.4,658.6h-3.1c0.1,0.8,0.7,1.3,1.4,1.3c0.5,0,0.9-0.1,1.2-0.4
				c0.1,0,0.1-0.1,0.3-0.1c0.2,0,0.4,0.2,0.4,0.4c0,0.1,0,0.2-0.1,0.3c-0.4,0.4-1,0.7-1.8,0.7c-1.5,0-2.5-1-2.5-2.6
				c0-1.4,1-2.6,2.5-2.6c1.6,0,2.4,1.3,2.4,2.5C349.9,658.4,349.7,658.6,349.4,658.6z"/>
		</g>
	</g>
	<g>
		<rect x="187.3" y="391.6" class="st0" width="260.8" height="158.7"/>
		<g>
			<g>
				<g>
					<g>
						<path class="st43" d="M265.3,456.6c0-0.9,0.7-1.7,1.7-1.7h6.9c2.4,0,4.3,0.7,5.6,2c1,1.1,1.6,2.5,1.6,4.2v0.1
							c0,3.1-1.8,5-4.3,5.8l3.7,4.6c0.3,0.4,0.6,0.8,0.6,1.3c0,0.9-0.8,1.6-1.6,1.6c-0.8,0-1.3-0.3-1.7-0.9l-4.7-6h-4.3v5.2
							c0,0.9-0.7,1.7-1.7,1.7c-1,0.1-1.7-0.7-1.7-1.7V456.6z M273.6,464.4c2.4,0,4-1.3,4-3.2c0-2.1-1.4-3.2-4-3.2h-4.9v6.5
							L273.6,464.4L273.6,464.4z"/>
						<path class="st43" d="M293.3,465.4c-5.1,0-9-3.7-9-9.1v-0.1c0-5,3.6-9.1,8.6-9.1c5.6,0,8.3,4.6,8.3,8.7c0,1.2-0.9,2-1.9,2h-11
							c0.4,2.9,2.5,4.5,5,4.5c1.7,0,3-0.6,4.2-1.6c0.3-0.2,0.6-0.3,1-0.3c0.9,0,1.6,0.7,1.6,1.6c0,0.4-0.2,0.9-0.6,1.2
							C298.1,464.6,296.1,465.4,293.3,465.4z M297.3,455c-0.3-2.6-1.8-4.6-4.4-4.6c-2.5,0-4.2,1.9-4.6,4.6H297.3z"/>
						<path class="st43" d="M301.2,472.1l7.2-16c0.4-0.9,1.1-1.4,2-1.4h0.1c0.9,0,1.6,0.6,2,1.4l7.2,16c0.1,0.3,0.2,0.4,0.2,0.7
							c0,0.9-0.7,1.6-1.6,1.6c-0.8,0-1.3-0.4-1.7-1.2l-1.6-3.6h-9.4l-1.6,3.8c-0.3,0.7-0.9,1.1-1.6,1.1c-0.9,0-1.6-0.7-1.6-1.6
							C301,472.5,301.1,472.3,301.2,472.1z M313.8,466.5l-3.4-7.8l-3.4,7.8H313.8z"/>
						<path class="st43" d="M323.6,456.6c0-0.9,0.7-1.7,1.7-1.7h6.9c2.4,0,4.3,0.7,5.6,2c1,1.1,1.6,2.5,1.6,4.2v0.1
							c0,3.1-1.8,5-4.3,5.8l3.7,4.6c0.3,0.4,0.6,0.8,0.6,1.3c0,0.9-0.8,1.6-1.6,1.6c-0.8,0-1.3-0.3-1.7-0.9l-4.7-6H327v5.2
							c0,0.9-0.7,1.7-1.7,1.7s-1.7-0.7-1.7-1.7L323.6,456.6L323.6,456.6z M332,464.4c2.4,0,4-1.3,4-3.2c0-2.1-1.4-3.2-4-3.2h-5v6.5
							L332,464.4L332,464.4z"/>
						<path class="st43" d="M343.9,456.4c0-0.9,0.7-1.7,1.7-1.7c0.9,0,1.7,0.7,1.7,1.7v16.2c0,0.9-0.7,1.7-1.7,1.7
							c-0.9,0-1.7-0.7-1.7-1.7V456.4z"/>
						<path class="st43" d="M351.3,472.1l7.2-16c0.4-0.9,1.1-1.4,2-1.4h0.1c0.9,0,1.6,0.6,2,1.4l7.2,16c0.1,0.3,0.2,0.4,0.2,0.7
							c0,0.9-0.7,1.6-1.6,1.6c-0.8,0-1.3-0.4-1.7-1.2l-1.6-3.6h-9.4l-1.6,3.7c-0.3,0.7-0.9,1.1-1.6,1.1c-0.9,0-1.6-0.7-1.6-1.6
							C351.1,472.5,351.2,472.3,351.3,472.1z M363.9,466.5l-3.4-7.8l-3.4,7.8H363.9z"/>
					</g>
				</g>
			</g>
			<text transform="matrix(1 0 0 1 265.2964 492.478)" class="st43 st48 st63">rearia.io</text>
		</g>
	</g>
</g>
<g id="logo">
</g>
</svg>
