<?xml version="1.0" encoding="utf-8"?>
<!-- Generator: Adobe Illustrator 24.1.0, SVG Export Plug-In . SVG Version: 6.00 Build 0)  -->
<svg version="1.1" xmlns="http://www.w3.org/2000/svg" xmlns:xlink="http://www.w3.org/1999/xlink" x="0px" y="0px"
	 viewBox="0 0 1200 900" style="enable-background:new 0 0 1200 900;" xml:space="preserve">
<style type="text/css">
	.st0{fill:#1F0E72;}
	.st1{fill:#FFF5EE;}
	.st2{fill:#E5DEFF;}
	.st3{fill:#616161;}
	.st4{fill:#FAFAFA;}
	.st5{fill:#D16800;}
	.st6{fill:#00C19C;}
	.st7{fill:#5447FC;}
	.st8{fill:#FFD00D;}
	.st9{fill:#E3FFFA;}
	.st10{fill:#C2F9EE;}
	.st11{fill:#92EFDD;}
	.st12{fill:#2ADDBA;}
	.st13{fill:#098E74;}
	.st14{fill:#046653;}
	.st15{fill:#01493B;}
	.st16{fill:#002820;}
	.st17{fill:#FFFBE9;}
	.st18{fill:#FFF4BB;}
	.st19{fill:#FFEA92;}
	.st20{fill:#FFDF5A;}
	.st21{fill:#FFBC00;}
	.st22{fill:#F29B00;}
	.st23{fill:#ED8100;}
	.st24{fill:#B8B8FF;}
	.st25{fill:#A497FF;}
	.st26{fill:#775DF4;}
	.st27{fill:#4320EF;}
	.st28{fill:#3D15CE;}
	.st29{fill:#2A12A0;}
	.st30{fill:#EFD9CE;}
	.st31{fill:#D6B9AA;}
	.st32{fill:#BF9D82;}
	.st33{fill:#B28662;}
	.st34{fill:#F5F5F5;}
	.st35{fill:#EEEEEE;}
	.st36{fill:#E0E0E0;}
	.st37{fill:#BDBDBD;}
	.st38{fill:#9E9E9E;}
	.st39{fill:#757575;}
	.st40{fill:#424242;}
	.st41{fill:#212121;}
	.st42{filter:url(#Adobe_OpacityMaskFilter);}
	.st43{fill:#FFFFFF;}
	.st44{font-family:'Nunito-Bold';}
	.st45{font-size:22px;}
	.st46{font-size:32px;}
	.st47{font-family:'Karla-Regular';}
	.st48{fill:#58595B;}
	.st49{fill:#606060;}
</style>
<g id="Background">
</g>
<g id="pic">
	<text transform="matrix(1 0 0 1 114.4039 135.033)"><tspan x="0" y="0" class="st41 st44 st45">Brand Visual Identity </tspan><tspan x="0" y="34.4" class="st41 st44 st46">Key personalities</tspan></text>
	<g>
		<g>
			<polygon class="st23" points="425.1,443.1 311.9,443.1 342.4,393.7 455.6,393.7 			"/>
			<polygon class="st10" points="425.1,492.4 311.9,492.4 342.4,443.1 455.6,443.1 			"/>
		</g>
		<text transform="matrix(1 0 0 1 340.457 570.3964)" class="st41 st47 st45">Dynamic</text>
	</g>
	<g>
		<g>
			<polygon class="st26" points="706,482.9 757.6,403.2 874.3,403.2 			"/>
			<polygon class="st11" points="822.7,482.9 706,482.9 874.3,403.2 			"/>
		</g>
		<text transform="matrix(1 0 0 1 737.6574 570.3964)" class="st41 st47 st45">Tech savvy</text>
	</g>
	<g>
		<text transform="matrix(1 0 0 1 530.1059 570.3965)" class="st41 st47 st45">Innovative</text>
		<g>
			<path class="st12" d="M657.9,443.1c-36.6,7.5-38.6,14.4-10.5,38.9c-35.1-12.5-40.1-7.4-27.7,27.7c-24.5-28.1-31.5-26.1-38.9,10.5
				c-7.5-36.6-14.4-38.6-38.9-10.5c12.5-35.1,7.4-40.1-27.7-27.7c28.1-24.5,26.1-31.5-10.5-38.9c36.6-7.5,38.6-14.4,10.5-38.9
				c35.1,12.5,40.1,7.4,27.7-27.7c24.5,28.1,31.5,26.1,38.9-10.5c7.5,36.6,14.4,38.6,38.9,10.5c-12.5,35.1-7.4,40.1,27.7,27.7
				C619.3,428.6,621.3,435.6,657.9,443.1z"/>
			<path class="st8" d="M607.5,413.9c8.8-2.3,17,1.2,24.8,5.2c0.2-0.2,0.3-0.4,0.5-0.7c-12.6-8.8-27.7-11.7-42.9-13
				c3.6-8.3,15.2-8.6,24-8.8c0-0.2,0.1-0.4,0.1-0.7c-6.1-0.6-11.5-0.5-16.2,0.1c-10.8,0.2-18.5,7.9-28.3,10
				c-1.2-9.6,8.9-15.1,16.7-20c-0.1-0.3-0.3-0.7-0.4-1.1c-14.9,6-23.5,20-33.8,31.6c-2.9-8.8,1-17.1,5.2-24.9
				c-0.3-0.2-0.5-0.4-0.8-0.6c-9.2,12.2-11.6,27.9-12.8,43.1c-8.4-4.8-8.6-15.3-8.9-24.3c-0.4-0.1-0.8-0.1-1.1-0.2
				c-2.5,15.9,5.5,30.8,10.1,45.6c-9.2-2.4-15.1-10.2-19.8-17.7c-0.2,0.1-0.4,0.2-0.6,0.2c6.3,14.8,19.3,24.5,31.6,33.6
				c-8.9,3.6-17.8-0.4-25.4-4.7c-0.2,0.2-0.3,0.4-0.5,0.7c12.3,9.3,28.2,11.2,43.5,13.1c-5.5,8.5-15.7,8.6-24.7,8.9
				c0,0.2-0.1,0.5-0.1,0.7c14.8,1.6,29.5-2.6,42.4-10.4c0.7,0,3.5-0.7,2.8,0.7c-0.6,9.8-9.8,14.3-17.3,19.5c0.1,0.3,0.3,0.6,0.4,1
				c14.8-6.3,24-19.3,33.8-31.7c4.2,8.9-0.7,17.3-4.9,25.2c0.3,0.2,0.5,0.4,0.8,0.6c9.2-12.7,10.6-28,13.2-43.4
				c7.8,5.4,8.9,15.5,8.7,24.4c0.3,0,0.5,0.1,0.8,0.1c3-15.8-5.6-30.1-9.5-45.6c8.6,2.5,15,9.7,19.3,17.6c0.2-0.1,0.3-0.1,0.5-0.2
				C632.7,433.5,619.2,424.3,607.5,413.9z"/>
		</g>
	</g>
	<g>
		<text transform="matrix(1 0 0 1 151.6521 570.3969)" class="st41 st47 st45">Friendly</text>
		<g>
			<path class="st20" d="M256.9,429.8c6.4,16.1,8.6,32.9,5.6,49c-4.7,21.7-22.8,31.4-41.7,23c-28.4-12.6-49.4-44.6-53-79.3
				c-1.8-22.8,11.4-37.5,27.6-40.6c19.7-3.5,41.8,10.5,54.4,33.6C252.4,419.9,254.8,424.7,256.9,429.8z"/>
			<path class="st21" d="M237.2,433.4c0.2,13-3.2,26-9.4,37.5c-3.1,5.7-6.9,11.1-11.3,15.8c-13.7,15.6-35.7,23.6-55.7,16.6
				c-5.7-2.2-11-5.1-15.8-8.7c-19.2-13.3-30.2-35.3-27.2-57.3c5-26,25-45,49-54c20-7,44-2,57.9,14.9c4.6,5.6,8.2,12.2,10.4,19.4
				C236.5,422.5,237.3,427.8,237.2,433.4z"/>
		</g>
	</g>
	<g>
		<text transform="matrix(1 0 0 1 947.1711 570.3962)" class="st41 st47 st45">Confident</text>
		<g>
			<polygon class="st0" points="1058,443.1 1048.7,393.7 940.9,393.7 931.6,443.1 			"/>
			<polygon class="st21" points="931.6,443.1 922.3,492.4 1067,492.4 1067,490.6 1058,443.1 			"/>
		</g>
	</g>
</g>
<g id="logo">
</g>
</svg>
