<?xml version="1.0" encoding="utf-8"?>
<!-- Generator: Adobe Illustrator 24.1.0, SVG Export Plug-In . SVG Version: 6.00 Build 0)  -->
<svg version="1.1" xmlns="http://www.w3.org/2000/svg" xmlns:xlink="http://www.w3.org/1999/xlink" x="0px" y="0px"
	 viewBox="0 0 495.4 130.8" style="enable-background:new 0 0 495.4 130.8;" xml:space="preserve">
<style type="text/css">
	.st0{fill:#1F0E72;}
	.st1{fill:#FFF5EE;}
	.st2{fill:#E5DEFF;}
	.st3{fill:#616161;}
	.st4{fill:#FAFAFA;}
	.st5{fill:#D16800;}
	.st6{fill:#00C19C;}
	.st7{fill:#5447FC;}
	.st8{fill:#FFD00D;}
	.st9{fill:#E3FFFA;}
	.st10{fill:#C2F9EE;}
	.st11{fill:#92EFDD;}
	.st12{fill:#2ADDBA;}
	.st13{fill:#098E74;}
	.st14{fill:#046653;}
	.st15{fill:#01493B;}
	.st16{fill:#002820;}
	.st17{fill:#FFFBE9;}
	.st18{fill:#FFF4BB;}
	.st19{fill:#FFEA92;}
	.st20{fill:#FFDF5A;}
	.st21{fill:#FFBC00;}
	.st22{fill:#F29B00;}
	.st23{fill:#ED8100;}
	.st24{fill:#B8B8FF;}
	.st25{fill:#A497FF;}
	.st26{fill:#775DF4;}
	.st27{fill:#4320EF;}
	.st28{fill:#3D15CE;}
	.st29{fill:#2A12A0;}
	.st30{fill:#EFD9CE;}
	.st31{fill:#D6B9AA;}
	.st32{fill:#BF9D82;}
	.st33{fill:#B28662;}
	.st34{fill:#F5F5F5;}
	.st35{fill:#EEEEEE;}
	.st36{fill:#E0E0E0;}
	.st37{fill:#BDBDBD;}
	.st38{fill:#9E9E9E;}
	.st39{fill:#757575;}
	.st40{fill:#424242;}
	.st41{fill:#212121;}
	.st42{filter:url(#Adobe_OpacityMaskFilter);}
	.st43{fill:#FFFFFF;}
	.st44{fill:#58595B;}
	.st45{fill:#606060;}
</style>
<g id="Background">
</g>
<g id="pic">
	<g>
		<path class="st41" d="M0,42.9c0-4.8,3.7-8.5,8.5-8.5h34.2c12,0,21.5,3.6,27.6,9.6c5.1,5.2,7.9,12.3,7.9,20.6v0.3
			c0,15.3-8.9,24.6-21.7,28.6l18.3,23.1c1.6,2,2.7,3.8,2.7,6.4c0,4.6-4,7.8-8.1,7.8c-3.8,0-6.3-1.8-8.2-4.4L38,96.8H16.8v25.7
			c0,4.6-3.7,8.3-8.3,8.3c-4.8,0-8.5-3.7-8.5-8.3V42.9z M41.4,81.9c12,0,19.7-6.3,19.7-16v-0.3c0-10.2-7.4-15.9-19.8-15.9H16.8v32.1
			H41.4z"/>
		<path class="st41" d="M133.5,82.6c-22.9,0-40.6-16.6-40.6-41.1v-0.3c0-22.6,16-41.2,38.7-41.2c25.2,0,37.6,20.7,37.6,39
			c0,5.1-3.9,8.7-8.5,8.7H111c2,12.9,11.1,20.1,22.8,20.1c7.6,0,13.6-2.7,18.7-6.9c1.4-1,2.6-1.7,4.6-1.7c4,0,7.2,3.2,7.2,7.4
			c0,2.2-1,4.2-2.4,5.5C154.8,78.6,145.8,82.6,133.5,82.6z M151.5,35.7c-1.2-11.7-8.1-20.8-20.1-20.8c-11.1,0-18.9,8.5-20.5,20.8
			H151.5z"/>
		<path class="st41" d="M162.9,119.2l35.5-79.3c1.9-4.2,5.3-6.8,10.1-6.8h0.8c4.8,0,8.1,2.6,10,6.8l35.5,79.3c0.7,1.2,1,2.5,1,3.6
			c0,4.5-3.4,8.1-7.9,8.1c-4,0-6.7-2.3-8.2-5.9l-7.8-17.9h-46.5l-8.1,18.4c-1.4,3.4-4.2,5.3-7.8,5.3c-4.4,0-7.8-3.4-7.8-7.8
			C161.8,121.8,162.2,120.6,162.9,119.2z M225.5,92.1l-16.8-38.7l-16.8,38.7H225.5z"/>
		<path class="st41" d="M271.2,42.9c0-4.8,3.7-8.5,8.5-8.5h34.2c12,0,21.5,3.6,27.6,9.6c5.1,5.2,7.9,12.3,7.9,20.6v0.3
			c0,15.3-8.9,24.6-21.7,28.6l18.3,23.1c1.6,2,2.7,3.8,2.7,6.4c0,4.6-4,7.8-8.1,7.8c-3.8,0-6.3-1.8-8.2-4.4l-23.2-29.7h-21.2v25.7
			c0,4.6-3.7,8.3-8.3,8.3c-4.8,0-8.5-3.7-8.5-8.3V42.9z M312.7,81.9c12,0,19.7-6.3,19.7-16v-0.3c0-10.2-7.4-15.9-19.8-15.9h-24.5
			v32.1H312.7z"/>
		<path class="st41" d="M368.3,42.1c0-4.6,3.7-8.3,8.5-8.3c4.6,0,8.3,3.7,8.3,8.3v80.4c0,4.6-3.7,8.3-8.3,8.3
			c-4.8,0-8.5-3.7-8.5-8.3V42.1z"/>
		<path class="st41" d="M402.4,119.2L438,39.9c1.9-4.2,5.3-6.8,10.1-6.8h0.8c4.8,0,8.1,2.6,10,6.8l35.5,79.3c0.7,1.2,1,2.5,1,3.6
			c0,4.5-3.4,8.1-7.9,8.1c-4,0-6.7-2.3-8.2-5.9l-7.8-17.9H425l-8.1,18.4c-1.4,3.4-4.2,5.3-7.8,5.3c-4.4,0-7.8-3.4-7.8-7.8
			C401.3,121.8,401.7,120.6,402.4,119.2z M465,92.1l-16.8-38.7l-16.8,38.7H465z"/>
	</g>
</g>
<g id="logo">
</g>
</svg>
