<?xml version="1.0" encoding="utf-8"?>
<!-- Generator: Adobe Illustrator 24.1.0, SVG Export Plug-In . SVG Version: 6.00 Build 0)  -->
<svg version="1.1" xmlns="http://www.w3.org/2000/svg" xmlns:xlink="http://www.w3.org/1999/xlink" x="0px" y="0px"
	 viewBox="0 0 377 143.6" style="enable-background:new 0 0 377 143.6;" xml:space="preserve">
<style type="text/css">
	.st0{fill:#1F0E72;}
	.st1{fill:#FFF5EE;}
	.st2{fill:#E5DEFF;}
	.st3{fill:#616161;}
	.st4{fill:#FAFAFA;}
	.st5{fill:#D16800;}
	.st6{fill:#212121;}
	.st7{fill:#00C19C;}
	.st8{fill:#5447FC;}
	.st9{fill:#FFD00D;}
	.st10{fill:#E3FFFA;}
	.st11{fill:#C2F9EE;}
	.st12{fill:#92EFDD;}
	.st13{fill:#2ADDBA;}
	.st14{fill:#098E74;}
	.st15{fill:#046653;}
	.st16{fill:#01493B;}
	.st17{fill:#002820;}
	.st18{fill:#FFFBE9;}
	.st19{fill:#FFF4BB;}
	.st20{fill:#FFEA92;}
	.st21{fill:#FFDF5A;}
	.st22{fill:#FFBC00;}
	.st23{fill:#F29B00;}
	.st24{fill:#ED8100;}
	.st25{fill:#B8B8FF;}
	.st26{fill:#A497FF;}
	.st27{fill:#775DF4;}
	.st28{fill:#4320EF;}
	.st29{fill:#3D15CE;}
	.st30{fill:#2A12A0;}
	.st31{fill:#EFD9CE;}
	.st32{fill:#D6B9AA;}
	.st33{fill:#BF9D82;}
	.st34{fill:#B28662;}
	.st35{fill:#F5F5F5;}
	.st36{fill:#EEEEEE;}
	.st37{fill:#E0E0E0;}
	.st38{fill:#BDBDBD;}
	.st39{fill:#9E9E9E;}
	.st40{fill:#757575;}
	.st41{fill:#424242;}
	.st42{filter:url(#Adobe_OpacityMaskFilter);}
	.st43{fill:#FFFFFF;}
	.st44{fill:#58595B;}
	.st45{fill:#606060;}
	.st46{opacity:0.8;fill:none;stroke:#FFDF5A;stroke-miterlimit:10;}
</style>
<g id="Background">
</g>
<g id="pic">
	<g>
		<path class="st6" d="M368.7,87.7c-3.4,5-12.7,17.3-17.5,22.5s-13.8,14.6-20.5,16.2c-3.6,0.9-5.5-0.8-6-2.7
			c-0.5-1.9-0.8-7.5-0.7-13.7c0-2.8-0.1-18.4-0.1-22V45c0-3.9-2.8-7.2-6.6-7.9c-3.8-0.7-8,1.3-9,5c-2.3,9.2-9.9,31.2-16.6,48.7
			c-8.3,21.6-16.3,36.2-25.4,32.2c-1-0.4-2.9-2.5-3.4-4.8c-1-5-0.9-7.6-0.9-21.3v-7c0-26.1-4.3-41-19.7-51.5
			c-9-6.2-29.5-11.3-49.3-2.9c-9.6,4.1-21.8,11.9-31.1,15.6c-4.8,1.9-14.1,4-17.8,4.4l0.3-36.6l-16.1-0.1l-0.3,36.8
			c-10.2-0.4-21.6-1.7-32.8-3c-8-0.9-15.9-1.8-23.5-2.4c0-0.1,0-0.2,0-0.4c0-4.1,0-8,0-11.6v-22H55.7v22c0,3.4,0,7.2,0,11.1
			c-17.3,0-28.7,2.6-38.5,10.7C7.6,68.1,1.4,79.7,0.2,96.5c-1,13.7,2.3,27.2,9.2,34.7c9.2,9.9,19.7,12.5,29.3,12.5
			c5.3,0,12.5-1.4,17.1-4.3c11.1-7.1,13.7-17.2,15.1-31.2c0.8-8.6,1-20.6,1-41.7c7.2,0.6,14.5,1.4,21.6,2.3
			c12,1.4,23.8,2.7,34.5,3.1l-0.5,70.2l16.1,0.1l0.5-70.6c5.7-0.5,13.6-2,23.7-5.8s22.8-11.8,30-14.6c11.9-4.6,26.1-4.2,33.7,1.2
			c6.4,4.6,11.3,10.6,12.3,21.3c-8-3.3-19.1-6.3-33.5-6.3c-0.2,0-0.5,0-0.7,0c-24.8,0.2-42.5,13.6-45.1,34.2
			c-1.3,10.7,1.8,21.2,8.7,29c7.5,8.5,18.9,13.2,32,13.2c18.2,0,32.5-8.6,42.1-16.9c0.1,0.4,0.2,0.9,0.2,1.3
			c1.8,8.6,7.4,14.4,15.7,15.2c14.1,1.4,24.4-6.7,31.9-20.6c6-11,11.5-25.6,12.8-30.3v2.3c0,3.6,0.1,14,0.1,16.8
			c-0.2,16.8,2.2,28.9,14.3,31.5c9.4,2,23.5-3.7,34.6-13.4c13.5-11.8,19.1-21.5,20.2-23.2L368.7,87.7z M54.8,106.6
			c-1.2,12.3-3.2,15.7-7.9,18.8c-4.1,2.7-15.6,2.1-22.7-3.4c-4.6-3.6-7.8-8.9-8.5-20.7c-0.7-11.4,3.9-23.8,13.1-30.4
			c6.2-4.4,12.8-5.4,25.4-5.4c0.5,0,0.9,0,1.4,0C55.8,86.1,55.6,98.6,54.8,106.6z M205.1,127.5c-8.5,0-15.4-2.7-19.9-7.8
			c-3.9-4.4-5.6-10.2-4.8-16.3c1.6-12.5,12.5-20,29.3-20.1c0.2,0,0.4,0,0.6,0c19.8,0,31.1,7,35.3,9.9v3.7c0,2.7,0,4.1,0,6.5
			C241.1,109.1,226.6,127.5,205.1,127.5z"/>
		<path class="st6" d="M317.9,23.3c6.4,0,11.6-5.2,11.6-11.6c0-6.4-5.2-11.6-11.6-11.6c-6.4,0-11.6,5.2-11.6,11.6
			C306.3,18.1,311.5,23.3,317.9,23.3z"/>
	</g>
</g>
<g id="logo">
</g>
</svg>
