<?xml version="1.0" encoding="utf-8"?>
<!-- Generator: Adobe Illustrator 24.1.0, SVG Export Plug-In . SVG Version: 6.00 Build 0)  -->
<svg version="1.1" id="Layer_1" xmlns="http://www.w3.org/2000/svg" xmlns:xlink="http://www.w3.org/1999/xlink" x="0px" y="0px"
	 viewBox="0 0 635.5 260.7" style="enable-background:new 0 0 635.5 260.7;" xml:space="preserve">
<style type="text/css">
	.st0{fill:#FFF4EE;}
	.st1{fill:url(#SVGID_1_);}
	.st2{fill:url(#SVGID_2_);}
	.st3{fill:url(#SVGID_3_);}
	.st4{opacity:0.86;}
	.st5{fill:url(#SVGID_4_);}
	.st6{fill:#D6B9AA;}
	.st7{fill:#212121;}
</style>
<g>
	<g>
		
			<rect x="131.6" y="117.5" transform="matrix(6.975277e-03 -1 1 6.975277e-03 107.4999 371.7748)" class="st7" width="218.6" height="28.5"/>
	</g>
	<g>
		<g>
			<path class="st7" d="M68.1,260.7c-17.1,0-35-6.4-45.3-17.1C0,219.8,0,184.9,0,164c0-29.9,11.3-56.6,35.7-73.5
				c15.6-10.8,37.5-14,62.7-13.8c0-7,0-13.7,0-19.8V22.4h28.5v34.5c0,6.3,0,13.3,0,20.6c0,0.2,0,0.4,0,0.6
				c13.5,1.1,27.5,2.7,41.7,4.3c40.1,4.6,81.5,9.3,104.5,0.8c20.3-7.5,29.6-13.6,39.4-20c8.7-5.7,17.7-11.6,33.2-17.7
				c37.9-14.7,65-4.7,81,6.3c27.4,18.8,45.1,56.7,45.1,96.7v4.2c0,24.4,0,40.4,1.8,49.3c1.1,5.1,1.6,5.2,4.7,6c0.2,0,15,0.7,47-59.4
				c18.7-35.2,32.9-72.1,33.1-72.5c2.5-6.4,9.2-10.2,15.9-8.9c6.8,1.3,11.7,7.2,11.7,14v76.5c0,6.5-0.1,12.2-0.1,17.2
				c-0.1,10.9-0.4,21.1,0,23.3c0.4,2.2,1.2,5.3,5.2,5.3c6.4,0,13.4-12.4,19.5-23.2l24.9,14c-0.2,0.4-5.7,10.1-13.7,18.9
				c-17.1,18.7-34.3,19.9-43.9,17.4c-21.3-5.4-20.8-26.1-20.5-56c0.1-4.9,0.1-10.5,0.1-16.9v-9.1c-2.2,4.4-4.5,8.9-6.9,13.4
				c-30,56.4-55.1,79.9-79.2,73.7c-14.2-3.6-22.4-12.5-25.6-27.8c-2.5-11.7-2.5-28.1-2.5-55.1v-4.2c0-30.4-13.1-59.8-32.7-73.2
				c-15.1-10.3-33.5-11.4-54.6-3.3c-12.7,4.9-19.7,9.5-27.8,14.9c-10.2,6.7-21.8,14.4-45.2,23c-29.3,10.8-72.2,5.9-117.6,0.7
				c-12.6-1.4-25.7-2.9-38.4-4c0,37.5-0.3,75.6-1.8,90.8c-2.4,24.9-5.6,41-30.1,55.9C86.9,258.6,77.6,260.7,68.1,260.7z M95.9,105.3
				c-18.7,0-34.6,2.2-44,8.7c-16.5,11.4-26,29.6-26,50c0,27.3,6.1,49.2,16.3,58.7c11.6,10.8,30.6,11.1,38,6.5
				c13-7.9,14.4-12.5,16.6-34.3c1.4-14.2,1.6-53.1,1.6-89.5C97.6,105.3,96.7,105.3,95.9,105.3z"/>
		</g>
	</g>
	<g>
		<g>
			<path class="st7" d="M370.6,244c-23.3,0-43.4-8.3-56.8-23.4c-12.2-13.8-17.8-32.5-15.4-51.5c4.6-36.6,36-60.4,80.1-60.7
				c0.4,0,0.8,0,1.2,0c55.6,0,84.3,25.2,85.5,26.3l-19,21.3l9.5-10.6l-9.4,10.7c-0.9-0.8-22.6-19.1-66.6-19.1c-0.4,0-0.7,0-1,0
				c-29.8,0.2-49.2,13.6-52,35.7c-1.4,11,1.7,21.3,8.5,29c8,9,20.2,13.8,35.4,13.8c45.5,0,74.7-43.6,75-44l23.9,15.6
				C468,189.4,431.8,244,370.6,244z"/>
		</g>
	</g>
	<g>
		<g>
			<circle class="st7" cx="571.7" cy="22.3" r="22.3"/>
		</g>
	</g>
</g>
</svg>
