<?xml version="1.0" encoding="utf-8"?>
<!-- Generator: Adobe Illustrator 24.1.0, SVG Export Plug-In . SVG Version: 6.00 Build 0)  -->
<svg version="1.1" xmlns="http://www.w3.org/2000/svg" xmlns:xlink="http://www.w3.org/1999/xlink" x="0px" y="0px"
	 viewBox="0 0 387.3 152.6" style="enable-background:new 0 0 387.3 152.6;" xml:space="preserve">
<style type="text/css">
	.st0{fill:#1F0E72;}
	.st1{fill:#FFF5EE;}
	.st2{fill:#E5DEFF;}
	.st3{fill:#616161;}
	.st4{fill:#FAFAFA;}
	.st5{fill:#D16800;}
	.st6{fill:#00C19C;}
	.st7{fill:#5447FC;}
	.st8{fill:#FFD00D;}
	.st9{fill:#E3FFFA;}
	.st10{fill:#C2F9EE;}
	.st11{fill:#92EFDD;}
	.st12{fill:#2ADDBA;}
	.st13{fill:#098E74;}
	.st14{fill:#046653;}
	.st15{fill:#01493B;}
	.st16{fill:#002820;}
	.st17{fill:#FFFBE9;}
	.st18{fill:#FFF4BB;}
	.st19{fill:#FFEA92;}
	.st20{fill:#FFDF5A;}
	.st21{fill:#FFBC00;}
	.st22{fill:#F29B00;}
	.st23{fill:#ED8100;}
	.st24{fill:#B8B8FF;}
	.st25{fill:#A497FF;}
	.st26{fill:#775DF4;}
	.st27{fill:#4320EF;}
	.st28{fill:#3D15CE;}
	.st29{fill:#2A12A0;}
	.st30{fill:#EFD9CE;}
	.st31{fill:#D6B9AA;}
	.st32{fill:#BF9D82;}
	.st33{fill:#B28662;}
	.st34{fill:#F5F5F5;}
	.st35{fill:#EEEEEE;}
	.st36{fill:#E0E0E0;}
	.st37{fill:#BDBDBD;}
	.st38{fill:#9E9E9E;}
	.st39{fill:#757575;}
	.st40{fill:#424242;}
	.st41{fill:#212121;}
	.st42{filter:url(#Adobe_OpacityMaskFilter);}
	.st43{fill:#FFFFFF;}
	.st44{fill:#58595B;}
	.st45{fill:#606060;}
</style>
<g id="Background">
</g>
<g id="pic">
	<g>
		<g>
			
				<rect x="78.7" y="76.9" transform="matrix(6.975277e-03 -1 1 6.975277e-03 57.6451 228.9069)" class="st41" width="130.7" height="17.1"/>
		</g>
		<g>
			<g>
				<path class="st41" d="M40.7,152.6c-10.2,0-20.9-3.8-27.1-10.2C0,128.1,0,117.2,0,104.7c0-17.9,6.8-33.9,21.3-43.9
					c9.3-6.4,22.4-8.4,37.5-8.3c0-4.2,0-8.2,0-11.8V17.4h17.1v23.3c0,3.8,0,7.9,0,12.3c0,0.1,0,0.3,0,0.4C84,54,92.3,55,100.9,56
					c24,2.7,48.8,5.6,62.5,0.5c12.2-4.5,17.7-8.1,23.5-12c5.2-3.4,10.6-7,19.9-10.6c22.7-8.8,38.8-2.8,48.4,3.8
					c16.4,11.2,27,33.9,27,57.8v7.4c0,14.6-0.1,17.3,0.9,22.6c0.5,2.5,2.5,4.7,3.6,5.2c9.7,4.2,18.2-11.3,27-34.3
					c7.1-18.6,15.2-42,17.7-51.8c1-4,5.5-6.1,9.5-5.3c4,0.8,7,4.3,7,8.4v45.7c0,3.9,0.1,20.4,0.1,23.4c-0.1,6.5,0.1,11.1,0.6,13.1
					s1.7,4.2,4.7,3.9c4.4-0.5,12.7-11.9,17.9-17.6l16.2,10c-0.1,0.2-4.7,5.9-9.6,10.9c-11.1,11.2-21.7,16.9-31.7,14.7
					c-12.9-2.8-15.4-15.6-15.2-33.5c0-2.9-0.1-14-0.1-17.8V98c-1.4,5-7.3,20.5-13.6,32.2c-8,14.8-19,23.4-33.9,21.9
					c-8.7-0.9-14.7-7-16.6-16.1c-1.5-7-1.5-16.8-1.5-33v-7.4c0-18.2-7.9-35.7-19.5-43.8c-9-6.2-20-6.8-32.6-2
					c-7.6,2.9-11.8,5.7-16.6,8.9c-6.1,4-13,8.6-27,13.7c-17.5,6.5-43.2,3.5-70.3,0.4c-7.5-0.9-15.4-1.8-23-2.4
					c0,22.4-0.2,35.2-1.1,44.3c-1.4,14.9-3.4,24.5-18,33.4C52,151.3,46.4,152.6,40.7,152.6z M57.4,69.6c-11.2,0-20.7,1.3-26.3,5.2
					c-9.9,6.8-15.5,17.7-15.5,29.9c0,16.3,3.6,19.4,9.8,25.1c7,6.4,18.3,6.6,22.7,3.9c7.8-4.7,8.6-7.5,9.9-20.5
					c0.8-8.5,1-21.8,1-43.6C58.4,69.6,57.9,69.6,57.4,69.6z"/>
			</g>
		</g>
		<g>
			<g>
				<path class="st41" d="M221.6,152.6c-13.9,0-26-5-34-14c-7.3-8.2-10.6-19.5-9.2-30.8c2.7-21.9,21.5-36.1,47.9-36.3
					c0.2,0,0.5,0,0.7,0c33.2,0,50.4,15.1,51.1,15.7l-11.4,12.7l5.7-6.4l-5.6,6.4c-0.5-0.5-13.5-11.4-39.8-11.4c-0.2,0-0.4,0-0.6,0
					c-17.8,0.1-29.4,8.1-31.1,21.4c-0.8,6.6,1,12.7,5.1,17.4c4.8,5.4,12.1,8.2,21.2,8.2c27.2,0,44.7-26.1,44.9-26.3l14.3,9.3
					C279.9,119.9,258.2,152.6,221.6,152.6z"/>
			</g>
		</g>
		<g>
			<g>
				<circle class="st41" cx="341.5" cy="12.4" r="12.4"/>
			</g>
		</g>
	</g>
</g>
<g id="logo">
</g>
</svg>
