<?xml version="1.0" encoding="utf-8"?>
<!-- Generator: Adobe Illustrator 24.1.0, SVG Export Plug-In . SVG Version: 6.00 Build 0)  -->
<svg version="1.1" xmlns="http://www.w3.org/2000/svg" xmlns:xlink="http://www.w3.org/1999/xlink" x="0px" y="0px"
	 viewBox="0 0 383.6 152.6" style="enable-background:new 0 0 383.6 152.6;" xml:space="preserve">
<style type="text/css">
	.st0{fill:#1F0E72;}
	.st1{fill:#FFF5EE;}
	.st2{fill:#E5DEFF;}
	.st3{fill:#616161;}
	.st4{fill:#FAFAFA;}
	.st5{fill:#D16800;}
	.st6{fill:#212121;}
	.st7{fill:#00C19C;}
	.st8{fill:#5447FC;}
	.st9{fill:#FFD00D;}
	.st10{fill:#E3FFFA;}
	.st11{fill:#C2F9EE;}
	.st12{fill:#92EFDD;}
	.st13{fill:#2ADDBA;}
	.st14{fill:#098E74;}
	.st15{fill:#046653;}
	.st16{fill:#01493B;}
	.st17{fill:#002820;}
	.st18{fill:#FFFBE9;}
	.st19{fill:#FFF4BB;}
	.st20{fill:#FFEA92;}
	.st21{fill:#FFDF5A;}
	.st22{fill:#FFBC00;}
	.st23{fill:#F29B00;}
	.st24{fill:#ED8100;}
	.st25{fill:#B8B8FF;}
	.st26{fill:#A497FF;}
	.st27{fill:#775DF4;}
	.st28{fill:#4320EF;}
	.st29{fill:#3D15CE;}
	.st30{fill:#2A12A0;}
	.st31{fill:#EFD9CE;}
	.st32{fill:#D6B9AA;}
	.st33{fill:#BF9D82;}
	.st34{fill:#B28662;}
	.st35{fill:#F5F5F5;}
	.st36{fill:#EEEEEE;}
	.st37{fill:#E0E0E0;}
	.st38{fill:#BDBDBD;}
	.st39{fill:#9E9E9E;}
	.st40{fill:#757575;}
	.st41{fill:#424242;}
	.st42{filter:url(#Adobe_OpacityMaskFilter);}
	.st43{fill:#FFFFFF;}
	.st44{fill:#58595B;}
	.st45{fill:#606060;}
	.st46{opacity:0.8;fill:none;stroke:#FFDF5A;stroke-miterlimit:10;}
</style>
<g id="Background">
</g>
<g id="pic">
	<g>
		<path class="st6" d="M367.3,116.2c-5.2,5.8-13.4,17.2-17.9,17.6c-3,0.3-4.1-1.9-4.7-3.9s-0.7-6.5-0.6-13.1c0-3-0.1-19.5-0.1-23.4
			V47.8c0-4.1-2.9-7.6-7-8.4c-4-0.7-8.5,1.3-9.5,5.3c-2.5,9.8-10.5,33.1-17.7,51.8c-8.8,22.9-17.3,38.5-27,34.3
			c-1.1-0.5-3.1-2.7-3.6-5.2c-1.1-5.3-0.9-8.1-0.9-22.6v-7.4c0-27.7-4.6-43.5-21-54.8c-9.6-6.6-31.3-12-52.4-3
			c-10.2,4.3-23.1,12.6-33,16.6c-5,2-14.9,4.3-18.9,4.7l0.3-38.9L136.4,20l-0.3,39.1c-10.9-0.4-23-1.8-34.9-3.2
			c-8.5-1-16.9-1.9-24.9-2.6c0-0.1,0-0.3,0-0.4c0-4.4,0-8.5,0-12.3V17.4H59.2v23.3c0,3.6,0,7.6,0,11.8c-18.4,0-30.5,2.8-40.9,11.4
			C8.1,72.3,1.5,84.7,0.2,102.5c-1.1,14.5,2.4,28.9,9.8,36.8c9.8,10.6,20.9,13.3,31.1,13.3c5.7,0,13.3-1.5,18.1-4.6
			c11.8-7.6,14.6-18.3,16-33.1c0.9-9.1,1-21.9,1.1-44.3c7.6,0.6,15.4,1.5,23,2.4c12.8,1.5,25.3,2.9,36.7,3.3l-0.5,74.5l17.1,0.1
			l0.5-75c6.1-0.5,14.5-2.1,25.2-6.2c10.7-4.1,24.2-12.6,31.8-15.5c12.6-4.9,27.8-4.5,35.8,1.3c6.8,4.9,12,11.2,13,22.6
			c-8.5-3.5-20.3-6.7-35.6-6.7c-0.2,0-0.5,0-0.7,0c-26.4,0.2-45.2,14.4-47.9,36.3c-1.4,11.3,1.9,22.5,9.2,30.8c8,9,20,14,34,14
			c19.4,0,34.5-9.1,44.7-18c0.1,0.5,0.2,0.9,0.3,1.4c1.9,9.2,7.9,15.3,16.6,16.1c14.9,1.5,25.9-7.1,33.9-21.9
			c6.3-11.7,12.2-27.2,13.6-32.2v2.5c0,3.8,0.1,14.9,0.1,17.8c-0.2,17.9,2.3,30.7,15.2,33.5c10,2.1,20.7-3.5,31.7-14.7
			c4.9-5,9.4-10.6,9.6-10.9L367.3,116.2z M58.3,113.2c-1.3,13.1-3.4,16.7-8.4,20c-4.3,2.9-16.6,2.2-24.1-3.6
			c-4.9-3.8-8.3-9.5-9.1-22c-0.7-12.1,4.2-25.3,14-32.2c6.6-4.7,13.6-5.7,27-5.7c0.5,0,1,0,1.5,0C59.2,91.4,59.1,104.7,58.3,113.2z
			 M217.8,135.5c-9.1,0-16.4-2.9-21.2-8.2c-4.1-4.6-5.9-10.8-5.1-17.4c1.7-13.3,13.3-21.2,31.1-21.4c0.2,0,0.4,0,0.6,0
			c21.1,0,33.1,7.5,37.5,10.5v4c0,2.9,0,4.4,0,6.9C256.2,115.9,240.7,135.5,217.8,135.5z"/>
		<path class="st6" d="M337.7,24.7c6.8,0,12.4-5.5,12.4-12.4c0-6.8-5.5-12.4-12.4-12.4c-6.8,0-12.4,5.5-12.4,12.4
			C325.3,19.2,330.9,24.7,337.7,24.7z"/>
	</g>
</g>
<g id="logo">
</g>
</svg>
