<svg width="65" height="65" viewBox="0 0 65 65" fill="none" xmlns="http://www.w3.org/2000/svg">
<path d="M33.3929 1.78571C49.8214 1.78571 63.2143 15.1786 63.2143 31.6071V33.3929C63.2143 49.8214 49.8214 63.2143 33.3929 63.2143H31.6071C15.1786 63.2143 1.78571 49.8214 1.78571 33.3929V31.6071C1.78571 15.1786 15.1786 1.78571 31.6071 1.78571H33.3929ZM33.3929 0H31.6071C14.2857 0 0 14.2857 0 31.6071V33.3929C0 50.7143 14.2857 65 31.6071 65H33.3929C50.7143 65 65 50.7143 65 33.3929V31.6071C65 14.2857 50.7143 0 33.3929 0Z" fill="white"/>
<path d="M15.7142 28.5714C15.7142 27.4999 16.6071 26.7856 17.4999 26.7856H24.9999C27.6785 26.7856 29.6428 27.4999 31.0714 28.9285C32.1428 29.9999 32.8571 31.6071 32.8571 33.3928C32.8571 36.7856 30.8928 38.7499 28.0357 39.6428L32.1428 44.6428C32.4999 45.1785 32.6785 45.5356 32.6785 46.0714C32.6785 47.1428 31.7857 47.8571 30.8928 47.8571C29.9999 47.8571 29.4642 47.4999 29.1071 46.9642L23.9285 40.3571H19.2857V46.0714C19.2857 47.1428 18.3928 47.8571 17.4999 47.8571C16.4285 47.8571 15.7142 46.9642 15.7142 46.0714V28.5714ZM24.8214 37.1428C27.4999 37.1428 29.1071 35.7142 29.1071 33.5714C29.1071 31.2499 27.4999 29.9999 24.8214 29.9999H19.4642V37.1428H24.8214Z" fill="white"/>
<path d="M43.9285 36.0714C38.5714 36.0714 34.6428 32.3214 34.6428 26.6071C34.6428 21.4285 38.3928 17.1428 43.5714 17.1428C49.2857 17.1428 52.1428 21.9643 52.1428 26.0714C52.1428 27.3214 51.25 28.0357 50.1785 28.0357H38.75C39.2857 31.0714 41.25 32.6785 43.9285 32.6785C45.7143 32.6785 47.1428 32.1428 48.2142 31.0714C48.5714 30.8928 48.75 30.7143 49.2857 30.7143C50.1785 30.7143 50.8928 31.4285 50.8928 32.3214C50.8928 32.8571 50.7143 33.2142 50.3571 33.5714C48.75 35.1785 46.7857 36.0714 43.9285 36.0714ZM48.0357 25.3571C47.6785 22.6785 46.25 20.5357 43.3928 20.5357C40.8928 20.5357 39.1071 22.5 38.75 25.3571H48.0357Z" fill="white"/>
</svg>
