<svg xmlns="http://www.w3.org/2000/svg" viewBox="0 0 311.53 63.37"><defs><style>.cls-1{fill:#fff;}</style></defs><title>vi-2</title><g id="Layer_1" data-name="Layer 1"><path class="cls-1" d="M91,12.4l1.69,4.75c4.41-5.18,10.43-6,14.25-6,.6,0,1,.25,1,.84v7.89a.91.91,0,0,1-1,.93c-5.93,0-9.58.85-13.48,3.06v26.2c0,.68-.34,1-.94,1H84a.89.89,0,0,1-1-1V20.28h-7.3c-.68,0-1-.34-1-.93v-6.7c0-.59.34-.93,1-.93H90A1,1,0,0,1,91,12.4Z"/><path class="cls-1" d="M132.42,43a23.87,23.87,0,0,0,9.58-2.2c.6-.26,1-.09,1.19.34l2.38,6.27a1,1,0,0,1-.51,1.19,26.42,26.42,0,0,1-12.81,3c-11.2,0-18.66-7.12-18.66-19.5s6.45-21,17.64-21c10.52,0,16.29,7,16.29,19.67v3.05c0,.51-.26.94-.77.94H124.11C124.36,40.47,127.76,43,132.42,43Zm-1.36-24.25c-3.3,0-6.7,2.8-7,9.41h13.32C137.34,21.13,134.37,18.76,131.06,18.76Z"/><path class="cls-1" d="M178.19,26.14c0-4.33-2-5.86-6.45-5.86H161.06a.91.91,0,0,1-1-.93v-6.7a.91.91,0,0,1,1-.93h12.46c10.61,0,15.18,4.49,15.18,15.94V50.05c0,.68-.33,1-.93,1h-6.1c-.51,0-.77-.08-.94-.51l-1.1-3.05c-4.32,2.8-7.12,4.15-12.21,4.15-6.62,0-10.94-4.49-10.94-10.85,0-8.57,5.17-12.81,17-12.81h4.75Zm-4.07,8.48c-5.26,0-7.13,2.2-7.13,5.26,0,2.63,1.36,4.07,3.65,4.07a18,18,0,0,0,7.55-2.12V34.62Z"/><path class="cls-1" d="M213.77,12.4l1.7,4.75c4.41-5.18,10.43-6,14.24-6,.6,0,1,.25,1,.84v7.89a.91.91,0,0,1-1,.93c-5.93,0-9.58.85-13.48,3.06V50.06c0,.67-.34,1-.93,1h-8.49a.9.9,0,0,1-1-1V20.28h-7.3c-.67,0-1-.34-1-.93v-6.7c0-.59.34-.93,1-.93h14.34A1,1,0,0,1,213.77,12.4Z"/><path class="cls-1" d="M239.27,20.28c-.68,0-1-.34-1-.93v-6.7c0-.59.34-.93,1-.93h22.39c.68,0,1,.34,1,.93V42.17c0,.42.08.51.51.51h10.34a.89.89,0,0,1,1,1v6.37a.9.9,0,0,1-1,1H239.27a.9.9,0,0,1-1-1V43.69a.89.89,0,0,1,1-1h12.47c.34,0,.51-.09.51-.51V20.28Z"/><path class="cls-1" d="M301,26.14c0-4.33-2-5.86-6.44-5.86H283.88a.92.92,0,0,1-1-.93v-6.7a.92.92,0,0,1,1-.93h12.47c10.6,0,15.18,4.49,15.18,15.94v22.4c0,.67-.34,1-.93,1h-6.11c-.51,0-.76-.08-.93-.51l-1.11-3.05c-4.32,2.8-7.12,4.15-12.21,4.15-6.61,0-10.94-4.49-10.94-10.85,0-8.57,5.17-12.81,17-12.81H301Zm-4.07,8.48c-5.26,0-7.12,2.2-7.12,5.26,0,2.63,1.35,4.07,3.64,4.07A17.91,17.91,0,0,0,301,41.83V34.62Z"/><path class="cls-1" d="M29.4,26.39c3.74-2.76,25.45-5.79,25.45-12.47C54.85,6.27,38.44-.8,13.6.07,4.27.4,1.16,1.75,1.16,1.75V35.87H54C49.89,29.51,24.36,30.12,29.4,26.39Z"/><path class="cls-1" d="M53.86,44.5c-1.78-2.45-7.44-6.5-25.08-6.09C11.83,38.82,0,43.48,0,49.75c0,3.61,3.12,6.9,9,9.51a55.06,55.06,0,0,0,18.72,4.11h.11a1.53,1.53,0,0,0,1.62-1.26,1.28,1.28,0,0,0-.31-.91A1.78,1.78,0,0,0,28,60.65c-14.57-.71-24.71-6.32-24.71-10.9,0-4.42,11.49-8.29,25.63-8.62,16.62-.42,21.09,3.23,22.23,4.8a2.62,2.62,0,0,1,.19,2.66c-.41.93-1.5,2.24-4.31,3.17-3.42,1.13-9.65,1.65-15.84,1.31-5.92-.31-14.43-1.85-18.92-5.16a1.88,1.88,0,0,0-2.18,0,1.29,1.29,0,0,0-.51,1,1.3,1.3,0,0,0,.55,1c5.1,3.76,14.42,5.49,20.85,5.83,6.66.34,13.43-.25,17.24-1.51s5.51-3.28,6.15-4.72A5,5,0,0,0,53.86,44.5Zm-26,18.35Z"/></g></svg>