<?xml version="1.0" encoding="utf-8"?>
<!-- Generator: Adobe Illustrator 23.0.4, SVG Export Plug-In . SVG Version: 6.00 Build 0)  -->
<svg version="1.1" id="Layer_1" xmlns="http://www.w3.org/2000/svg" xmlns:xlink="http://www.w3.org/1999/xlink" x="0px" y="0px"
	 viewBox="0 0 311.5 63.4" style="enable-background:new 0 0 311.5 63.4;" xml:space="preserve">
<style type="text/css">
	.st0{fill:#211E26;}
</style>
<title>vi-2</title>
<g>
	<path class="st0" d="M91,12.4l1.7,4.8c4.4-5.2,10.4-6,14.2-6c0.6,0,1,0.2,1,0.8v7.9c0,0.5-0.4,0.9-0.9,0.9c0,0-0.1,0-0.1,0
		c-5.9,0-9.6,0.9-13.5,3.1v26.2c0,0.7-0.3,1-0.9,1H84c-0.5,0.1-0.9-0.3-1-0.8c0-0.1,0-0.2,0-0.2V20.3h-7.3c-0.7,0-1-0.3-1-0.9v-6.7
		c0-0.6,0.3-0.9,1-0.9H90C90.4,11.7,90.9,12,91,12.4z"/>
	<path class="st0" d="M132.4,43c3.3-0.1,6.6-0.8,9.6-2.2c0.6-0.3,1-0.1,1.2,0.3l2.4,6.3c0.1,0.5-0.1,1-0.5,1.2
		c-3.9,2.1-8.4,3.1-12.8,3c-11.2,0-18.7-7.1-18.7-19.5s6.4-21,17.6-21c10.5,0,16.3,7,16.3,19.7v3.1c0,0.5-0.3,0.9-0.8,0.9h-22.6
		C124.4,40.5,127.8,43,132.4,43z M131.1,18.7c-3.3,0-6.7,2.8-7,9.4h13.3C137.3,21.1,134.4,18.8,131.1,18.7L131.1,18.7z"/>
	<path class="st0" d="M178.2,26.1c0-4.3-2-5.9-6.4-5.9h-10.7c-0.5,0-0.9-0.3-1-0.8c0,0,0-0.1,0-0.1v-6.7c0-0.5,0.4-0.9,0.9-0.9
		c0,0,0.1,0,0.1,0h12.5c10.6,0,15.2,4.5,15.2,15.9V50c0,0.7-0.3,1-0.9,1h-6.1c-0.5,0-0.8-0.1-0.9-0.5l-1.1-3
		c-4.3,2.8-7.1,4.2-12.2,4.2c-6.6,0-10.9-4.5-10.9-10.9c0-8.6,5.2-12.8,17-12.8h4.8L178.2,26.1z M174.1,34.6c-5.3,0-7.1,2.2-7.1,5.3
		c0,2.6,1.4,4.1,3.6,4.1c2.6-0.1,5.2-0.9,7.6-2.1v-7.2H174.1z"/>
	<path class="st0" d="M213.8,12.4l1.7,4.8c4.4-5.2,10.4-6,14.2-6c0.6,0,1,0.2,1,0.8v7.9c0,0.5-0.4,0.9-0.9,0.9c0,0-0.1,0-0.1,0
		c-5.9,0-9.6,0.9-13.5,3.1v26.2c0,0.7-0.3,1-0.9,1h-8.5c-0.5,0.1-0.9-0.3-1-0.8c0-0.1,0-0.1,0-0.2V20.3h-7.3c-0.7,0-1-0.3-1-0.9
		v-6.7c0-0.6,0.3-0.9,1-0.9h14.3C213.3,11.7,213.6,12,213.8,12.4z"/>
	<path class="st0" d="M239.3,20.3c-0.7,0-1-0.3-1-0.9v-6.7c0-0.6,0.3-0.9,1-0.9h22.4c0.7,0,1,0.3,1,0.9v29.5c0,0.4,0.1,0.5,0.5,0.5
		h10.3c0.5-0.1,0.9,0.3,1,0.8c0,0.1,0,0.2,0,0.2V50c0.1,0.5-0.3,0.9-0.8,1c-0.1,0-0.1,0-0.2,0h-34.2c-0.5,0.1-0.9-0.3-1-0.8
		c0-0.1,0-0.1,0-0.2v-6.4c-0.1-0.5,0.3-0.9,0.8-1c0.1,0,0.2,0,0.2,0h12.5c0.3,0,0.5-0.1,0.5-0.5V20.3H239.3z"/>
	<path class="st0" d="M301,26.1c0-4.3-2-5.9-6.4-5.9h-10.7c-0.5,0-1-0.3-1-0.8c0,0,0-0.1,0-0.1v-6.7c0-0.5,0.4-0.9,0.9-0.9
		c0,0,0.1,0,0.1,0h12.5c10.6,0,15.2,4.5,15.2,15.9v22.4c0,0.7-0.3,1-0.9,1h-6.1c-0.5,0-0.8-0.1-0.9-0.5l-1.1-3
		c-4.3,2.8-7.1,4.2-12.2,4.2c-6.6,0-10.9-4.5-10.9-10.8c0-8.6,5.2-12.8,17-12.8h4.7V26.1z M296.9,34.6c-5.3,0-7.1,2.2-7.1,5.3
		c0,2.6,1.4,4.1,3.6,4.1c2.6-0.1,5.2-0.9,7.5-2.1v-7.2H296.9z"/>
	<path class="st0" d="M29.4,26.4c3.7-2.8,25.4-5.8,25.4-12.5c0-7.6-16.4-14.7-41.2-13.8C4.3,0.4,1.2,1.7,1.2,1.7v34.1H54
		C49.9,29.5,24.4,30.1,29.4,26.4z"/>
	<path class="st0" d="M53.9,44.5c-1.8-2.5-7.4-6.5-25.1-6.1C11.8,38.8,0,43.5,0,49.7c0,3.6,3.1,6.9,9,9.5c6,2.5,12.3,3.8,18.7,4.1
		h0.1c0.8,0.1,1.5-0.5,1.6-1.3c0-0.3-0.1-0.7-0.3-0.9c-0.3-0.3-0.7-0.5-1.1-0.6C13.4,59.9,3.3,54.3,3.3,49.7
		c0-4.4,11.5-8.3,25.6-8.6c16.6-0.4,21.1,3.2,22.2,4.8c0.5,0.8,0.6,1.8,0.2,2.7c-0.4,0.9-1.5,2.2-4.3,3.2c-3.4,1.1-9.7,1.7-15.8,1.3
		c-5.9-0.3-14.4-1.8-18.9-5.2c-0.7-0.5-1.5-0.5-2.2,0c-0.3,0.2-0.5,0.6-0.5,1c0,0.4,0.2,0.8,0.6,1c5.1,3.8,14.4,5.5,20.9,5.8
		c6.7,0.3,13.4-0.2,17.2-1.5s5.5-3.3,6.2-4.7C55.1,47.9,54.9,46,53.9,44.5z"/>
</g>
</svg>
