<?xml version="1.0" encoding="utf-8"?>
<!-- Generator: Adobe Illustrator 24.1.0, SVG Export Plug-In . SVG Version: 6.00 Build 0)  -->
<svg version="1.1" id="Layer_1" xmlns="http://www.w3.org/2000/svg" xmlns:xlink="http://www.w3.org/1999/xlink" x="0px" y="0px"
	 viewBox="0 0 378 396.1" style="enable-background:new 0 0 378 396.1;" xml:space="preserve">
<style type="text/css">
	.st0{fill:url(#SVGID_1_);}
	.st1{fill:#00BF94;}
	.st2{fill:#5A3BFF;}
	.st3{fill:#FFC900;}
	.st4{fill:#D5FFF4;}
	.st5{fill:#ADF5E8;}
	.st6{fill:#6AECD7;}
	.st7{fill:#00DBB2;}
	.st8{fill:#008B73;}
	.st9{fill:#006852;}
	.st10{fill:#004B3A;}
	.st11{fill:#002920;}
	.st12{fill:#FFF5E1;}
	.st13{fill:#FFEEAD;}
	.st14{fill:#FFE47F;}
	.st15{fill:#FFD936;}
	.st16{fill:#FFB400;}
	.st17{fill:#FA9100;}
	.st18{fill:#F77A00;}
	.st19{fill:#D96200;}
	.st20{fill:#E1D7FF;}
	.st21{fill:#B3B0FF;}
	.st22{fill:#A28DFF;}
	.st23{fill:#7E55F7;}
	.st24{fill:#4C00F3;}
	.st25{fill:#4600D0;}
	.st26{fill:#3000A1;}
	.st27{fill:#240277;}
	.st28{fill:#FFEEE7;}
	.st29{fill:#EDD2C6;}
	.st30{fill:#D6B2A2;}
	.st31{fill:#BF967C;}
	.st32{fill:#B47F5D;}
	.st33{fill:#F4F4F4;}
	.st34{fill:#EFEFEF;}
	.st35{fill:#E8E8E8;}
	.st36{fill:#DADADA;}
	.st37{fill:#B7B7B7;}
	.st38{fill:#989898;}
	.st39{fill:#757575;}
	.st40{fill:#616161;}
	.st41{fill:#424242;}
	.st42{fill:#212121;}
</style>
<g id="Background">
	<radialGradient id="SVGID_1_" cx="-144.2172" cy="44.3313" r="714.1563" gradientUnits="userSpaceOnUse">
		<stop  offset="0" style="stop-color:#FFE47F"/>
		<stop  offset="1" style="stop-color:#FFF5E1;stop-opacity:0.3"/>
	</radialGradient>
	<path class="st0" d="M378,167.7c0.6,40.9-10.1,82.1-29.7,118.3c-9.8,18.1-21.8,34.9-35.6,49.7c-43.1,49.2-112.5,74.4-175.6,52.4
		c-17.9-6.8-34.6-16.1-49.9-27.3C26.7,318.8-8,249.4,1.5,180C17.3,98,80.4,38,156.1,9.7c63.1-22.1,138.7-6.3,182.7,47.1
		c14.7,17.8,26,38.5,32.8,61.1C375.8,133.3,378.1,150,378,167.7z"/>
</g>
<g id="pic">
</g>
<g id="logo">
</g>
<rect x="-809.9" y="-634.1" class="st1" width="153.1" height="62.3"/>
<text transform="matrix(1 0 0 1 -810.0715 -665.7908)"><tspan x="0" y="0" class="st42" style="font-family:'Karla-Regular'; font-size:18.59px;">Primary Colour </tspan><tspan x="0" y="17" class="st42" style="font-family:'Karla-Regular'; font-size:14.1638px;">Innovation</tspan></text>
<rect x="-417.1" y="-634.1" class="st2" width="153.1" height="62.3"/>
<text transform="matrix(1 0 0 1 -417.2297 -665.7908)"><tspan x="0" y="0" class="st42" style="font-family:'Karla-Regular'; font-size:18.59px;">Supplementary Colour </tspan><tspan x="0" y="17" class="st42" style="font-family:'Karla-Regular'; font-size:14.1638px;">Tech savvy</tspan></text>
<rect x="-613.5" y="-634.1" class="st3" width="153.1" height="62.3"/>
<text transform="matrix(1 0 0 1 -613.6506 -665.7908)"><tspan x="0" y="0" class="st42" style="font-family:'Karla-Regular'; font-size:18.59px;">Secondary Colour </tspan><tspan x="0" y="17" class="st42" style="font-family:'Karla-Regular'; font-size:14.1638px;">Friendly &amp; Dynamic</tspan></text>
<text transform="matrix(1 0 0 1 -183.0171 -643.8103)" class="st42" style="font-family:'Karla-Regular'; font-size:14.1638px;">Background Colour </text>
<rect x="-809.9" y="-543.7" class="st4" width="153.1" height="47.3"/>
<rect x="-809.9" y="-494.2" class="st5" width="153.1" height="47.3"/>
<rect x="-809.9" y="-444.7" class="st6" width="153.1" height="47.3"/>
<rect x="-809.9" y="-395.2" class="st7" width="153.1" height="47.3"/>
<rect x="-809.9" y="-345.7" class="st1" width="153.1" height="47.3"/>
<rect x="-809.9" y="-296.2" class="st8" width="153.1" height="47.3"/>
<rect x="-809.9" y="-246.7" class="st9" width="153.1" height="47.3"/>
<rect x="-809.9" y="-197.2" class="st10" width="153.1" height="47.3"/>
<rect x="-809.9" y="-147.7" class="st11" width="153.1" height="47.3"/>
<rect x="-613.7" y="-543.7" class="st12" width="153.1" height="47.3"/>
<rect x="-613.7" y="-494.2" class="st13" width="153.1" height="47.3"/>
<rect x="-613.7" y="-444.7" class="st14" width="153.1" height="47.3"/>
<rect x="-613.7" y="-395.2" class="st15" width="153.1" height="47.3"/>
<rect x="-613.7" y="-345.7" class="st3" width="153.1" height="47.3"/>
<rect x="-613.7" y="-296.2" class="st16" width="153.1" height="47.3"/>
<rect x="-613.7" y="-246.7" class="st17" width="153.1" height="47.3"/>
<rect x="-613.7" y="-197.2" class="st18" width="153.1" height="47.3"/>
<rect x="-613.7" y="-147.7" class="st19" width="153.1" height="47.3"/>
<rect x="-417.1" y="-543.7" class="st20" width="153.1" height="47.3"/>
<rect x="-417.1" y="-494.2" class="st21" width="153.1" height="47.3"/>
<rect x="-417.1" y="-444.7" class="st22" width="153.1" height="47.3"/>
<rect x="-417.1" y="-395.2" class="st23" width="153.1" height="47.3"/>
<rect x="-417.1" y="-345.7" class="st2" width="153.1" height="47.3"/>
<rect x="-417.1" y="-296.2" class="st24" width="153.1" height="47.3"/>
<rect x="-417.1" y="-246.7" class="st25" width="153.1" height="47.3"/>
<rect x="-417.1" y="-197.2" class="st26" width="153.1" height="47.3"/>
<rect x="-417.1" y="-147.7" class="st27" width="153.1" height="47.3"/>
<rect x="-183" y="-634.1" class="st28" width="153.1" height="47.3"/>
<rect x="-183" y="-584.6" class="st29" width="153.1" height="47.3"/>
<rect x="-183" y="-535.1" class="st30" width="153.1" height="47.3"/>
<rect x="-183" y="-485.6" class="st31" width="153.1" height="47.3"/>
<rect x="-183" y="-436.1" class="st32" width="153.1" height="47.3"/>
<text transform="matrix(1 0 0 1 15.1182 -643.8103)" class="st42" style="font-family:'Karla-Regular'; font-size:14.1638px;">Grayscale Colour </text>
<rect x="15.1" y="-634.1" class="st33" width="153.1" height="47.3"/>
<rect x="15.1" y="-584.6" class="st34" width="153.1" height="47.3"/>
<rect x="15.1" y="-535.1" class="st35" width="153.1" height="47.3"/>
<rect x="15.1" y="-485.6" class="st36" width="153.1" height="47.3"/>
<rect x="15.1" y="-436.1" class="st37" width="153.1" height="47.3"/>
<rect x="15.1" y="-386.6" class="st38" width="153.1" height="47.3"/>
<rect x="15.1" y="-337.1" class="st39" width="153.1" height="47.3"/>
<rect x="15.1" y="-287.6" class="st40" width="153.1" height="47.3"/>
<rect x="15.1" y="-238.1" class="st41" width="153.1" height="47.3"/>
<rect x="15.1" y="-188.6" class="st42" width="153.1" height="47.3"/>
<text transform="matrix(1 0 0 1 -811.2878 -756.6246)"><tspan x="0" y="0" class="st42" style="font-family:'Nunito-Bold'; font-size:22px;">Brand Visual Identity </tspan><tspan x="0" y="34.4" class="st42" style="font-family:'Nunito-Bold'; font-size:32px;">Colour Palette</tspan></text>
<g>
	<text transform="matrix(1 0 0 1 -834.9104 -518.2556)" class="st39" style="font-family:'SukhumvitSet-Text'; font-size:8.59px;">100</text>
	<text transform="matrix(1 0 0 1 -834.9104 -468.751)" class="st39" style="font-family:'SukhumvitSet-Text'; font-size:8.59px;">200</text>
	<text transform="matrix(1 0 0 1 -834.9104 -419.2466)" class="st39" style="font-family:'SukhumvitSet-Text'; font-size:8.59px;">300</text>
	<text transform="matrix(1 0 0 1 -834.9104 -369.7424)" class="st39" style="font-family:'SukhumvitSet-Text'; font-size:8.59px;">400</text>
	<text transform="matrix(1 0 0 1 -834.9104 -320.2378)" class="st39" style="font-family:'SukhumvitSet-Text'; font-size:8.59px;">500</text>
	<text transform="matrix(1 0 0 1 -834.9104 -601.1384)" class="st39" style="font-family:'SukhumvitSet-Text'; font-size:8.59px;">500</text>
	<text transform="matrix(1 0 0 1 -834.9104 -270.7336)" class="st39" style="font-family:'SukhumvitSet-Text'; font-size:8.59px;">600</text>
	<text transform="matrix(1 0 0 1 -834.9104 -221.229)" class="st39" style="font-family:'SukhumvitSet-Text'; font-size:8.59px;">700</text>
	<text transform="matrix(1 0 0 1 -834.9104 -171.7249)" class="st39" style="font-family:'SukhumvitSet-Text'; font-size:8.59px;">800</text>
	<text transform="matrix(1 0 0 1 -834.9104 -122.2203)" class="st39" style="font-family:'SukhumvitSet-Text'; font-size:8.59px;">900</text>
</g>
<g>
	<text transform="matrix(1 0 0 1 -637.1953 -518.2556)" class="st39" style="font-family:'SukhumvitSet-Text'; font-size:8.59px;">100</text>
	<text transform="matrix(1 0 0 1 -637.1953 -468.751)" class="st39" style="font-family:'SukhumvitSet-Text'; font-size:8.59px;">200</text>
	<text transform="matrix(1 0 0 1 -637.1953 -419.2466)" class="st39" style="font-family:'SukhumvitSet-Text'; font-size:8.59px;">300</text>
	<text transform="matrix(1 0 0 1 -637.1953 -369.7424)" class="st39" style="font-family:'SukhumvitSet-Text'; font-size:8.59px;">400</text>
	<text transform="matrix(1 0 0 1 -637.1953 -320.2378)" class="st39" style="font-family:'SukhumvitSet-Text'; font-size:8.59px;">500</text>
	<text transform="matrix(1 0 0 1 -637.1953 -601.1384)" class="st39" style="font-family:'SukhumvitSet-Text'; font-size:8.59px;">500</text>
	<text transform="matrix(1 0 0 1 -637.1953 -270.7336)" class="st39" style="font-family:'SukhumvitSet-Text'; font-size:8.59px;">600</text>
	<text transform="matrix(1 0 0 1 -637.1953 -221.229)" class="st39" style="font-family:'SukhumvitSet-Text'; font-size:8.59px;">700</text>
	<text transform="matrix(1 0 0 1 -637.1953 -171.7249)" class="st39" style="font-family:'SukhumvitSet-Text'; font-size:8.59px;">800</text>
	<text transform="matrix(1 0 0 1 -637.1953 -122.2203)" class="st39" style="font-family:'SukhumvitSet-Text'; font-size:8.59px;">900</text>
</g>
<g>
	<text transform="matrix(1 0 0 1 -441.7227 -518.2556)" class="st39" style="font-family:'SukhumvitSet-Text'; font-size:8.59px;">100</text>
	<text transform="matrix(1 0 0 1 -441.7227 -468.751)" class="st39" style="font-family:'SukhumvitSet-Text'; font-size:8.59px;">200</text>
	<text transform="matrix(1 0 0 1 -441.7227 -419.2466)" class="st39" style="font-family:'SukhumvitSet-Text'; font-size:8.59px;">300</text>
	<text transform="matrix(1 0 0 1 -441.7227 -369.7424)" class="st39" style="font-family:'SukhumvitSet-Text'; font-size:8.59px;">400</text>
	<text transform="matrix(1 0 0 1 -441.7227 -320.2378)" class="st39" style="font-family:'SukhumvitSet-Text'; font-size:8.59px;">500</text>
	<text transform="matrix(1 0 0 1 -441.7227 -601.1384)" class="st39" style="font-family:'SukhumvitSet-Text'; font-size:8.59px;">500</text>
	<text transform="matrix(1 0 0 1 -441.7227 -270.7336)" class="st39" style="font-family:'SukhumvitSet-Text'; font-size:8.59px;">600</text>
	<text transform="matrix(1 0 0 1 -441.7227 -221.229)" class="st39" style="font-family:'SukhumvitSet-Text'; font-size:8.59px;">700</text>
	<text transform="matrix(1 0 0 1 -441.7227 -171.7249)" class="st39" style="font-family:'SukhumvitSet-Text'; font-size:8.59px;">800</text>
	<text transform="matrix(1 0 0 1 -441.7227 -122.2203)" class="st39" style="font-family:'SukhumvitSet-Text'; font-size:8.59px;">900</text>
</g>
<g>
	<text transform="matrix(1 0 0 1 -10.9544 -607.885)" class="st39" style="font-family:'SukhumvitSet-Text'; font-size:8.59px;">100</text>
	<text transform="matrix(1 0 0 1 -10.9544 -558.3804)" class="st39" style="font-family:'SukhumvitSet-Text'; font-size:8.59px;">200</text>
	<text transform="matrix(1 0 0 1 -10.9544 -508.8757)" class="st39" style="font-family:'SukhumvitSet-Text'; font-size:8.59px;">300</text>
	<text transform="matrix(1 0 0 1 -10.9544 -459.3718)" class="st39" style="font-family:'SukhumvitSet-Text'; font-size:8.59px;">400</text>
	<text transform="matrix(1 0 0 1 -10.9544 -409.8674)" class="st39" style="font-family:'SukhumvitSet-Text'; font-size:8.59px;">500</text>
	<text transform="matrix(1 0 0 1 -10.9544 -360.3632)" class="st39" style="font-family:'SukhumvitSet-Text'; font-size:8.59px;">600</text>
	<text transform="matrix(1 0 0 1 -10.9544 -310.8585)" class="st39" style="font-family:'SukhumvitSet-Text'; font-size:8.59px;">700</text>
	<text transform="matrix(1 0 0 1 -10.9544 -261.3545)" class="st39" style="font-family:'SukhumvitSet-Text'; font-size:8.59px;">800</text>
	<text transform="matrix(1 0 0 1 -10.9544 -211.8499)" class="st39" style="font-family:'SukhumvitSet-Text'; font-size:8.59px;">900</text>
	<text transform="matrix(1 0 0 1 -15.9544 -162.8927)" class="st39" style="font-family:'SukhumvitSet-Text'; font-size:8.59px;">1000</text>
</g>
<g>
	<text transform="matrix(1 0 0 1 -208.5196 -607.8853)" class="st39" style="font-family:'SukhumvitSet-Text'; font-size:8.59px;">100</text>
	<text transform="matrix(1 0 0 1 -208.5196 -558.3806)" class="st39" style="font-family:'SukhumvitSet-Text'; font-size:8.59px;">200</text>
	<text transform="matrix(1 0 0 1 -208.5196 -508.876)" class="st39" style="font-family:'SukhumvitSet-Text'; font-size:8.59px;">300</text>
	<text transform="matrix(1 0 0 1 -208.5196 -459.3721)" class="st39" style="font-family:'SukhumvitSet-Text'; font-size:8.59px;">400</text>
	<text transform="matrix(1 0 0 1 -208.5196 -409.8677)" class="st39" style="font-family:'SukhumvitSet-Text'; font-size:8.59px;">500</text>
</g>
</svg>
