<?xml version="1.0" encoding="utf-8"?>
<!-- Generator: Adobe Illustrator 24.1.0, SVG Export Plug-In . SVG Version: 6.00 Build 0)  -->
<svg version="1.1" xmlns="http://www.w3.org/2000/svg" xmlns:xlink="http://www.w3.org/1999/xlink" x="0px" y="0px"
	 viewBox="0 0 1189 670" style="enable-background:new 0 0 1189 670;" xml:space="preserve">
<style type="text/css">
	.st0{display:none;}
	.st1{display:inline;}
	.st2{fill:none;stroke:#0082FC;stroke-width:75;stroke-linecap:round;stroke-miterlimit:10;}
	.st3{fill:none;stroke:#0082FC;stroke-width:75;stroke-linecap:round;stroke-miterlimit:10;stroke-dasharray:0.9629,192.5835;}
	.st4{fill:none;stroke:#0082FC;stroke-width:55;stroke-linecap:round;stroke-miterlimit:10;}
	.st5{fill:none;stroke:#0082FC;stroke-width:55;stroke-linecap:round;stroke-miterlimit:10;stroke-dasharray:0.9755,146.3315;}
	.st6{display:inline;fill:#00BF94;}
	.st7{display:inline;fill:#5A3BFF;}
	.st8{display:inline;fill:#FFC900;}
	.st9{display:inline;fill:#D5FFF4;}
	.st10{display:inline;fill:#ADF5E8;}
	.st11{display:inline;fill:#6AECD7;}
	.st12{display:inline;fill:#00DBB2;}
	.st13{display:inline;fill:#008B73;}
	.st14{display:inline;fill:#006852;}
	.st15{display:inline;fill:#004B3A;}
	.st16{display:inline;fill:#002920;}
	.st17{display:inline;fill:#FFF5E1;}
	.st18{display:inline;fill:#FFEEAD;}
	.st19{display:inline;fill:#FFE47F;}
	.st20{display:inline;fill:#FFD936;}
	.st21{display:inline;fill:#FFB400;}
	.st22{display:inline;fill:#FA9100;}
	.st23{display:inline;fill:#F77A00;}
	.st24{display:inline;fill:#D96200;}
	.st25{display:inline;fill:#E1D7FF;}
	.st26{display:inline;fill:#B3B0FF;}
	.st27{display:inline;fill:#A28DFF;}
	.st28{display:inline;fill:#7E55F7;}
	.st29{display:inline;fill:#4C00F3;}
	.st30{display:inline;fill:#4600D0;}
	.st31{display:inline;fill:#3000A1;}
	.st32{display:inline;fill:#240277;}
	.st33{display:inline;fill:#FFEEE7;}
	.st34{display:inline;fill:#EDD2C6;}
	.st35{display:inline;fill:#D6B2A2;}
	.st36{display:inline;fill:#BF967C;}
	.st37{display:inline;fill:#B47F5D;}
	.st38{display:inline;fill:#F4F4F4;}
	.st39{display:inline;fill:#EFEFEF;}
	.st40{display:inline;fill:#E8E8E8;}
	.st41{display:inline;fill:#DADADA;}
	.st42{display:inline;fill:#B7B7B7;}
	.st43{display:inline;fill:#989898;}
	.st44{display:inline;fill:#757575;}
	.st45{display:inline;fill:#616161;}
	.st46{display:inline;fill:#424242;}
	.st47{display:inline;fill:#212121;}
	.st48{fill:#FAEEEA;}
	.st49{fill:url(#SVGID_1_);}
	.st50{fill:url(#SVGID_2_);}
	.st51{fill:url(#SVGID_3_);}
	.st52{fill:url(#SVGID_4_);}
	.st53{fill:url(#SVGID_5_);}
	.st54{fill:url(#SVGID_6_);}
	.st55{fill:#FDF3DA;}
	.st56{fill:#FFC900;}
	.st57{fill:url(#SVGID_7_);}
	.st58{fill:url(#SVGID_8_);}
	.st59{fill:url(#SVGID_9_);}
	.st60{fill:url(#SVGID_10_);}
	.st61{fill:url(#SVGID_11_);}
	.st62{display:inline;fill:#FFFFFF;}
	.st63{fill:#FFFFFF;}
	.st64{fill:#131317;}
	.st65{fill:none;stroke:#FFFFFF;stroke-width:5;stroke-linecap:round;stroke-miterlimit:10;}
	.st66{fill:#0071B5;}
	.st67{display:inline;fill:#131317;}
</style>
<g id="Layer_1" class="st0">
	
		<image style="display:inline;overflow:visible;" width="5459" height="3071" xlink:href="../../../web_dev/src/images/photos/usage.jpg"  transform="matrix(0.2191 0 0 0.2191 -1 -1)">
	</image>
</g>
<g id="Layer_2" class="st0">
	<g class="st1">
		<polygon class="st63" points="446.2,254.3 465.2,236.2 480.8,238.7 501.5,264.7 504.9,301.8 477.3,328.6 462.6,328.6 442.8,301.8 
					"/>
		<g>
			<path class="st64" d="M504.7,327h0.7c0.3,0,0.5-0.1,0.7-0.2c0.2-0.1,0.2-0.3,0.2-0.6c0-0.5-0.3-0.8-0.9-0.8h-0.7V327z M506.2,329
				l-0.9-1.6h-0.6v1.6h-0.5v-4h1.4c0.2,0,0.4,0,0.5,0.1c0.2,0.1,0.3,0.1,0.4,0.3c0.1,0.1,0.2,0.2,0.3,0.4c0.1,0.1,0.1,0.3,0.1,0.5
				c0,0.3-0.1,0.5-0.2,0.7c-0.2,0.2-0.4,0.4-0.6,0.4l-0.2,0.1l0.9,1.6H506.2z M505.4,323.7c-0.5,0-0.9,0.1-1.3,0.3
				c-0.4,0.2-0.7,0.4-1,0.7c-0.3,0.3-0.5,0.7-0.7,1.1s-0.3,0.8-0.3,1.3s0.1,0.9,0.3,1.3c0.2,0.4,0.4,0.8,0.7,1.1
				c0.3,0.3,0.6,0.5,1,0.7c0.4,0.2,0.8,0.3,1.3,0.3c0.5,0,0.9-0.1,1.3-0.3c0.4-0.2,0.7-0.4,1-0.7c0.3-0.3,0.5-0.7,0.7-1.1
				s0.3-0.9,0.3-1.3s-0.1-0.9-0.3-1.3s-0.4-0.8-0.7-1.1c-0.3-0.3-0.6-0.5-1-0.7C506.3,323.8,505.8,323.7,505.4,323.7 M505.4,330.9
				c-0.5,0-1-0.1-1.5-0.3c-0.5-0.2-0.9-0.5-1.2-0.8c-0.3-0.3-0.6-0.8-0.8-1.2c-0.2-0.5-0.3-1-0.3-1.5c0-0.5,0.1-1,0.3-1.5
				c0.2-0.5,0.5-0.9,0.8-1.2c0.3-0.3,0.8-0.6,1.2-0.8c0.5-0.2,1-0.3,1.5-0.3c0.5,0,1,0.1,1.5,0.3c0.5,0.2,0.9,0.5,1.2,0.8
				c0.3,0.3,0.6,0.8,0.8,1.2c0.2,0.5,0.3,1,0.3,1.5c0,0.5-0.1,1-0.3,1.5c-0.2,0.5-0.5,0.9-0.8,1.2c-0.3,0.3-0.8,0.6-1.2,0.8
				C506.4,330.8,505.9,330.9,505.4,330.9"/>
			<path class="st64" d="M472.9,331.1c21.6,0,36.5-10.3,36.5-49.5S494.5,232,472.9,232c-21.6,0-36.5,10.3-36.5,49.5
				S451.3,331.1,472.9,331.1 M468.2,281.5l-17.7-17.8l5.1-5.1l14.1,14.1v-33.8l25.7,25.7l-16.9,16.9l16.9,16.9l-25.7,25.7v-33.8
				l-14.1,14.1l-5.1-5.1L468.2,281.5z M476.9,306.6l8.2-8.2l-8.2-8.2L476.9,306.6z M476.9,256.5l8.2,8.2l-8.2,8.2L476.9,256.5z"/>
		</g>
	</g>
	<g class="st1">
		<path class="st64" d="M500.6,377.4h-97.4c-4.9,0-8.8-3.9-8.8-8.8v-17.2c0-4.9,3.9-8.8,8.8-8.8h97.4c4.9,0,8.8,3.9,8.8,8.8v17.2
			C509.5,373.5,505.5,377.4,500.6,377.4z"/>
		<g>
			<path class="st63" d="M406.7,368.1c-1.3-0.8-2.3-1.9-3.1-3.3c-0.7-1.4-1.1-3.1-1.1-5c0-1.9,0.4-3.6,1.1-5
				c0.7-1.4,1.7-2.5,3.1-3.3c1.3-0.8,2.9-1.1,4.6-1.1c1.1,0,2.2,0.2,3.2,0.5c1,0.3,1.9,0.8,2.7,1.5c0.2,0.2,0.4,0.4,0.5,0.5
				c0.1,0.2,0.1,0.4,0.1,0.7c0,0.4-0.1,0.7-0.3,1c-0.2,0.3-0.5,0.4-0.8,0.4c-0.3,0-0.7-0.1-1.1-0.4c-0.7-0.6-1.4-0.9-2.1-1.2
				c-0.6-0.2-1.4-0.3-2.1-0.3c-1.8,0-3.2,0.6-4.1,1.7c-0.9,1.1-1.4,2.8-1.4,5c0,2.2,0.5,3.9,1.4,5c0.9,1.1,2.3,1.7,4.1,1.7
				c0.7,0,1.4-0.1,2.1-0.3c0.6-0.2,1.3-0.6,2.1-1.1c0.2-0.1,0.3-0.2,0.5-0.3c0.2-0.1,0.4-0.1,0.5-0.1c0.3,0,0.5,0.1,0.8,0.4
				c0.2,0.3,0.3,0.6,0.3,1c0,0.3,0,0.5-0.1,0.7c-0.1,0.2-0.2,0.4-0.5,0.6c-0.8,0.6-1.7,1.1-2.7,1.5c-1,0.3-2.1,0.5-3.2,0.5
				C409.5,369.3,408,368.9,406.7,368.1z"/>
			<path class="st63" d="M422.6,368.5c-1-0.5-1.7-1.3-2.3-2.3c-0.5-1-0.8-2.2-0.8-3.5c0-1.3,0.3-2.5,0.8-3.5c0.5-1,1.3-1.8,2.3-2.3
				c1-0.5,2.1-0.8,3.4-0.8s2.4,0.3,3.4,0.8c1,0.5,1.7,1.3,2.3,2.3c0.5,1,0.8,2.2,0.8,3.5c0,1.3-0.3,2.5-0.8,3.5
				c-0.5,1-1.3,1.8-2.3,2.3c-1,0.5-2.1,0.8-3.4,0.8S423.5,369,422.6,368.5z M428.4,365.7c0.6-0.7,0.8-1.7,0.8-3.1
				c0-1.3-0.3-2.4-0.8-3.1s-1.4-1.1-2.4-1.1s-1.8,0.4-2.4,1.1s-0.8,1.7-0.8,3.1c0,1.4,0.3,2.4,0.8,3.1c0.6,0.7,1.4,1,2.4,1
				C427,366.7,427.8,366.4,428.4,365.7z"/>
			<path class="st63" d="M445.9,357.3c0.7,0.9,1.1,2.2,1.1,3.9v6.4c0,0.5-0.1,0.9-0.4,1.1c-0.3,0.3-0.7,0.4-1.2,0.4
				c-0.5,0-0.9-0.1-1.2-0.4c-0.3-0.3-0.4-0.7-0.4-1.1v-6.2c0-1-0.2-1.7-0.6-2.2c-0.4-0.5-1-0.7-1.8-0.7c-0.9,0-1.7,0.3-2.2,0.9
				c-0.6,0.6-0.8,1.4-0.8,2.4v5.8c0,0.5-0.1,0.9-0.4,1.1c-0.3,0.3-0.7,0.4-1.2,0.4s-0.9-0.1-1.2-0.4c-0.3-0.3-0.4-0.7-0.4-1.1v-10.1
				c0-0.5,0.1-0.8,0.4-1.1c0.3-0.3,0.7-0.4,1.2-0.4c0.5,0,0.8,0.1,1.1,0.4c0.3,0.3,0.4,0.6,0.4,1.1v0.7c0.4-0.7,1-1.3,1.7-1.6
				c0.7-0.4,1.6-0.6,2.5-0.6C444,356,445.2,356.5,445.9,357.3z"/>
			<path class="st63" d="M461.1,357.3c0.7,0.9,1.1,2.2,1.1,3.9v6.4c0,0.5-0.1,0.9-0.4,1.1c-0.3,0.3-0.7,0.4-1.2,0.4
				c-0.5,0-0.9-0.1-1.2-0.4c-0.3-0.3-0.4-0.7-0.4-1.1v-6.2c0-1-0.2-1.7-0.6-2.2c-0.4-0.5-1-0.7-1.8-0.7c-0.9,0-1.7,0.3-2.2,0.9
				c-0.6,0.6-0.8,1.4-0.8,2.4v5.8c0,0.5-0.1,0.9-0.4,1.1c-0.3,0.3-0.7,0.4-1.2,0.4s-0.9-0.1-1.2-0.4c-0.3-0.3-0.4-0.7-0.4-1.1v-10.1
				c0-0.5,0.1-0.8,0.4-1.1c0.3-0.3,0.7-0.4,1.2-0.4c0.5,0,0.8,0.1,1.1,0.4c0.3,0.3,0.4,0.6,0.4,1.1v0.7c0.4-0.7,1-1.3,1.7-1.6
				c0.7-0.4,1.6-0.6,2.5-0.6C459.3,356,460.4,356.5,461.1,357.3z"/>
			<path class="st63" d="M476.3,365.9c0.2,0.2,0.3,0.5,0.3,0.9c0,0.5-0.3,1-1,1.4c-0.6,0.3-1.3,0.6-2,0.8c-0.7,0.2-1.5,0.3-2.1,0.3
				c-2,0-3.7-0.6-4.9-1.8c-1.2-1.2-1.8-2.8-1.8-4.8c0-1.3,0.3-2.5,0.8-3.5c0.5-1,1.3-1.8,2.2-2.3s2-0.8,3.2-0.8c1.1,0,2.1,0.3,3,0.8
				c0.8,0.5,1.5,1.2,2,2.1c0.5,0.9,0.7,2,0.7,3.2c0,0.7-0.3,1.1-1,1.1h-7.7c0.1,1.2,0.4,2.1,1,2.6s1.4,0.8,2.5,0.8
				c0.6,0,1-0.1,1.5-0.2c0.4-0.1,0.9-0.3,1.4-0.6c0.5-0.3,0.9-0.4,1.1-0.4C475.9,365.6,476.2,365.7,476.3,365.9z M469,359.1
				c-0.5,0.6-0.8,1.4-0.9,2.4h5.9c0-1.1-0.3-1.9-0.8-2.4c-0.5-0.5-1.2-0.8-2-0.8C470.2,358.3,469.5,358.6,469,359.1z"/>
			<path class="st63" d="M481.7,368.5c-1-0.5-1.7-1.3-2.2-2.3c-0.5-1-0.8-2.1-0.8-3.5c0-1.3,0.3-2.5,0.8-3.5c0.5-1,1.3-1.8,2.3-2.4
				c1-0.6,2.1-0.8,3.4-0.8c0.7,0,1.4,0.1,2,0.3c0.7,0.2,1.3,0.5,1.8,0.8c0.6,0.4,0.8,0.8,0.8,1.4c0,0.4-0.1,0.7-0.3,0.9
				c-0.2,0.2-0.4,0.4-0.7,0.4c-0.2,0-0.4,0-0.6-0.1c-0.2-0.1-0.4-0.2-0.6-0.3c-0.4-0.2-0.7-0.4-1.1-0.5c-0.3-0.1-0.7-0.2-1.2-0.2
				c-1.1,0-1.9,0.4-2.5,1.1c-0.6,0.7-0.9,1.7-0.9,3c0,1.3,0.3,2.3,0.9,3s1.4,1.1,2.5,1.1c0.4,0,0.8-0.1,1.2-0.2
				c0.3-0.1,0.7-0.3,1.1-0.5c0.3-0.2,0.5-0.3,0.7-0.4c0.2-0.1,0.4-0.1,0.6-0.1c0.3,0,0.5,0.1,0.7,0.4c0.2,0.2,0.3,0.5,0.3,0.9
				c0,0.3-0.1,0.6-0.2,0.8c-0.1,0.2-0.3,0.4-0.6,0.6c-0.5,0.3-1.2,0.6-1.9,0.8c-0.7,0.2-1.4,0.3-2.2,0.3
				C483.7,369.3,482.6,369,481.7,368.5z"/>
			<path class="st63" d="M500,368c0,0.4-0.2,0.7-0.5,0.9c-0.3,0.2-0.8,0.3-1.4,0.3l-0.7-0.1c-2.9-0.2-4.4-1.8-4.4-4.7v-5.7h-1.3
				c-0.5,0-0.8-0.1-1.1-0.3s-0.4-0.5-0.4-0.9c0-0.4,0.1-0.7,0.4-0.9s0.6-0.3,1.1-0.3h1.3v-2.4c0-0.5,0.1-0.8,0.4-1.1
				c0.3-0.3,0.7-0.4,1.2-0.4c0.5,0,0.9,0.1,1.2,0.4c0.3,0.3,0.4,0.6,0.4,1.1v2.4h2.2c0.5,0,0.8,0.1,1.1,0.3c0.3,0.2,0.4,0.5,0.4,0.9
				c0,0.4-0.1,0.7-0.4,0.9c-0.3,0.2-0.6,0.3-1.1,0.3h-2.2v5.9c0,1.3,0.6,2,1.8,2.1l0.7,0.1C499.6,366.8,500,367.2,500,368z"/>
		</g>
	</g>
	<g class="st1">
		<path class="st63" d="M685.9,512.6c0.1-0.7-0.4-1.3-1.1-1.4c-0.7-0.1-1.3,0.4-1.4,1.1l-1.8,14.2c-40.6-88-76.4-152.6-163.2-203.8
			c-0.6,1.5-1.2,3.1-1.9,4.7c35.1,20.8,63.2,44.6,86.7,73.4c28.1,34.4,49.3,74.7,74,128.1l-12.3-7.8c-0.6-0.4-1.4-0.2-1.7,0.4
			c-0.2,0.4-0.2,0.8-0.1,1.2c0.1,0.2,0.3,0.4,0.5,0.5l15.7,9.9c0.4,0.7,1.1,1.1,1.9,1.2l0.3,0.2c0.4,0.2,0.8,0.3,1.2,0.1
			s0.7-0.5,0.7-1l0-0.3c0.5-0.7,0.7-1.6,0.3-2.4L685.9,512.6z"/>
		<path class="st63" d="M431.1,289c-9.6-0.9-19.2-0.8-28.7,0.5c-20.9,2.7-41.5,10.4-61.2,23c-33.4,21.4-52.5,49-53.3,50.2
			c-0.8,1.1-0.5,2.7,0.7,3.5c1.1,0.8,2.7,0.5,3.5-0.7c0.2-0.3,19.4-28,52-48.9c19.1-12.2,38.9-19.6,59.1-22.2
			c9.3-1.2,18.8-1.3,28.2-0.4C431.3,292.5,431.2,290.8,431.1,289z"/>
	</g>
</g>
<g id="Layer_3" class="st0">
	<path class="st67" d="M982.2,563.5H788.1c-4.9,0-8.8-3.9-8.8-8.8v-17.2c0-4.9,3.9-8.8,8.8-8.8h194.1c4.9,0,8.8,3.9,8.8,8.8v17.2
		C991,559.6,987.1,563.5,982.2,563.5z"/>
	<g class="st1">
		<g>
			<path class="st65" d="M697.5,528.5c0,0-5-23-17-59c-8.6-25.7-16.2-59.1-18.4-69.1"/>
			<g>
				<path class="st63" d="M677.7,414.4c-0.5,0.5-1.3,0.5-1.8,0L662.3,401l-6.4,18c-0.2,0.7-0.9,1-1.6,0.8c-0.6-0.2-1-1-0.8-1.6
					l7-19.9c0.1-0.4,0.5-0.7,0.9-0.8s0.9,0,1.2,0.3l15,14.8c0.2,0.2,0.3,0.4,0.3,0.6C678.1,413.6,678,414.1,677.7,414.4z"/>
			</g>
		</g>
	</g>
	<g class="st1">
		<g>
			<line class="st65" x1="716.5" y1="538.5" x2="794.9" y2="415"/>
			<g>
				<path class="st63" d="M795.9,435.9c-0.7,0-1.3-0.6-1.3-1.2l0-19.1l-17.3,8.1c-0.6,0.3-1.4,0-1.7-0.6c-0.3-0.6,0-1.4,0.6-1.7
					l19.1-8.9c0.4-0.2,0.8-0.2,1.2,0.1s0.6,0.6,0.6,1.1l0,21.1c0,0.2-0.1,0.5-0.2,0.7C796.7,435.7,796.3,435.9,795.9,435.9z"/>
			</g>
		</g>
	</g>
	<g class="st1">
		<path class="st63" d="M791.2,554.1c-1.3-0.8-2.3-1.9-3.1-3.3c-0.7-1.4-1.1-3.1-1.1-5c0-1.9,0.4-3.6,1.1-5c0.7-1.4,1.7-2.5,3.1-3.3
			c1.3-0.8,2.9-1.1,4.6-1.1c1.1,0,2.2,0.2,3.2,0.5c1,0.3,1.9,0.8,2.7,1.5c0.2,0.2,0.4,0.4,0.5,0.5c0.1,0.2,0.1,0.4,0.1,0.7
			c0,0.4-0.1,0.7-0.3,1c-0.2,0.3-0.5,0.4-0.8,0.4c-0.3,0-0.7-0.1-1.1-0.4c-0.7-0.6-1.4-0.9-2.1-1.2c-0.6-0.2-1.4-0.3-2.1-0.3
			c-1.8,0-3.2,0.6-4.1,1.7c-0.9,1.1-1.4,2.8-1.4,5c0,2.2,0.5,3.9,1.4,5c0.9,1.1,2.3,1.7,4.1,1.7c0.7,0,1.4-0.1,2.1-0.3
			c0.6-0.2,1.3-0.6,2.1-1.1c0.2-0.1,0.3-0.2,0.5-0.3c0.2-0.1,0.4-0.1,0.5-0.1c0.3,0,0.5,0.1,0.8,0.4c0.2,0.3,0.3,0.6,0.3,1
			c0,0.3,0,0.5-0.1,0.7c-0.1,0.2-0.2,0.4-0.5,0.6c-0.8,0.6-1.7,1.1-2.7,1.5c-1,0.3-2.1,0.5-3.2,0.5
			C794.1,555.3,792.5,554.9,791.2,554.1z"/>
		<path class="st63" d="M814.2,543.3c0.9,0.9,1.3,2.2,1.3,4v6.3c0,0.5-0.1,0.8-0.4,1.1c-0.3,0.3-0.7,0.4-1.1,0.4
			c-0.5,0-0.8-0.1-1.1-0.4c-0.3-0.3-0.4-0.6-0.4-1.1v-0.6c-0.3,0.7-0.8,1.2-1.4,1.6c-0.6,0.4-1.4,0.6-2.2,0.6
			c-0.8,0-1.6-0.2-2.3-0.5s-1.2-0.8-1.6-1.4c-0.4-0.6-0.6-1.3-0.6-2c0-0.9,0.2-1.7,0.7-2.2c0.5-0.5,1.3-0.9,2.3-1.2
			c1.1-0.2,2.6-0.4,4.4-0.4h0.7v-0.6c0-0.8-0.2-1.5-0.5-1.9c-0.4-0.4-1-0.6-1.8-0.6c-0.5,0-1,0.1-1.5,0.2c-0.5,0.1-1.1,0.4-1.8,0.6
			c-0.5,0.2-0.8,0.3-1,0.3c-0.3,0-0.6-0.1-0.8-0.3c-0.2-0.2-0.3-0.5-0.3-0.9c0-0.3,0.1-0.5,0.2-0.8c0.1-0.2,0.4-0.4,0.7-0.6
			c0.6-0.3,1.3-0.6,2.2-0.8c0.8-0.2,1.7-0.3,2.5-0.3C812,542,813.3,542.5,814.2,543.3z M811.6,552c0.5-0.6,0.8-1.3,0.8-2.2v-0.5
			h-0.5c-1.2,0-2.1,0.1-2.7,0.2c-0.6,0.1-1.1,0.3-1.4,0.5c-0.3,0.3-0.4,0.6-0.4,1.1c0,0.6,0.2,1,0.6,1.4c0.4,0.4,0.9,0.5,1.4,0.5
			C810.3,552.9,811,552.6,811.6,552z"/>
		<path class="st63" d="M829.6,543.3c0.7,0.9,1.1,2.2,1.1,3.9v6.4c0,0.5-0.1,0.9-0.4,1.1c-0.3,0.3-0.7,0.4-1.2,0.4
			c-0.5,0-0.9-0.1-1.2-0.4c-0.3-0.3-0.4-0.7-0.4-1.1v-6.2c0-1-0.2-1.7-0.6-2.2c-0.4-0.5-1-0.7-1.8-0.7c-0.9,0-1.7,0.3-2.2,0.9
			c-0.6,0.6-0.8,1.4-0.8,2.4v5.8c0,0.5-0.1,0.9-0.4,1.1c-0.3,0.3-0.7,0.4-1.2,0.4s-0.9-0.1-1.2-0.4c-0.3-0.3-0.4-0.7-0.4-1.1v-10.1
			c0-0.5,0.1-0.8,0.4-1.1c0.3-0.3,0.7-0.4,1.2-0.4c0.5,0,0.8,0.1,1.1,0.4c0.3,0.3,0.4,0.6,0.4,1.1v0.7c0.4-0.7,1-1.3,1.7-1.6
			c0.7-0.4,1.6-0.6,2.5-0.6C827.7,542,828.8,542.5,829.6,543.3z"/>
		<path class="st63" d="M836.3,554.5c-1-0.5-1.7-1.3-2.2-2.3c-0.5-1-0.8-2.1-0.8-3.5c0-1.3,0.3-2.5,0.8-3.5c0.5-1,1.3-1.8,2.3-2.4
			c1-0.6,2.1-0.8,3.4-0.8c0.7,0,1.4,0.1,2,0.3c0.7,0.2,1.3,0.5,1.8,0.8c0.6,0.4,0.8,0.8,0.8,1.4c0,0.4-0.1,0.7-0.3,0.9
			c-0.2,0.2-0.4,0.4-0.7,0.4c-0.2,0-0.4,0-0.6-0.1c-0.2-0.1-0.4-0.2-0.6-0.3c-0.4-0.2-0.7-0.4-1.1-0.5c-0.3-0.1-0.7-0.2-1.2-0.2
			c-1.1,0-1.9,0.4-2.5,1.1c-0.6,0.7-0.9,1.7-0.9,3c0,1.3,0.3,2.3,0.9,3s1.4,1.1,2.5,1.1c0.4,0,0.8-0.1,1.2-0.2
			c0.3-0.1,0.7-0.3,1.1-0.5c0.3-0.2,0.5-0.3,0.7-0.4c0.2-0.1,0.4-0.1,0.6-0.1c0.3,0,0.5,0.1,0.7,0.4c0.2,0.2,0.3,0.5,0.3,0.9
			c0,0.3-0.1,0.6-0.2,0.8c-0.1,0.2-0.3,0.4-0.6,0.6c-0.5,0.3-1.2,0.6-1.9,0.8c-0.7,0.2-1.4,0.3-2.2,0.3
			C838.4,555.3,837.2,555,836.3,554.5z"/>
		<path class="st63" d="M857.4,551.9c0.2,0.2,0.3,0.5,0.3,0.9c0,0.5-0.3,1-1,1.4c-0.6,0.3-1.3,0.6-2,0.8c-0.7,0.2-1.5,0.3-2.1,0.3
			c-2,0-3.7-0.6-4.9-1.8c-1.2-1.2-1.8-2.8-1.8-4.8c0-1.3,0.3-2.5,0.8-3.5c0.5-1,1.3-1.8,2.2-2.3s2-0.8,3.2-0.8c1.1,0,2.1,0.3,3,0.8
			c0.8,0.5,1.5,1.2,2,2.1c0.5,0.9,0.7,2,0.7,3.2c0,0.7-0.3,1.1-1,1.1h-7.7c0.1,1.2,0.4,2.1,1,2.6s1.4,0.8,2.5,0.8
			c0.6,0,1-0.1,1.5-0.2c0.4-0.1,0.9-0.3,1.4-0.6c0.5-0.3,0.9-0.4,1.1-0.4C857,551.6,857.3,551.7,857.4,551.9z M850.1,545.1
			c-0.5,0.6-0.8,1.4-0.9,2.4h5.9c0-1.1-0.3-1.9-0.8-2.4c-0.5-0.5-1.2-0.8-2-0.8C851.4,544.3,850.6,544.6,850.1,545.1z"/>
		<path class="st63" d="M860.9,554.8c-0.3-0.3-0.5-0.7-0.5-1.2v-15.5c0-0.5,0.2-0.9,0.5-1.1c0.3-0.3,0.7-0.4,1.2-0.4
			s0.9,0.1,1.2,0.4c0.3,0.3,0.5,0.6,0.5,1.1v15.5c0,0.5-0.2,0.9-0.5,1.2c-0.3,0.3-0.7,0.4-1.2,0.4S861.2,555.1,860.9,554.8z"/>
		<path class="st63" d="M879.2,554.7c-0.3-0.3-0.5-0.7-0.5-1.2v-14H874c-1,0-1.6-0.5-1.6-1.4c0-0.9,0.5-1.4,1.6-1.4h12.8
			c1,0,1.6,0.5,1.6,1.4c0,0.9-0.5,1.4-1.6,1.4h-4.7v14c0,0.5-0.2,0.9-0.5,1.2c-0.3,0.3-0.7,0.5-1.2,0.5
			C879.9,555.2,879.5,555,879.2,554.7z"/>
		<path class="st63" d="M902,547.2v6.4c0,0.5-0.1,0.9-0.4,1.1c-0.3,0.3-0.7,0.4-1.2,0.4c-0.5,0-0.9-0.1-1.2-0.4
			c-0.3-0.3-0.4-0.7-0.4-1.1v-6.4c0-0.9-0.2-1.6-0.6-2c-0.4-0.4-1-0.6-1.8-0.6c-0.9,0-1.7,0.3-2.2,0.9c-0.6,0.6-0.8,1.4-0.8,2.4v5.8
			c0,0.5-0.1,0.9-0.4,1.1c-0.3,0.3-0.7,0.4-1.2,0.4s-0.9-0.1-1.2-0.4c-0.3-0.3-0.4-0.7-0.4-1.1v-15.5c0-0.5,0.2-0.8,0.5-1.1
			c0.3-0.3,0.7-0.4,1.2-0.4s0.9,0.1,1.2,0.4c0.3,0.3,0.4,0.6,0.4,1.1v6.1c0.4-0.7,1-1.2,1.7-1.5c0.7-0.4,1.5-0.5,2.5-0.5
			C900.5,542,902,543.8,902,547.2z"/>
		<path class="st63" d="M916.1,551.9c0.2,0.2,0.3,0.5,0.3,0.9c0,0.5-0.3,1-1,1.4c-0.6,0.3-1.3,0.6-2,0.8c-0.7,0.2-1.5,0.3-2.1,0.3
			c-2,0-3.7-0.6-4.9-1.8c-1.2-1.2-1.8-2.8-1.8-4.8c0-1.3,0.3-2.5,0.8-3.5c0.5-1,1.3-1.8,2.2-2.3s2-0.8,3.2-0.8c1.1,0,2.1,0.3,3,0.8
			c0.8,0.5,1.5,1.2,2,2.1c0.5,0.9,0.7,2,0.7,3.2c0,0.7-0.3,1.1-1,1.1h-7.7c0.1,1.2,0.4,2.1,1,2.6s1.4,0.8,2.5,0.8
			c0.6,0,1-0.1,1.5-0.2c0.4-0.1,0.9-0.3,1.4-0.6c0.5-0.3,0.9-0.4,1.1-0.4C915.6,551.6,915.9,551.7,916.1,551.9z M908.7,545.1
			c-0.5,0.6-0.8,1.4-0.9,2.4h5.9c0-1.1-0.3-1.9-0.8-2.4c-0.5-0.5-1.2-0.8-2-0.8C910,544.3,909.2,544.6,908.7,545.1z"/>
		<path class="st63" d="M940.2,547.2c0.6,0.8,0.9,1.7,0.9,2.9c0,1.6-0.6,2.8-1.7,3.7c-1.1,0.9-2.7,1.3-4.6,1.3H928
			c-0.5,0-0.9-0.1-1.2-0.4c-0.3-0.3-0.4-0.7-0.4-1.2v-15.2c0-0.5,0.1-0.9,0.4-1.2c0.3-0.3,0.7-0.4,1.2-0.4h6.4
			c1.9,0,3.4,0.4,4.5,1.3c1.1,0.8,1.6,2,1.6,3.5c0,1-0.3,1.8-0.8,2.5c-0.5,0.7-1.2,1.2-2.1,1.6C938.8,545.9,939.6,546.4,940.2,547.2
			z M929.7,544.4h4.2c2.3,0,3.5-0.9,3.5-2.6c0-0.9-0.3-1.5-0.9-1.9s-1.4-0.6-2.6-0.6h-4.2V544.4z M937,551.8c0.6-0.4,0.8-1.1,0.8-2
			c0-0.9-0.3-1.6-0.8-2.1c-0.6-0.5-1.4-0.7-2.6-0.7h-4.7v5.4h4.7C935.6,552.4,936.5,552.2,937,551.8z"/>
		<path class="st63" d="M955.1,542.5c0.3,0.3,0.4,0.6,0.4,1.1v10.1c0,0.5-0.2,0.8-0.5,1.1c-0.3,0.3-0.7,0.4-1.2,0.4
			c-0.5,0-0.8-0.1-1.1-0.4c-0.3-0.3-0.4-0.6-0.4-1.1v-0.7c-0.4,0.7-0.9,1.2-1.6,1.6s-1.4,0.6-2.3,0.6c-3.1,0-4.7-1.8-4.7-5.3v-6.4
			c0-0.5,0.1-0.8,0.4-1.1c0.3-0.3,0.7-0.4,1.2-0.4c0.5,0,0.9,0.1,1.2,0.4c0.3,0.3,0.4,0.6,0.4,1.1v6.4c0,0.9,0.2,1.6,0.5,2
			c0.4,0.4,0.9,0.6,1.7,0.6c0.9,0,1.6-0.3,2.2-0.9c0.5-0.6,0.8-1.4,0.8-2.4v-5.8c0-0.5,0.1-0.8,0.4-1.1c0.3-0.3,0.7-0.4,1.2-0.4
			C954.4,542.1,954.8,542.2,955.1,542.5z"/>
		<path class="st63" d="M969.9,553.8c0,0.4-0.1,0.7-0.4,0.9c-0.2,0.2-0.6,0.3-1.1,0.3h-8.7c-0.4,0-0.8-0.1-1.1-0.4
			c-0.3-0.3-0.4-0.6-0.4-1c0-0.4,0.2-0.8,0.5-1.1l6.7-7.7h-5.8c-0.5,0-0.8-0.1-1.1-0.3c-0.2-0.2-0.4-0.5-0.4-0.9
			c0-0.4,0.1-0.7,0.4-0.9c0.2-0.2,0.6-0.3,1.1-0.3h8.4c0.5,0,0.8,0.1,1.1,0.4c0.3,0.3,0.4,0.6,0.4,1c0,0.4-0.1,0.8-0.4,1.1l-6.7,7.7
			h6.1C969.4,552.6,969.9,553,969.9,553.8z"/>
		<path class="st63" d="M983.1,553.8c0,0.4-0.1,0.7-0.4,0.9c-0.2,0.2-0.6,0.3-1.1,0.3H973c-0.4,0-0.8-0.1-1.1-0.4
			c-0.3-0.3-0.4-0.6-0.4-1c0-0.4,0.2-0.8,0.5-1.1l6.7-7.7h-5.8c-0.5,0-0.8-0.1-1.1-0.3c-0.2-0.2-0.4-0.5-0.4-0.9
			c0-0.4,0.1-0.7,0.4-0.9c0.2-0.2,0.6-0.3,1.1-0.3h8.4c0.5,0,0.8,0.1,1.1,0.4c0.3,0.3,0.4,0.6,0.4,1c0,0.4-0.1,0.8-0.4,1.1l-6.7,7.7
			h6.1C982.6,552.6,983.1,553,983.1,553.8z"/>
	</g>
	<g class="st1">
		<path class="st63" d="M705.2,509l3.8-3.5c0.8-0.8,1.9-1.1,3-0.9c1.1,0.2,2,0.9,2.5,2l2.1,4.7c0.9,2.1,2.6,3.6,4.5,4.5l3.3-4.9
			c-1.1-0.2-2.1-0.9-2.6-2l-2.1-4.7c-1.2-2.7-3.7-4.6-6.6-5.2c-2.9-0.6-5.9,0.2-8.1,2.3l-3.6,3.4l1.6,5.8
			C703.8,510.1,704.6,509.6,705.2,509z"/>
		<path class="st63" d="M681.2,511.3l2.1-4.7c0.2-0.4,0.4-0.7,0.7-1l-1.6-5.9c-1.9,0.9-3.4,2.4-4.3,4.4l-0.6,1.3l2.7,7.4
			C680.6,512.4,681,511.9,681.2,511.3z"/>
		<path class="st63" d="M764.6,572.8c-1.2-1.3-1.2-3.4,0-4.7l3.5-3.8c2-2.2,2.9-5.1,2.3-8.1c-0.6-2.9-2.5-5.3-5.2-6.6l-4.7-2.1
			c-1.6-0.8-2.4-2.7-1.8-4.4l1.8-4.8c1-2.8,0.7-5.8-1-8.3c-1.7-2.5-4.3-4-7.3-4.1l-5.1-0.2c-1.8-0.1-3.3-1.5-3.3-3.3l-0.2-5.1
			c0-1.1-0.3-2.1-0.7-3l-4.9,7.2l0,1.2c0.2,4.8,4.1,8.7,8.9,8.9l5.1,0.2c1.1,0,2.1,0.6,2.8,1.5c0.6,0.9,0.8,2.1,0.4,3.1l-1.8,4.8
			c-1.7,4.5,0.4,9.6,4.8,11.6l4.7,2.1c1,0.5,1.7,1.4,2,2.5c0.2,1.1-0.1,2.2-0.9,3l-3.5,3.8c-3.3,3.5-3.3,9,0,12.5l3.5,3.8
			c0.8,0.8,1.1,1.9,0.9,3c-0.2,1.1-0.9,2-2,2.5l-4.7,2.1c-4.4,2-6.5,7.1-4.8,11.6l1.8,4.8c0.4,1.1,0.3,2.2-0.4,3.1
			c-0.6,0.9-1.6,1.5-2.8,1.5l-5.1,0.2c-4.8,0.2-8.7,4.1-8.9,8.9l-0.2,5.1c0,1.1-0.6,2.1-1.5,2.8c-0.9,0.6-2.1,0.8-3.1,0.4l-4.8-1.8
			c-4.5-1.7-9.6,0.4-11.6,4.8l-2.1,4.7c-0.5,1-1.4,1.7-2.5,2c-1.1,0.2-2.2-0.1-3-0.9l-3.8-3.5c-1.7-1.6-3.9-2.4-6.3-2.4
			s-4.6,0.9-6.3,2.4l-3.8,3.5c-0.8,0.8-1.9,1.1-3,0.9c-1.1-0.2-2-0.9-2.5-2l-2.1-4.7c-1.5-3.4-4.9-5.4-8.4-5.4
			c-1.1,0-2.1,0.2-3.2,0.6l-4.8,1.8c-1.1,0.4-2.2,0.3-3.1-0.4c-0.9-0.6-1.5-1.6-1.5-2.8l-0.2-5.1c-0.2-4.8-4.1-8.7-8.9-8.9l-5.1-0.2
			c-1.1,0-2.1-0.6-2.8-1.5c-0.6-0.9-0.8-2.1-0.4-3.1l1.8-4.8c1.7-4.5-0.4-9.6-4.8-11.6l-4.7-2.1c-1-0.5-1.7-1.4-2-2.5
			c-0.2-1.1,0.1-2.2,0.9-3l3.5-3.8c3.3-3.5,3.3-9,0-12.5l-3.5-3.8c-0.8-0.8-1.1-1.9-0.9-3c0.2-1.1,0.9-2,2-2.5l4.7-2.1
			c4.4-2,6.5-7.1,4.8-11.6l-1.8-4.8c-0.4-1.1-0.3-2.2,0.4-3.1c0.6-0.9,1.6-1.5,2.8-1.5l5.1-0.2c4.8-0.2,8.7-4.1,8.9-8.9l0.2-5.1
			c0-1.1,0.6-2.1,1.5-2.8c0.9-0.6,1.9-0.7,2.9-0.4l-2.9-5.7c-1.1,0.2-2.2,0.7-3.3,1.3c-2.5,1.7-4,4.3-4.1,7.3l-0.2,5.1
			c-0.1,1.8-1.5,3.3-3.3,3.3l-5.1,0.2c-3,0.1-5.7,1.6-7.3,4.1c-1.7,2.5-2,5.5-1,8.3l1.8,4.8c0.6,1.7-0.2,3.6-1.8,4.4l-4.7,2.1
			c-2.7,1.2-4.6,3.6-5.2,6.6c-0.6,2.9,0.2,5.9,2.3,8.1l3.5,3.8c1.2,1.3,1.2,3.4,0,4.7l-3.5,3.8c-2,2.2-2.9,5.1-2.3,8.1
			c0.6,2.9,2.5,5.3,5.2,6.6l4.7,2.1c1.6,0.8,2.4,2.7,1.8,4.4l-1.8,4.8c-1,2.8-0.7,5.8,1,8.3c1.7,2.5,4.3,4,7.3,4.1l5.1,0.2
			c1.8,0.1,3.3,1.5,3.3,3.3l0.2,5.1c0.1,3,1.6,5.7,4.1,7.3c2.5,1.7,5.5,2,8.3,1l4.8-1.8c1.7-0.6,3.6,0.2,4.4,1.8l2.1,4.7
			c1.3,2.7,3.7,4.6,6.6,5.2c0.6,0.1,1.2,0.2,1.8,0.2c2.3,0,4.5-0.9,6.2-2.5l3.8-3.5c1.3-1.2,3.4-1.2,4.7,0l3.8,3.5
			c2.2,2,5.2,2.9,8.1,2.3c2.9-0.6,5.3-2.5,6.6-5.2l2.1-4.7c0.8-1.6,2.7-2.4,4.4-1.8l4.8,1.8c2.8,1,5.8,0.7,8.3-1
			c2.5-1.7,4-4.3,4.1-7.3l0.2-5.1c0.1-1.8,1.5-3.3,3.3-3.3l5.1-0.2c3-0.1,5.7-1.6,7.3-4.1c1.7-2.5,2-5.5,1-8.3l-1.8-4.8
			c-0.6-1.7,0.2-3.6,1.8-4.4l4.7-2.1c2.7-1.2,4.6-3.6,5.2-6.6c0.6-2.9-0.2-5.9-2.3-8.1L764.6,572.8z"/>
	</g>
	<path class="st67" d="M881.2,426h-56.5c-4.9,0-8.8-3.9-8.8-8.8v-6.9c0-4.9,3.9-8.8,8.8-8.8h56.5c4.9,0,8.8,3.9,8.8,8.8v6.9
		C890,422.1,886.1,426,881.2,426z"/>
	<g class="st1">
		<path class="st63" d="M832.1,408c0.2,0.2,0.3,0.4,0.3,0.7v9.4c0,0.3-0.1,0.6-0.3,0.8s-0.4,0.3-0.7,0.3c-0.3,0-0.6-0.1-0.8-0.4
			l-5.8-7.6v6.9c0,0.3-0.1,0.6-0.3,0.8s-0.4,0.3-0.7,0.3s-0.5-0.1-0.7-0.3s-0.3-0.4-0.3-0.8v-9.4c0-0.3,0.1-0.6,0.3-0.7
			c0.2-0.2,0.4-0.3,0.7-0.3c0.3,0,0.6,0.1,0.8,0.4l5.8,7.6v-6.9c0-0.3,0.1-0.6,0.3-0.7c0.2-0.2,0.4-0.3,0.7-0.3
			C831.7,407.7,832,407.8,832.1,408z"/>
		<path class="st63" d="M841.3,417.1c0.1,0.1,0.2,0.3,0.2,0.6c0,0.3-0.2,0.6-0.6,0.8c-0.4,0.2-0.8,0.4-1.2,0.5
			c-0.5,0.1-0.9,0.2-1.3,0.2c-1.3,0-2.3-0.4-3-1.1c-0.7-0.7-1.1-1.7-1.1-3c0-0.8,0.2-1.5,0.5-2.1s0.8-1.1,1.4-1.4
			c0.6-0.3,1.2-0.5,2-0.5c0.7,0,1.3,0.2,1.8,0.5c0.5,0.3,0.9,0.7,1.2,1.3c0.3,0.6,0.4,1.2,0.4,2c0,0.5-0.2,0.7-0.6,0.7h-4.7
			c0.1,0.7,0.3,1.3,0.6,1.6c0.4,0.3,0.9,0.5,1.5,0.5c0.3,0,0.6,0,0.9-0.1c0.3-0.1,0.6-0.2,0.9-0.4c0.3-0.2,0.6-0.3,0.7-0.3
			C841,416.9,841.2,417,841.3,417.1z M836.8,413c-0.3,0.3-0.5,0.8-0.6,1.5h3.6c0-0.7-0.2-1.1-0.5-1.5s-0.7-0.5-1.2-0.5
			C837.5,412.4,837.1,412.6,836.8,413z"/>
		<path class="st63" d="M844.6,418.7c-0.6-0.3-1-0.8-1.4-1.4s-0.5-1.3-0.5-2.1s0.2-1.5,0.5-2.2s0.8-1.1,1.4-1.4
			c0.6-0.3,1.3-0.5,2.1-0.5c0.4,0,0.8,0.1,1.3,0.2s0.8,0.3,1.1,0.5c0.3,0.2,0.5,0.5,0.5,0.8c0,0.2-0.1,0.4-0.2,0.6s-0.3,0.2-0.4,0.2
			c-0.1,0-0.2,0-0.4-0.1c-0.1-0.1-0.3-0.1-0.4-0.2c-0.2-0.1-0.5-0.2-0.7-0.3c-0.2-0.1-0.5-0.1-0.7-0.1c-0.7,0-1.2,0.2-1.5,0.6
			c-0.4,0.4-0.5,1.1-0.5,1.9c0,0.8,0.2,1.4,0.5,1.8s0.9,0.6,1.5,0.6c0.3,0,0.5,0,0.7-0.1s0.4-0.2,0.7-0.3c0.2-0.1,0.3-0.2,0.4-0.2
			c0.1,0,0.2-0.1,0.4-0.1c0.2,0,0.3,0.1,0.4,0.2c0.1,0.1,0.2,0.3,0.2,0.6c0,0.2,0,0.3-0.1,0.5s-0.2,0.3-0.4,0.4
			c-0.3,0.2-0.7,0.4-1.2,0.5c-0.4,0.1-0.9,0.2-1.3,0.2C845.9,419.2,845.2,419,844.6,418.7z"/>
		<path class="st63" d="M858.3,418.2c0,0.2-0.1,0.5-0.3,0.7c-0.2,0.2-0.4,0.3-0.6,0.3c-0.2,0-0.5-0.1-0.7-0.3l-3.7-3.4v2.7
			c0,0.3-0.1,0.5-0.3,0.7c-0.2,0.2-0.4,0.2-0.7,0.2s-0.5-0.1-0.7-0.2c-0.2-0.2-0.3-0.4-0.3-0.7v-9.6c0-0.3,0.1-0.5,0.3-0.7
			c0.2-0.2,0.4-0.2,0.7-0.2s0.5,0.1,0.7,0.2c0.2,0.2,0.3,0.4,0.3,0.7v6l3.4-3.3c0.2-0.2,0.4-0.3,0.7-0.3c0.2,0,0.5,0.1,0.6,0.3
			c0.2,0.2,0.3,0.4,0.3,0.6c0,0.2-0.1,0.5-0.3,0.7l-2.5,2.3l2.8,2.5C858.1,417.7,858.3,417.9,858.3,418.2z"/>
		<path class="st63" d="M860.9,418.7c-0.6-0.3-1-0.8-1.4-1.4s-0.5-1.3-0.5-2.1s0.2-1.5,0.5-2.2s0.8-1.1,1.4-1.4
			c0.6-0.3,1.3-0.5,2.1-0.5c0.4,0,0.8,0.1,1.3,0.2s0.8,0.3,1.1,0.5c0.3,0.2,0.5,0.5,0.5,0.8c0,0.2-0.1,0.4-0.2,0.6s-0.3,0.2-0.4,0.2
			c-0.1,0-0.2,0-0.4-0.1c-0.1-0.1-0.3-0.1-0.4-0.2c-0.2-0.1-0.5-0.2-0.7-0.3c-0.2-0.1-0.5-0.1-0.7-0.1c-0.7,0-1.2,0.2-1.5,0.6
			c-0.4,0.4-0.5,1.1-0.5,1.9c0,0.8,0.2,1.4,0.5,1.8s0.9,0.6,1.5,0.6c0.3,0,0.5,0,0.7-0.1s0.4-0.2,0.7-0.3c0.2-0.1,0.3-0.2,0.4-0.2
			c0.1,0,0.2-0.1,0.4-0.1c0.2,0,0.3,0.1,0.4,0.2c0.1,0.1,0.2,0.3,0.2,0.6c0,0.2,0,0.3-0.1,0.5s-0.2,0.3-0.4,0.4
			c-0.3,0.2-0.7,0.4-1.2,0.5c-0.4,0.1-0.9,0.2-1.3,0.2C862.1,419.2,861.4,419,860.9,418.7z"/>
		<path class="st63" d="M868.7,418.7c-0.6-0.3-1.1-0.8-1.4-1.4c-0.3-0.6-0.5-1.3-0.5-2.2c0-0.8,0.2-1.5,0.5-2.2
			c0.3-0.6,0.8-1.1,1.4-1.4s1.3-0.5,2.1-0.5c0.8,0,1.5,0.2,2.1,0.5s1.1,0.8,1.4,1.4c0.3,0.6,0.5,1.3,0.5,2.2c0,0.8-0.2,1.5-0.5,2.2
			c-0.3,0.6-0.8,1.1-1.4,1.4c-0.6,0.3-1.3,0.5-2.1,0.5C870,419.2,869.3,419,868.7,418.7z M872.3,417c0.3-0.4,0.5-1.1,0.5-1.9
			c0-0.8-0.2-1.4-0.5-1.9c-0.3-0.4-0.8-0.6-1.5-0.6c-0.6,0-1.1,0.2-1.5,0.6s-0.5,1.1-0.5,1.9c0,0.8,0.2,1.5,0.5,1.9
			c0.3,0.4,0.8,0.6,1.5,0.6C871.4,417.6,871.9,417.4,872.3,417z"/>
		<path class="st63" d="M876.6,409.3c-0.2-0.2-0.3-0.5-0.3-0.8s0.1-0.6,0.3-0.8c0.2-0.2,0.5-0.3,0.9-0.3c0.4,0,0.6,0.1,0.9,0.3
			s0.3,0.4,0.3,0.8s-0.1,0.6-0.3,0.8c-0.2,0.2-0.5,0.3-0.9,0.3C877.1,409.6,876.8,409.5,876.6,409.3z M876.7,418.9
			c-0.2-0.2-0.3-0.4-0.3-0.7V412c0-0.3,0.1-0.5,0.3-0.7c0.2-0.2,0.4-0.2,0.7-0.2s0.5,0.1,0.7,0.2c0.2,0.2,0.3,0.4,0.3,0.7v6.2
			c0,0.3-0.1,0.5-0.3,0.7c-0.2,0.2-0.4,0.2-0.7,0.2S876.9,419.1,876.7,418.9z"/>
		<path class="st63" d="M880.8,418.9c-0.2-0.2-0.3-0.4-0.3-0.7v-9.6c0-0.3,0.1-0.5,0.3-0.7c0.2-0.2,0.4-0.2,0.7-0.2s0.5,0.1,0.7,0.2
			c0.2,0.2,0.3,0.4,0.3,0.7v9.6c0,0.3-0.1,0.5-0.3,0.7c-0.2,0.2-0.4,0.2-0.7,0.2S881,419.1,880.8,418.9z"/>
	</g>
</g>
<g id="Layer_4">
	<path class="st64" d="M952.2,265.3h-66.5c-4.9,0-8.8-3.9-8.8-8.8v-17.2c0-4.9,3.9-8.8,8.8-8.8h66.5c4.9,0,8.8,3.9,8.8,8.8v17.2
		C961,261.3,957.1,265.3,952.2,265.3z"/>
	<g>
		<g>
			<path class="st65" d="M802.5,393.5c0,0,67.4,1.2,86-33c22.1-40.6-22.9-84.4-33.7-94"/>
			<g>
				<path class="st63" d="M875.5,268.6c-0.1,0.7-0.7,1.2-1.4,1.1l-18.9-2.8l5.4,18.3c0.2,0.7-0.2,1.4-0.8,1.6
					c-0.7,0.2-1.4-0.2-1.6-0.8l-6-20.2c-0.1-0.4,0-0.9,0.3-1.2s0.7-0.5,1.1-0.4l20.9,3.1c0.2,0,0.5,0.1,0.6,0.3
					C875.4,267.8,875.6,268.2,875.5,268.6z"/>
			</g>
		</g>
	</g>
	<g>
		<g>
			<path class="st65" d="M664,370c0,0-37.1-15.6-40.5-59.5c-2.5-33.1,20.1-63.4,27-71.7"/>
			<g>
				<path class="st63" d="M648.7,259.6c-0.7-0.1-1.2-0.7-1.1-1.4l2.5-19l-18.2,5.7c-0.7,0.2-1.4-0.2-1.6-0.8
					c-0.2-0.7,0.2-1.4,0.8-1.6l20.1-6.3c0.4-0.1,0.9,0,1.2,0.2s0.5,0.7,0.4,1.1l-2.8,20.9c0,0.2-0.1,0.5-0.3,0.6
					C649.6,259.5,649.2,259.7,648.7,259.6z"/>
			</g>
		</g>
	</g>
	<g>
		<path class="st63" d="M885.1,255.6c-0.3-0.3-0.4-0.7-0.4-1.2v-15.2c0-0.5,0.1-0.9,0.4-1.2c0.3-0.3,0.7-0.4,1.2-0.4h9.4
			c0.5,0,0.9,0.1,1.2,0.3c0.3,0.2,0.4,0.5,0.4,1c0,0.4-0.1,0.8-0.4,1c-0.3,0.2-0.7,0.4-1.2,0.4h-7.7v5h7.2c0.5,0,0.9,0.1,1.2,0.3
			c0.3,0.2,0.4,0.6,0.4,1c0,0.4-0.1,0.7-0.4,1c-0.3,0.2-0.7,0.3-1.2,0.3h-7.2v5.4h7.7c0.5,0,0.9,0.1,1.2,0.4c0.3,0.2,0.4,0.6,0.4,1
			c0,0.4-0.1,0.7-0.4,1c-0.3,0.2-0.7,0.3-1.2,0.3h-9.4C885.8,256,885.4,255.9,885.1,255.6z"/>
		<path class="st63" d="M910.5,244.3c0.7,0.9,1.1,2.2,1.1,3.9v6.4c0,0.5-0.1,0.9-0.4,1.1c-0.3,0.3-0.7,0.4-1.2,0.4
			c-0.5,0-0.9-0.1-1.2-0.4c-0.3-0.3-0.4-0.7-0.4-1.1v-6.2c0-1-0.2-1.7-0.6-2.2c-0.4-0.5-1-0.7-1.8-0.7c-0.9,0-1.7,0.3-2.2,0.9
			c-0.6,0.6-0.8,1.4-0.8,2.4v5.8c0,0.5-0.1,0.9-0.4,1.1c-0.3,0.3-0.7,0.4-1.2,0.4s-0.9-0.1-1.2-0.4c-0.3-0.3-0.4-0.7-0.4-1.1v-10.1
			c0-0.5,0.1-0.8,0.4-1.1c0.3-0.3,0.7-0.4,1.2-0.4c0.5,0,0.8,0.1,1.1,0.4c0.3,0.3,0.4,0.6,0.4,1.1v0.7c0.4-0.7,1-1.3,1.7-1.6
			c0.7-0.4,1.6-0.6,2.5-0.6C908.6,243,909.7,243.5,910.5,244.3z"/>
		<path class="st63" d="M911.6,260.5c-0.3-0.2-0.5-0.5-0.5-1c0-0.7,0.4-1.1,1.3-1.2l0.7-0.1c0.6,0,1-0.2,1.3-0.5
			c0.3-0.3,0.4-0.8,0.4-1.5v-11.7c0-0.5,0.2-0.9,0.5-1.1c0.3-0.3,0.7-0.4,1.2-0.4s0.9,0.1,1.2,0.4c0.3,0.3,0.5,0.6,0.5,1.1V256
			c0,2.9-1.5,4.5-4.4,4.7l-0.7,0.1C912.4,260.8,912,260.7,911.6,260.5z M915.1,240.3c-0.3-0.3-0.5-0.7-0.5-1.3s0.2-0.9,0.5-1.2
			s0.8-0.5,1.4-0.5c0.6,0,1,0.2,1.4,0.5s0.5,0.7,0.5,1.2s-0.2,0.9-0.5,1.3c-0.3,0.3-0.8,0.5-1.4,0.5
			C915.9,240.8,915.4,240.6,915.1,240.3z"/>
		<path class="st63" d="M923.9,255.5c-1-0.5-1.7-1.3-2.3-2.3c-0.5-1-0.8-2.2-0.8-3.5c0-1.3,0.3-2.5,0.8-3.5c0.5-1,1.3-1.8,2.3-2.3
			c1-0.5,2.1-0.8,3.4-0.8s2.4,0.3,3.4,0.8c1,0.5,1.7,1.3,2.3,2.3c0.5,1,0.8,2.2,0.8,3.5c0,1.3-0.3,2.5-0.8,3.5
			c-0.5,1-1.3,1.8-2.3,2.3c-1,0.5-2.1,0.8-3.4,0.8S924.9,256,923.9,255.5z M929.7,252.7c0.6-0.7,0.8-1.7,0.8-3.1
			c0-1.3-0.3-2.4-0.8-3.1s-1.4-1.1-2.4-1.1s-1.8,0.4-2.4,1.1s-0.8,1.7-0.8,3.1c0,1.4,0.3,2.4,0.8,3.1c0.6,0.7,1.4,1,2.4,1
			C928.3,253.7,929.1,253.4,929.7,252.7z"/>
		<path class="st63" d="M945.7,243.3c0.2-0.1,0.5-0.2,0.8-0.2c0.4,0,0.8,0.1,1.1,0.4c0.3,0.3,0.5,0.6,0.5,1c0,0.2-0.1,0.4-0.2,0.6
			l-7.1,14.9c-0.3,0.6-0.8,0.9-1.4,0.9c-0.4,0-0.7-0.1-1.1-0.4c-0.3-0.3-0.5-0.6-0.5-0.9c0-0.2,0.1-0.4,0.2-0.6l1.8-3.7l-4.8-10.1
			c-0.1-0.2-0.1-0.4-0.1-0.6c0-0.4,0.2-0.7,0.5-1c0.3-0.3,0.7-0.4,1.2-0.4c0.3,0,0.6,0.1,0.8,0.2c0.2,0.1,0.4,0.4,0.6,0.7l3.6,8
			l3.6-8C945.2,243.7,945.4,243.5,945.7,243.3z"/>
		<path class="st63" d="M950.8,250.5c-0.2-0.2-0.3-0.4-0.3-0.8l-1-10.1l0-0.3c0-0.5,0.2-1,0.6-1.3c0.4-0.3,0.8-0.5,1.4-0.5
			c0.6,0,1,0.2,1.4,0.5c0.4,0.3,0.6,0.8,0.6,1.3l0,0.3l-1,10.1c0,0.3-0.1,0.6-0.3,0.8c-0.2,0.2-0.4,0.3-0.7,0.3
			C951.2,250.7,951,250.7,950.8,250.5z M950.1,255.6c-0.4-0.4-0.5-0.8-0.5-1.4s0.2-1,0.5-1.4c0.4-0.4,0.8-0.6,1.4-0.6s1,0.2,1.4,0.6
			c0.4,0.4,0.5,0.8,0.5,1.4s-0.2,1-0.5,1.4c-0.4,0.4-0.8,0.6-1.4,0.6S950.4,256,950.1,255.6z"/>
	</g>
</g>
</svg>
