<?xml version="1.0" encoding="utf-8"?>
<!-- Generator: Adobe Illustrator 24.1.0, SVG Export Plug-In . SVG Version: 6.00 Build 0)  -->
<svg version="1.1" xmlns="http://www.w3.org/2000/svg" xmlns:xlink="http://www.w3.org/1999/xlink" x="0px" y="0px"
	 viewBox="0 0 1189 700" style="enable-background:new 0 0 1189 700;" xml:space="preserve">
<style type="text/css">
	.st0{display:none;}
	.st1{display:inline;}
	.st2{fill:#F9D66C;}
	.st3{fill:#3D3D3D;}
	.st4{fill:none;stroke:#0080F9;stroke-width:75;stroke-linecap:round;stroke-miterlimit:10;}
	.st5{fill:none;stroke:#0080F9;stroke-width:75;stroke-linecap:round;stroke-miterlimit:10;stroke-dasharray:0.9629,192.5835;}
	.st6{fill:none;stroke:#0080F9;stroke-width:55;stroke-linecap:round;stroke-miterlimit:10;}
	.st7{fill:none;stroke:#0080F9;stroke-width:55;stroke-linecap:round;stroke-miterlimit:10;stroke-dasharray:0.9755,146.3315;}
	.st8{display:inline;fill:#00BC91;}
	.st9{display:inline;fill:#5A3BFF;}
	.st10{display:inline;fill:#FFC600;}
	.st11{display:inline;fill:#D2FFF1;}
	.st12{display:inline;fill:#AAF2E5;}
	.st13{display:inline;fill:#6AE9D4;}
	.st14{display:inline;fill:#00D8AF;}
	.st15{display:inline;fill:#008873;}
	.st16{display:inline;fill:#006852;}
	.st17{display:inline;fill:#004B3A;}
	.st18{display:inline;fill:#002920;}
	.st19{display:inline;fill:#FFF2DE;}
	.st20{display:inline;fill:#FFEBAA;}
	.st21{display:inline;fill:#FFE17F;}
	.st22{display:inline;fill:#FFD636;}
	.st23{display:inline;fill:#FFB100;}
	.st24{display:inline;fill:#F78E00;}
	.st25{display:inline;fill:#F47A00;}
	.st26{display:inline;fill:#D66200;}
	.st27{display:inline;fill:#DED4FF;}
	.st28{display:inline;fill:#B0ADFF;}
	.st29{display:inline;fill:#9F8AFF;}
	.st30{display:inline;fill:#7E55F4;}
	.st31{display:inline;fill:#4C00F0;}
	.st32{display:inline;fill:#4600CD;}
	.st33{display:inline;fill:#30009E;}
	.st34{display:inline;fill:#240277;}
	.st35{display:inline;fill:#FFEBE4;}
	.st36{display:inline;fill:#EACFC3;}
	.st37{display:inline;fill:#D3AF9F;}
	.st38{display:inline;fill:#BC937C;}
	.st39{display:inline;fill:#B17F5D;}
	.st40{display:inline;fill:#F1F1F1;}
	.st41{display:inline;fill:#ECECEC;}
	.st42{display:inline;fill:#E5E5E5;}
	.st43{display:inline;fill:#D7D7D7;}
	.st44{display:inline;fill:#B4B4B4;}
	.st45{display:inline;fill:#959595;}
	.st46{display:inline;fill:#757575;}
	.st47{display:inline;fill:#616161;}
	.st48{display:inline;fill:#424242;}
	.st49{display:inline;fill:#212121;}
	.st50{fill:#F7EBE7;}
	.st51{fill:url(#SVGID_1_);}
	.st52{fill:url(#SVGID_2_);}
	.st53{fill:url(#SVGID_3_);}
	.st54{fill:url(#SVGID_4_);}
	.st55{fill:url(#SVGID_5_);}
	.st56{fill:url(#SVGID_6_);}
	.st57{fill:#FFC600;}
	.st58{fill:url(#SVGID_7_);}
	.st59{fill:url(#SVGID_8_);}
	.st60{fill:url(#SVGID_9_);}
	.st61{fill:url(#SVGID_10_);}
	.st62{fill:url(#SVGID_11_);}
	.st63{fill:none;stroke:#F9D66C;stroke-width:12;stroke-linecap:round;stroke-miterlimit:10;}
	
		.st64{fill:none;stroke:#F9D66C;stroke-width:12;stroke-linecap:round;stroke-miterlimit:10;stroke-dasharray:9.888990e-02,23.7336;}
	.st65{display:inline;fill:#F9F9F9;stroke:#D5B8A9;stroke-miterlimit:10;}
	.st66{display:inline;filter:url(#Adobe_OpacityMaskFilter);}
	.st67{fill:#F9F9F9;stroke:#D5B8A9;stroke-miterlimit:10;}
	.st68{fill:#FFFFFF;}
	.st69{fill:#091317;}
</style>
<g id="Layer_1" class="st0">
	
		<image style="display:inline;overflow:visible;" width="5000" height="4000" xlink:href="../../../../2020/0505_manual/raw/DSC05410-4.jpg"  transform="matrix(0.2377 0 0 0.2377 0 -135)">
	</image>
</g>
<g id="Layer_2" class="st0">
	<g class="st1">
		<g>
			<g>
				<path class="st2" d="M264,344.6c-1,0-2.1-0.3-3-0.9c-2.6-1.6-3.3-5-1.7-7.6c0-0.1,0.1-0.2,0.2-0.2c1-1.5,2.7-2.3,4.5-2.3
					c1.1,0,2.2,0.3,3.2,1c2.4,1.7,3.1,5.1,1.4,7.6C267.5,343.7,265.8,344.6,264,344.6z"/>
				<path class="st3" d="M264,334.1L264,334.1c1,0,2,0.3,2.9,0.9c2.2,1.6,2.8,4.7,1.2,6.9c-0.9,1.4-2.5,2.2-4.1,2.2
					c-1,0-1.9-0.3-2.7-0.8c-2.3-1.5-3-4.6-1.5-6.9c0-0.1,0.1-0.2,0.2-0.2C260.9,334.9,262.4,334.1,264,334.1 M264,333.1
					c-1.9,0-3.7,0.9-4.9,2.5c-0.1,0.1-0.1,0.2-0.2,0.3c-1.8,2.8-1,6.5,1.8,8.3c1,0.6,2.1,0.9,3.2,0.9c1.9,0,3.8-0.9,5-2.6
					c1.9-2.7,1.2-6.4-1.5-8.3C266.4,333.4,265.2,333.1,264,333.1L264,333.1z"/>
			</g>
		</g>
		<g>
			<g>
				<path class="st2" d="M666.4,485c-2.1,0-4-1.2-4.9-3l-0.1-0.1c-0.6-1.3-0.7-2.8-0.3-4.2s1.5-2.5,2.8-3.2c0.8-0.4,1.6-0.6,2.4-0.6
					c2.1,0,4,1.2,4.9,3.1c0.7,1.4,0.8,2.9,0.3,4.3c-0.5,1.4-1.4,2.5-2.8,3.2C668.1,484.8,667.3,485,666.4,485z M655.6,463.8
					c-2.1,0-4-1.2-4.9-3c-1.4-2.7-0.4-6,2.3-7.4c0.8-0.4,1.7-0.6,2.6-0.6c2,0,3.9,1.1,4.9,2.9l0.1,0.2c1.4,2.7,0.3,6-2.4,7.4
					C657.3,463.6,656.5,463.8,655.6,463.8z M644.2,442.9c-2,0-3.9-1.1-4.8-2.8c-0.7-1.3-0.9-2.8-0.5-4.2s1.3-2.6,2.6-3.3
					c0.8-0.5,1.8-0.7,2.7-0.7c2,0,3.8,1.1,4.8,2.8l0.1,0.2c1.5,2.6,0.5,6-2.2,7.5C646.1,442.6,645.1,442.9,644.2,442.9z M632,422.4
					c-1.9,0-3.6-1-4.7-2.6c-1.6-2.6-0.9-6,1.7-7.6c0.9-0.6,1.9-0.9,3-0.9c1.9,0,3.6,0.9,4.6,2.5c1.7,2.6,0.9,6.1-1.7,7.7
					C634,422.1,633,422.4,632,422.4z M618.8,402.6c-1.8,0-3.5-0.9-4.5-2.4c-1.8-2.5-1.2-5.9,1.2-7.7c0.9-0.7,2.1-1,3.2-1
					c1.8,0,3.4,0.9,4.5,2.3l0.1,0.2c1.7,2.5,1.1,5.9-1.4,7.7C621,402.3,619.9,402.6,618.8,402.6z M604.4,383.6c-1.6,0-3.2-0.7-4.2-2
					l-0.1-0.1c-1-1.2-1.4-2.6-1.2-4.1c0.2-1.5,0.9-2.8,2-3.7c1-0.8,2.2-1.2,3.5-1.2c1.7,0,3.2,0.7,4.3,2c1.9,2.4,1.6,5.8-0.7,7.8
					C606.9,383.2,605.6,383.6,604.4,383.6z M588.8,365.7c-1.5,0-3-0.6-4-1.8c-2.1-2.2-1.9-5.7,0.3-7.8c1-1,2.4-1.5,3.8-1.5
					c1.5,0,2.9,0.6,4,1.7l0.1,0.1c2.1,2.2,1.9,5.7-0.3,7.8C591.5,365.2,590.1,365.7,588.8,365.7z M571.9,348.9
					c-1.4,0-2.8-0.5-3.8-1.5c-1.1-1-1.7-2.4-1.8-3.8c-0.1-1.5,0.5-2.9,1.5-3.9c1-1.1,2.5-1.8,4-1.8c1.4,0,2.7,0.5,3.7,1.5l0.2,0.1
					c2.2,2.1,2.3,5.6,0.2,7.8C574.8,348.3,573.4,348.9,571.9,348.9z M553.8,333.3c-1.3,0-2.4-0.4-3.4-1.2l-0.1-0.1
					c-1.1-0.9-1.9-2.2-2-3.7c-0.2-1.5,0.3-2.9,1.2-4c1-1.3,2.6-2,4.3-2c1.3,0,2.5,0.4,3.5,1.2c1.2,1,1.9,2.3,2.1,3.7
					c0.2,1.5-0.2,2.9-1.2,4C557.1,332.6,555.5,333.3,553.8,333.3z M279.1,326.3c-1.4,0-2.7-0.5-3.8-1.5c-1.1-1-1.7-2.4-1.7-3.8
					c0-1.5,0.5-2.9,1.5-3.9c1.1-1.2,2.5-1.8,4.1-1.8c1.4,0,2.7,0.5,3.7,1.5c2.2,2.1,2.4,5.5,0.3,7.8l-0.1,0.1
					C282.1,325.7,280.7,326.3,279.1,326.3z M534.7,319.1c-1.1,0-2.2-0.3-3.2-1c-2.5-1.8-3.1-5.2-1.4-7.7c1-1.5,2.7-2.4,4.5-2.4
					c1.1,0,2.2,0.3,3.1,1l0.1,0.1c2.5,1.7,3.1,5.2,1.3,7.7C538.2,318.2,536.5,319.1,534.7,319.1z M296.3,309.6
					c-1.6,0-3.1-0.7-4.1-1.9c-2-2.3-1.8-5.7,0.5-7.7l0.1-0.1c1-0.9,2.3-1.3,3.6-1.3c1.6,0,3.1,0.7,4.2,1.9c2,2.3,1.7,5.8-0.6,7.8
					C298.9,309.1,297.6,309.6,296.3,309.6z M514.8,306.1c-1.1,0-2.1-0.3-3-0.9c-1.3-0.8-2.1-2-2.5-3.4c-0.3-1.4-0.1-2.9,0.6-4.2
					c1-1.7,2.8-2.6,4.7-2.6c1,0,2,0.3,2.9,0.8l0.2,0.1c1.2,0.8,2.1,2,2.4,3.5c0.3,1.4,0,2.9-0.7,4.1
					C518.4,305.1,516.7,306.1,514.8,306.1z M315,295c-1.8,0-3.5-0.9-4.6-2.4c-1.7-2.5-1-5.9,1.5-7.6c1-0.7,2.1-1,3.2-1
					c1.8,0,3.4,0.9,4.5,2.3c0.9,1.2,1.2,2.6,1,4.1c-0.2,1.5-1,2.7-2.2,3.6l-0.2,0.1C317.2,294.7,316.1,295,315,295z M335.5,282.7
					c-2.1,0-4-1.1-4.9-3c-1.4-2.7-0.4-6,2.3-7.4c0.9-0.5,1.7-0.7,2.6-0.7c2.1,0,3.9,1.1,4.9,3c0.7,1.3,0.8,2.8,0.4,4.2
					c-0.4,1.4-1.4,2.5-2.7,3.2C337.3,282.5,336.4,282.7,335.5,282.7z M357.4,273.4c-2.4,0-4.5-1.5-5.2-3.7c-1-2.9,0.6-6,3.4-6.9
					l0.2-0.1c0.6-0.2,1.1-0.3,1.7-0.3c2.4,0,4.5,1.5,5.2,3.8c0.9,2.9-0.6,6-3.5,6.9C358.6,273.3,358,273.4,357.4,273.4z
					 M380.5,267.6c-2.7,0-5-2-5.5-4.6c-0.5-3,1.5-5.8,4.5-6.3l0.1,0c0.3,0,0.6-0.1,0.9-0.1c2.7,0,5,2,5.4,4.6c0.2,1.5-0.1,2.9-1,4.1
					s-2.1,2-3.6,2.2C381.1,267.6,380.8,267.6,380.5,267.6z M404.2,265.8c-3.1,0-5.6-2.5-5.5-5.6c0-3,2.5-5.4,5.5-5.4l0.1,0
					c3,0,5.5,2.5,5.5,5.5C409.7,263.4,407.3,265.8,404.2,265.8L404.2,265.8z"/>
				<path class="st3" d="M404.2,255.3l0.1,0c2.8,0,5,2.3,5,5c0,2.7-2.2,5-5,5l-0.1,0l-0.1,0c-2.8,0-5-2.3-4.9-5.1
					C399.2,257.5,401.5,255.3,404.2,255.3 M380.6,257.1L380.6,257.1c2.4,0,4.5,1.8,4.9,4.2c0.2,1.3-0.1,2.6-0.9,3.7s-1.9,1.8-3.3,2
					c-0.3,0-0.5,0.1-0.8,0.1c-2.4,0-4.6-1.8-5-4.2c-0.4-2.7,1.4-5.3,4-5.7l0.1,0l0.1,0C380,257.2,380.3,257.1,380.6,257.1
					 M357.5,262.9L357.5,262.9c2.2,0,4.1,1.4,4.8,3.4c0.9,2.6-0.6,5.5-3.2,6.3c-0.5,0.2-1,0.3-1.6,0.3c-2.2,0-4.1-1.4-4.8-3.4
					c-0.9-2.6,0.5-5.4,3.1-6.3l0.1,0l0.1,0C356.4,263,356.9,262.9,357.5,262.9 M335.5,272.2L335.5,272.2c1.9,0,3.6,1,4.4,2.7
					c0.6,1.2,0.7,2.5,0.3,3.8c-0.4,1.3-1.3,2.3-2.5,2.9c-0.7,0.4-1.5,0.6-2.3,0.6c-1.9,0-3.6-1-4.5-2.7c-1.3-2.4-0.3-5.5,2.1-6.7
					l0.1,0C334,272.4,334.7,272.2,335.5,272.2 M315.1,284.4L315.1,284.4c1.6,0,3.1,0.8,4.1,2.1c0.8,1.1,1.1,2.4,0.9,3.7
					c-0.2,1.3-0.9,2.5-2,3.3c0,0-0.2,0.1-0.2,0.1c-0.8,0.6-1.8,0.9-2.8,0.9c-1.7,0-3.2-0.8-4.1-2.2c-1.5-2.3-1-5.4,1.4-7
					C313.1,284.8,314.1,284.4,315.1,284.4 M514.7,295.5L514.7,295.5c0.9,0,1.8,0.3,2.6,0.7c0,0,0.2,0.1,0.2,0.1
					c1.1,0.7,1.9,1.8,2.2,3.1c0.3,1.3,0,2.6-0.7,3.8c-0.9,1.4-2.5,2.3-4.2,2.3c-1,0-1.9-0.3-2.7-0.8c-1.1-0.7-1.9-1.8-2.3-3.1
					c-0.3-1.3-0.1-2.6,0.6-3.8C511.3,296.4,512.9,295.5,514.7,295.5 M296.3,299.1c1.5,0,2.8,0.6,3.8,1.7c1.8,2.1,1.6,5.2-0.5,7.1
					c-0.9,0.8-2.1,1.2-3.3,1.2c-1.4,0-2.8-0.6-3.8-1.7c-1.8-2.1-1.6-5.2,0.4-7l0.1-0.1l0.1,0C293.9,299.5,295.1,299.1,296.3,299.1
					 M534.7,308.5L534.7,308.5c1,0,2,0.3,2.8,0.9l0.1,0.1l0,0c2.3,1.6,2.8,4.7,1.2,7c-0.9,1.3-2.5,2.1-4.1,2.1c-1,0-2-0.3-2.9-0.9
					c-2.3-1.6-2.8-4.7-1.3-7C531.6,309.3,533.1,308.5,534.7,308.5 M279.2,315.7L279.2,315.7c1.3,0,2.5,0.5,3.4,1.3
					c2,1.9,2.2,5,0.3,7l-0.1,0.1c-1,1-2.2,1.6-3.6,1.6c-1.3,0-2.5-0.5-3.4-1.4c-1-0.9-1.5-2.2-1.6-3.5c0-1.3,0.4-2.6,1.4-3.6
					C276.5,316.3,277.8,315.7,279.2,315.7 M553.8,322.8L553.8,322.8c1.2,0,2.2,0.4,3.1,1.1l0.1,0c1,0.8,1.7,2,1.9,3.3
					s-0.2,2.6-1.1,3.7c-1,1.2-2.4,1.9-3.9,1.9c-1.1,0-2.2-0.4-3.1-1.1l-0.1,0l-0.1,0c-1-0.8-1.7-2-1.8-3.4c-0.1-1.3,0.2-2.6,1.1-3.7
					C550.8,323.5,552.2,322.8,553.8,322.8 M571.8,338.3L571.8,338.3c1.3,0,2.5,0.5,3.4,1.3l0.1,0.1c2,1.9,2.1,5.1,0.2,7.1
					c-1,1-2.2,1.5-3.6,1.5c-1.3,0-2.5-0.5-3.5-1.4c-1-0.9-1.6-2.1-1.6-3.5c-0.1-1.3,0.4-2.6,1.3-3.6
					C569,338.9,570.4,338.3,571.8,338.3 M588.7,355.1c1.4,0,2.6,0.6,3.6,1.6l0.1,0.1c1.9,2,1.7,5.2-0.3,7.1
					c-0.9,0.9-2.1,1.3-3.4,1.3c-1.4,0-2.7-0.6-3.7-1.6c-1.9-2-1.8-5.2,0.2-7.1C586.3,355.6,587.5,355.1,588.7,355.1 M604.3,373.1
					L604.3,373.1c1.5,0,2.9,0.7,3.9,1.9c1.7,2.1,1.4,5.3-0.7,7c-0.9,0.7-2,1.1-3.2,1.1c-1.5,0-2.9-0.7-3.8-1.8l-0.1-0.1l0-0.1
					c-1.7-2.1-1.4-5.3,0.7-7C602.1,373.5,603.2,373.1,604.3,373.1 M618.7,392c1.6,0,3.1,0.8,4.1,2.1l0.1,0.2c0.8,1.1,1,2.4,0.8,3.7
					c-0.2,1.3-1,2.5-2.1,3.2c-0.8,0.6-1.8,0.9-2.8,0.9c-1.6,0-3.2-0.8-4.1-2.2c-1.6-2.2-1.1-5.3,1.1-7
					C616.6,392.4,617.6,392,618.7,392 M632,411.9L632,411.9c1.7,0,3.3,0.9,4.2,2.3l0.1,0.1c0.7,1.1,0.9,2.5,0.6,3.8
					c-0.3,1.3-1.1,2.4-2.2,3.1c-0.8,0.5-1.7,0.8-2.7,0.8c-1.7,0-3.3-0.9-4.2-2.3c-1.5-2.4-0.8-5.5,1.5-6.9
					C630.1,412.1,631,411.9,632,411.9 M644.2,432.3L644.2,432.3c1.8,0,3.5,1,4.3,2.5l0.1,0.2c1.3,2.4,0.5,5.5-2,6.8
					c-0.7,0.4-1.6,0.6-2.4,0.6c-1.8,0-3.5-1-4.4-2.6c-1.4-2.4-0.5-5.4,1.8-6.8C642.4,432.5,643.3,432.3,644.2,432.3 M655.6,453.2
					c1.9,0,3.6,1,4.4,2.7l0.1,0.2c1.2,2.5,0.3,5.5-2.2,6.7c-0.7,0.4-1.5,0.5-2.3,0.5c-1.9,0-3.6-1-4.5-2.8c-1.3-2.4-0.4-5.5,2.1-6.8
					C653.9,453.4,654.8,453.2,655.6,453.2 M666.3,474.4c1.9,0,3.6,1.1,4.5,2.8l0,0.1c0.6,1.2,0.7,2.6,0.3,3.8
					c-0.4,1.3-1.3,2.3-2.5,2.9c-0.7,0.4-1.5,0.5-2.2,0.5c-1.9,0-3.6-1.1-4.5-2.8l-0.1-0.1c-0.6-1.2-0.7-2.6-0.2-3.8
					c0.4-1.3,1.3-2.3,2.5-2.9C664.8,474.6,665.6,474.4,666.3,474.4 M404.2,254.3c-3.3,0-5.9,2.6-6,5.9c0,3.3,2.6,6,5.9,6.1
					c0,0,0.2,0,0.2,0c3.3,0,6-2.7,6-6s-2.7-6-6-6L404.2,254.3C404.2,254.3,404.2,254.3,404.2,254.3L404.2,254.3z M380.6,256.1
					c-0.3,0-0.6,0-1,0.1c0,0-0.1,0-0.1,0c-3.3,0.5-5.4,3.6-4.9,6.9c0.5,2.9,3.1,5,6,5c0.3,0,0.6,0,1-0.1c3.3-0.5,5.5-3.6,5-6.9
					C386,258.2,383.4,256.1,380.6,256.1L380.6,256.1z M357.5,261.9c-0.6,0-1.3,0.1-1.9,0.3c0,0-0.1,0-0.2,0.1
					c-3.1,1.1-4.7,4.4-3.7,7.6c0.8,2.5,3.2,4.1,5.7,4.1c0.6,0,1.3-0.1,1.9-0.3c3.1-1,4.9-4.4,3.8-7.6
					C362.3,263.5,360,261.9,357.5,261.9L357.5,261.9z M335.5,271.2c-0.9,0-1.9,0.2-2.7,0.7l-0.1,0c-2.9,1.5-4.1,5.1-2.5,8.1
					c1.1,2.1,3.2,3.2,5.4,3.2c0.9,0,1.9-0.2,2.8-0.7c2.9-1.5,4.1-5.1,2.6-8.1C339.8,272.4,337.7,271.2,335.5,271.2L335.5,271.2z
					 M315.1,283.4c-1.2,0-2.4,0.4-3.5,1.1l0,0c-2.7,1.9-3.5,5.6-1.6,8.3c1.2,1.7,3,2.6,5,2.6c1.2,0,2.3-0.3,3.4-1
					c0,0,0.2-0.1,0.2-0.2c2.7-1.9,3.3-5.7,1.4-8.4C318.8,284.3,317,283.4,315.1,283.4L315.1,283.4z M514.7,294.5c-2,0-4,1-5.1,2.9
					c-1.7,2.8-0.8,6.5,2,8.2c1,0.6,2.1,1,3.2,1c2,0,3.9-1,5.1-2.8c1.8-2.8,1-6.5-1.8-8.3c0,0-0.2-0.1-0.2-0.1
					C516.9,294.8,515.8,294.5,514.7,294.5L514.7,294.5z M296.3,298.1c-1.4,0-2.8,0.5-3.9,1.5c0,0-0.1,0.1-0.1,0.1
					c-2.5,2.2-2.7,5.9-0.5,8.4c1.2,1.4,2.8,2,4.5,2c1.4,0,2.8-0.5,4-1.5c2.5-2.2,2.8-6,0.6-8.5C299.7,298.8,298,298.1,296.3,298.1
					L296.3,298.1z M534.7,307.5c-1.9,0-3.7,0.9-4.9,2.6c-1.9,2.7-1.2,6.5,1.5,8.4c1,0.7,2.3,1.1,3.4,1.1c1.9,0,3.7-0.9,4.9-2.5
					c1.9-2.7,1.3-6.5-1.5-8.4c0,0-0.1-0.1-0.1-0.1C537.1,307.9,535.9,307.5,534.7,307.5L534.7,307.5z M279.2,314.7
					c-1.6,0-3.2,0.6-4.4,1.9l0,0c-2.3,2.4-2.1,6.2,0.3,8.5c1.2,1.1,2.6,1.6,4.1,1.6c1.6,0,3.2-0.6,4.4-1.9c0,0,0.1-0.1,0.1-0.1
					c2.2-2.4,2.1-6.2-0.4-8.5C282.1,315.2,280.6,314.7,279.2,314.7L279.2,314.7z M553.8,321.8c-1.8,0-3.5,0.8-4.7,2.2
					c-2.1,2.6-1.7,6.4,0.9,8.4c0,0,0.1,0.1,0.1,0.1c1.1,0.9,2.4,1.3,3.7,1.3c1.8,0,3.5-0.8,4.7-2.3c2.1-2.6,1.6-6.4-1-8.4l0,0
					C556.4,322.2,555.1,321.8,553.8,321.8L553.8,321.8z M571.8,337.3c-1.6,0-3.2,0.6-4.4,1.9c-2.2,2.4-2.1,6.2,0.3,8.5
					c1.2,1.1,2.7,1.7,4.2,1.7c1.6,0,3.2-0.6,4.3-1.8c2.3-2.4,2.2-6.2-0.2-8.5c0,0-0.1-0.1-0.2-0.2
					C574.7,337.8,573.2,337.3,571.8,337.3L571.8,337.3z M588.7,354.1c-1.5,0-2.9,0.5-4.1,1.6c-2.4,2.2-2.5,6.1-0.3,8.5
					c1.2,1.3,2.8,1.9,4.4,1.9c1.5,0,2.9-0.5,4.1-1.6c2.4-2.2,2.6-6,0.4-8.5c0,0-0.1-0.1-0.1-0.1
					C591.9,354.8,590.3,354.1,588.7,354.1L588.7,354.1z M604.3,372.1c-1.3,0-2.7,0.4-3.8,1.3c-2.6,2.1-3,5.9-0.9,8.4
					c0,0,0.1,0.1,0.1,0.1c1.2,1.4,2.9,2.2,4.6,2.2c1.3,0,2.7-0.5,3.8-1.4c2.6-2.1,2.9-5.9,0.8-8.4l0,0
					C607.8,372.8,606.1,372.1,604.3,372.1L604.3,372.1z M618.7,391c-1.2,0-2.5,0.4-3.5,1.1c-2.7,1.9-3.3,5.7-1.3,8.4
					c1.2,1.7,3,2.6,4.9,2.6c1.2,0,2.4-0.3,3.4-1.1c2.7-1.9,3.4-5.6,1.5-8.3c0,0-0.1-0.2-0.1-0.2C622.4,391.9,620.5,391,618.7,391
					L618.7,391z M632,410.9c-1.1,0-2.2,0.3-3.2,0.9c-2.8,1.8-3.6,5.5-1.8,8.3c1.1,1.8,3.1,2.8,5.1,2.8c1.1,0,2.2-0.3,3.2-0.9
					c2.8-1.8,3.6-5.5,1.9-8.3l-0.1-0.1C635.9,411.8,634,410.9,632,410.9L632,410.9z M644.2,431.3c-1,0-2,0.3-3,0.8
					c-2.9,1.7-3.9,5.3-2.2,8.2c1.1,2,3.1,3.1,5.3,3.1c1,0,2-0.2,2.9-0.7c2.9-1.6,4-5.3,2.4-8.2c0,0-0.1-0.2-0.1-0.2
					C648.3,432.4,646.2,431.3,644.2,431.3L644.2,431.3z M655.6,452.2c-1,0-1.9,0.2-2.8,0.7c-2.9,1.6-4,5.2-2.5,8.1
					c1.1,2.1,3.2,3.3,5.4,3.3c0.9,0,1.8-0.2,2.7-0.7c3-1.5,4.1-5.1,2.6-8.1c0,0-0.1-0.2-0.1-0.2
					C659.8,453.3,657.7,452.2,655.6,452.2L655.6,452.2z M666.3,473.4c-0.9,0-1.8,0.2-2.6,0.6c-3,1.5-4.2,5.1-2.7,8
					c0,0,0.1,0.1,0.1,0.1c1.1,2.1,3.2,3.3,5.4,3.3c0.9,0,1.8-0.2,2.7-0.6c3-1.5,4.2-5.1,2.7-8l0-0.1
					C670.7,474.7,668.6,473.4,666.3,473.4L666.3,473.4z"/>
			</g>
		</g>
	</g>
	<g class="st1">
		<polygon class="st68" points="436.4,218.2 453.9,201.4 468.3,203.8 487.4,227.7 490.6,262 465.1,286.6 451.6,286.6 433.2,262 		
			"/>
		<g>
			<path d="M490.4,285.2h0.7c0.3,0,0.5-0.1,0.6-0.2c0.2-0.1,0.2-0.3,0.2-0.5c0-0.5-0.3-0.7-0.8-0.7h-0.7V285.2z M491.7,287l-0.8-1.5
				h-0.5v1.5h-0.5v-3.7h1.3c0.2,0,0.3,0,0.5,0.1c0.1,0.1,0.3,0.1,0.4,0.2c0.1,0.1,0.2,0.2,0.3,0.4c0.1,0.1,0.1,0.3,0.1,0.4
				c0,0.2-0.1,0.5-0.2,0.7c-0.1,0.2-0.3,0.3-0.6,0.4l-0.2,0.1l0.9,1.5H491.7z M491,282.1c-0.4,0-0.8,0.1-1.2,0.2
				c-0.4,0.2-0.7,0.4-1,0.7c-0.3,0.3-0.5,0.6-0.6,1c-0.2,0.4-0.2,0.8-0.2,1.2s0.1,0.8,0.2,1.2c0.2,0.4,0.4,0.7,0.6,1
				c0.3,0.3,0.6,0.5,1,0.7c0.4,0.2,0.8,0.2,1.2,0.2s0.8-0.1,1.2-0.2c0.4-0.2,0.7-0.4,1-0.7c0.3-0.3,0.5-0.6,0.6-1s0.2-0.8,0.2-1.2
				s-0.1-0.8-0.2-1.2c-0.2-0.4-0.4-0.7-0.6-1c-0.3-0.3-0.6-0.5-1-0.7C491.8,282.2,491.4,282.1,491,282.1 M491,288.7
				c-0.5,0-1-0.1-1.4-0.3c-0.4-0.2-0.8-0.4-1.1-0.8c-0.3-0.3-0.6-0.7-0.8-1.1c-0.2-0.4-0.3-0.9-0.3-1.4s0.1-0.9,0.3-1.4
				c0.2-0.4,0.4-0.8,0.8-1.1c0.3-0.3,0.7-0.6,1.1-0.8c0.4-0.2,0.9-0.3,1.4-0.3c0.5,0,1,0.1,1.4,0.3c0.4,0.2,0.8,0.4,1.1,0.8
				c0.3,0.3,0.6,0.7,0.8,1.1c0.2,0.4,0.3,0.9,0.3,1.4c0,0.5-0.1,0.9-0.3,1.4c-0.2,0.4-0.4,0.8-0.8,1.1c-0.3,0.3-0.7,0.6-1.1,0.8
				C491.9,288.6,491.5,288.7,491,288.7"/>
			<path d="M461,288.9c19.9,0,33.7-9.5,33.7-45.7S481,197.6,461,197.6c-19.9,0-33.7,9.5-33.7,45.7S441.1,288.9,461,288.9
				 M456.7,243.3l-16.3-16.4l4.7-4.7l13,13V204l23.7,23.7l-15.6,15.6l15.6,15.6l-23.7,23.7v-31.2l-13,13l-4.7-4.7L456.7,243.3z
				 M464.7,266.4l7.6-7.6l-7.5-7.5L464.7,266.4z M464.7,220.2l7.6,7.6l-7.5,7.5L464.7,220.2z"/>
		</g>
	</g>
	<g class="st1">
		<g>
			<circle class="st2" cx="250.9" cy="365.8" r="11.8"/>
		</g>
		<g>
			<path class="st3" d="M250.9,354.5c6.2,0,11.3,5.1,11.3,11.3s-5.1,11.3-11.3,11.3c-6.2,0-11.3-5.1-11.3-11.3
				S244.7,354.5,250.9,354.5 M250.9,353.5c-6.8,0-12.3,5.5-12.3,12.3s5.5,12.3,12.3,12.3s12.3-5.5,12.3-12.3
				S257.7,353.5,250.9,353.5L250.9,353.5z"/>
		</g>
	</g>
	<g class="st1">
		<path class="st69" d="M248.4,361.1c0.9-0.1,1.7-0.4,2.3-0.9h1.6v11.5h-2.1v-9c-0.6,0.3-1.2,0.4-1.8,0.4V361.1z"/>
	</g>
</g>
<g id="Layer_4">
	<g>
		<g>
			<path class="st2" d="M711.2,521c-2.8,0-5.3-1.9-5.9-4.8c-0.7-3.2,1.3-6.4,4.6-7.2c3.2-0.7,6.4,1.3,7.1,4.5l0,0.2
				c0.7,3.2-1.4,6.4-4.7,7.1C712,521,711.6,521,711.2,521z M698.4,474.5c-2.6,0-4.9-1.6-5.7-4.2l0-0.1c-1-3.2,0.8-6.5,4-7.5
				c3.2-1,6.5,0.8,7.5,4c1,3.2-0.8,6.6-4,7.5C699.5,474.4,698.9,474.5,698.4,474.5z M691,451.6c-2.6,0-4.9-1.7-5.7-4.2l0,0
				c-1.1-3.1,0.6-6.5,3.8-7.6c3.1-1.1,6.6,0.7,7.6,3.8c0,0.1,0.1,0.2,0.1,0.3c1,3.2-0.8,6.5-4,7.5
				C692.2,451.5,691.6,451.6,691,451.6z M684.2,428.4c-2.6,0-5.1-1.8-5.8-4.4l0-0.1c-0.9-3.2,1-6.5,4.2-7.4c3.2-0.9,6.5,1,7.4,4.2
				l0,0.1c0.9,3.2-1,6.5-4.2,7.4C685.3,428.4,684.8,428.4,684.2,428.4z M678.2,405c-2.7,0-5.1-1.8-5.8-4.5c0,0,0-0.1,0-0.1
				c-0.8-3.2,1.2-6.5,4.4-7.2c3.2-0.8,6.5,1.2,7.2,4.4c0.8,3.2-1.2,6.5-4.4,7.3C679.1,405,678.7,405,678.2,405z M672.8,381.5
				c-2.8,0-5.3-1.9-5.9-4.8c-0.7-3.2,1.2-6.4,4.4-7.2c3.2-0.8,6.5,1.2,7.3,4.4c0,0.1,0.1,0.2,0.1,0.3c0.7,3.2-1.4,6.4-4.7,7.1
				C673.6,381.5,673.2,381.5,672.8,381.5z"/>
			<path class="st3" d="M711.2,521.5c-3.1,0-5.7-2.2-6.3-5.2c-0.7-3.5,1.5-7,5-7.7c3.5-0.8,7,1.4,7.7,4.9l0,0.2
				c0.7,3.5-1.6,7-5.1,7.7C712.1,521.5,711.6,521.5,711.2,521.5z M711.2,509.4c-0.4,0-0.8,0-1.2,0.1c-2.9,0.6-4.8,3.6-4.2,6.6
				c0.5,2.5,2.8,4.4,5.4,4.4c0.4,0,0.7,0,1.1-0.1c3-0.6,4.9-3.5,4.3-6.5l0-0.2C716,511.2,713.7,509.4,711.2,509.4z M698.4,475
				c-2.9,0-5.3-1.8-6.2-4.5c-1.1-3.5,0.8-7.2,4.3-8.2c3.4-1.1,7.1,0.9,8.1,4.3c1.1,3.5-0.9,7.1-4.3,8.2
				C699.7,474.9,699,475,698.4,475z M698.4,462.9c-0.5,0-1.1,0.1-1.6,0.2c-2.9,0.9-4.5,4-3.6,6.9c0.7,2.4,2.8,3.9,5.2,3.9
				c0.6,0,1.1-0.1,1.6-0.2c2.9-0.9,4.5-4,3.6-6.9C702.9,464.5,700.7,462.9,698.4,462.9z M691,452.1c-2.9,0-5.4-1.8-6.2-4.6
				c-0.6-1.6-0.4-3.4,0.3-4.9c0.8-1.5,2.1-2.7,3.7-3.3c3.4-1.2,7.1,0.7,8.3,4.1l0.1,0.3c1.1,3.4-0.9,7.1-4.3,8.1
				C692.3,452,691.6,452.1,691,452.1z M690.9,440c-0.6,0-1.2,0.1-1.7,0.3c-2.9,1-4.4,4.1-3.5,6.9c0.7,2.4,2.8,3.9,5.3,3.9
				c0.5,0,1.1-0.1,1.6-0.2c2.9-0.9,4.5-4,3.6-6.9l-0.1-0.2C695.4,441.4,693.2,440,690.9,440z M684.2,428.9c-2.9,0-5.5-2-6.3-4.8
				l0-0.1c-0.9-3.5,1.1-7,4.6-8c1.7-0.5,3.4-0.2,4.9,0.6c1.5,0.9,2.6,2.3,3,3.9l0,0.1c0.9,3.5-1.1,7-4.6,8
				C685.4,428.9,684.8,428.9,684.2,428.9z M684.2,416.8c-0.5,0-1,0.1-1.5,0.2c-2.9,0.8-4.7,3.8-3.9,6.8l0,0.1
				c0.7,2.4,2.8,4.1,5.3,4.1c0.5,0,1-0.1,1.5-0.2c2.9-0.8,4.7-3.8,3.9-6.8l0-0.1c-0.4-1.4-1.3-2.6-2.6-3.3
				C686.1,417.1,685.2,416.8,684.2,416.8z M678.2,405.5c-3,0-5.6-2-6.3-4.9l0.5-0.2l-0.5,0.1c-0.4-1.7-0.1-3.4,0.8-4.9
				c0.9-1.5,2.3-2.5,4-2.9c3.5-0.8,7,1.3,7.8,4.8c0.8,3.5-1.3,7-4.8,7.9C679.2,405.5,678.7,405.5,678.2,405.5z M672.9,400.4
				c0.6,2.5,2.8,4.2,5.3,4.2c0.4,0,0.9-0.1,1.3-0.2c2.9-0.7,4.8-3.7,4.1-6.7c-0.7-2.9-3.7-4.8-6.6-4.1c-1.4,0.3-2.6,1.2-3.4,2.5
				c-0.8,1.3-1,2.7-0.7,4.2l-0.5,0.2L672.9,400.4z M672.8,382c-3.1,0-5.7-2.2-6.4-5.2c-0.8-3.4,1.4-6.9,4.8-7.8
				c3.5-0.9,7,1.3,7.9,4.8c0,0.1,0.1,0.3,0.1,0.3c0.7,3.5-1.5,7-5.1,7.7C673.7,382,673.2,382,672.8,382z M672.8,369.9
				c-0.4,0-0.9,0.1-1.3,0.2c-2.9,0.7-4.7,3.7-4,6.6c0.5,2.5,2.8,4.4,5.4,4.4c0.4,0,0.7,0,1.1-0.1c3-0.6,4.9-3.5,4.3-6.5
				c0-0.1-0.1-0.2-0.1-0.3C677.5,371.6,675.2,369.9,672.8,369.9z"/>
		</g>
	</g>
	<g>
		<g>
			<g>
				<path class="st2" d="M749.9,519.8c-1,0-2.1-0.3-2.9-0.9c-2.6-1.6-3.3-5-1.7-7.6c1.1-1.7,2.8-2.6,4.7-2.6c1,0,2.1,0.3,3,0.9
					c1.2,0.8,2.1,2,2.4,3.5c0.3,1.4,0.1,2.9-0.7,4.1C753.6,518.9,751.8,519.8,749.9,519.8z M763,499.6c-1,0-2.1-0.3-2.9-0.9
					c-2.6-1.6-3.3-5-1.7-7.6l0.1-0.1c1-1.6,2.8-2.5,4.6-2.5c1,0,2.1,0.3,2.9,0.9c2.6,1.6,3.3,5,1.7,7.6l-0.1,0.1
					C766.6,498.6,764.9,499.6,763,499.6z M776,479.3c-1,0-2.1-0.3-2.9-0.9c-2.6-1.6-3.3-5-1.7-7.6c1.1-1.7,2.8-2.6,4.7-2.6
					c1,0,2.1,0.3,3,0.9c1.2,0.8,2.1,2,2.4,3.5c0.3,1.4,0.1,2.9-0.7,4.1C779.6,478.3,777.9,479.3,776,479.3z M789,459
					c-1,0-2.1-0.3-2.9-0.9c-2.6-1.6-3.3-5-1.7-7.6l0.1-0.1c1-1.6,2.8-2.5,4.6-2.5c1,0,2.1,0.3,2.9,0.9c2.6,1.6,3.3,5,1.7,7.6
					l-0.1,0.1C792.6,458.1,790.9,459,789,459z M802,438.7c-1,0-2.1-0.3-2.9-0.9c-2.6-1.6-3.3-5-1.7-7.6c1.1-1.7,2.8-2.6,4.7-2.6
					c1,0,2.1,0.3,3,0.9c1.2,0.8,2.1,2,2.4,3.5c0.3,1.4,0.1,2.9-0.7,4.1C805.7,437.7,803.9,438.7,802,438.7z M815,418.5
					c-1,0-2.1-0.3-2.9-0.9c-2.6-1.6-3.3-5-1.7-7.6l0.1-0.1c1-1.6,2.8-2.6,4.6-2.6c1,0,2.1,0.3,2.9,0.9c2.6,1.6,3.3,5,1.7,7.6
					l-0.1,0.1C818.7,417.5,816.9,418.5,815,418.5z"/>
			</g>
			<g>
				<path class="st3" d="M815.1,407.9L815.1,407.9c0.9,0,1.9,0.3,2.7,0.8c2.3,1.5,3,4.6,1.5,6.9l-0.1,0.1c-0.9,1.5-2.5,2.3-4.2,2.3
					c-0.9,0-1.9-0.3-2.7-0.8c-2.3-1.5-3-4.6-1.5-6.9l0.1-0.1C811.8,408.8,813.4,407.9,815.1,407.9 M802.1,428.2L802.1,428.2
					c1,0,1.9,0.3,2.7,0.8c1.1,0.7,1.9,1.8,2.2,3.1c0.3,1.3,0,2.6-0.7,3.8c-0.9,1.5-2.5,2.3-4.3,2.3c-0.9,0-1.9-0.3-2.7-0.8
					c-2.3-1.5-3-4.6-1.5-6.9l0.1-0.1C798.8,429,800.4,428.2,802.1,428.2 M789.1,448.5L789.1,448.5c0.9,0,1.9,0.3,2.7,0.8
					c2.3,1.5,3,4.6,1.5,6.9l-0.1,0.1c-0.9,1.5-2.5,2.3-4.2,2.3c-0.9,0-1.9-0.3-2.7-0.8c-2.3-1.5-3-4.6-1.5-6.9l0.1-0.1
					C785.8,449.3,787.3,448.5,789.1,448.5 M776,468.7L776,468.7c1,0,1.9,0.3,2.7,0.8c1.1,0.7,1.9,1.8,2.2,3.1c0.3,1.3,0,2.6-0.7,3.8
					c-0.9,1.5-2.5,2.3-4.3,2.3c-0.9,0-1.9-0.3-2.7-0.8c-2.3-1.5-3-4.6-1.5-6.9l0.1-0.1C772.8,469.6,774.3,468.7,776,468.7 M763,489
					L763,489c0.9,0,1.9,0.3,2.7,0.8c2.3,1.5,3,4.6,1.5,6.9l-0.1,0.1c-0.9,1.5-2.5,2.3-4.2,2.3c-0.9,0-1.9-0.3-2.7-0.8
					c-2.3-1.5-3-4.6-1.5-6.9l0.1-0.1C759.7,489.9,761.3,489,763,489 M750,509.3L750,509.3c1,0,1.9,0.3,2.7,0.8
					c1.1,0.7,1.9,1.8,2.2,3.1c0.3,1.3,0,2.6-0.7,3.8c-0.9,1.5-2.5,2.3-4.3,2.3c-0.9,0-1.9-0.3-2.7-0.8c-2.3-1.5-3-4.6-1.5-6.9
					l0.1-0.1C746.7,510.2,748.3,509.3,750,509.3 M815.1,406.9c-2,0-3.9,1-5.1,2.8l-0.1,0.1c-1.8,2.8-1,6.5,1.8,8.3
					c1,0.6,2.1,0.9,3.2,0.9c2,0,3.9-1,5.1-2.8l0.1-0.1c1.8-2.8,1-6.5-1.8-8.3C817.3,407.2,816.2,406.9,815.1,406.9L815.1,406.9z
					 M802.1,427.2c-2,0-3.9,1-5.1,2.8L797,430c-1.8,2.8-0.9,6.5,1.8,8.2c1,0.6,2.1,0.9,3.2,0.9c2,0,4-1,5.1-2.8
					c1.8-2.8,1-6.5-1.8-8.3C804.3,427.5,803.2,427.2,802.1,427.2L802.1,427.2z M789.1,447.5c-2,0-3.9,1-5.1,2.8l-0.1,0.1
					c-1.8,2.8-1,6.5,1.8,8.3c1,0.6,2.1,0.9,3.2,0.9c2,0,3.9-1,5.1-2.8l0.1-0.1c1.8-2.8,1-6.5-1.8-8.3
					C791.3,447.8,790.2,447.5,789.1,447.5L789.1,447.5z M776,467.7c-2,0-3.9,1-5.1,2.8l-0.1,0.1c-1.8,2.8-0.9,6.5,1.8,8.2
					c1,0.6,2.1,0.9,3.2,0.9c2,0,4-1,5.1-2.8c1.8-2.8,1-6.5-1.8-8.3C778.3,468,777.2,467.7,776,467.7L776,467.7z M763,488
					c-2,0-3.9,1-5.1,2.8l-0.1,0.1c-1.8,2.8-1,6.5,1.8,8.3c1,0.6,2.1,0.9,3.2,0.9c2,0,3.9-1,5.1-2.8l0.1-0.1c1.8-2.8,1-6.5-1.8-8.3
					C765.2,488.3,764.1,488,763,488L763,488z M750,508.3c-2,0-3.9,1-5.1,2.8l-0.1,0.1c-1.8,2.8-0.9,6.5,1.8,8.2
					c1,0.6,2.1,0.9,3.2,0.9c2,0,4-1,5.1-2.8c1.8-2.8,1-6.5-1.8-8.3C752.2,508.6,751.1,508.3,750,508.3L750,508.3z"/>
			</g>
		</g>
	</g>
	<g>
		<g>
			<g>
				<path class="st2" d="M728,524.9c-0.3-0.1-0.8-0.3-1.4-0.5c0.1-1,0.2-3.7,0-7.2c-0.3-3.9-0.9-7.5-3.3-15.9
					c-1.7-5.9-2.8-10.5-3.6-13.5c-0.3-1.1-0.5-1.9-0.7-2.6c1.2-1.1,2.8-1.7,4.4-1.7c0.4,0,0.9,0,1.3,0.1c2.1,0.4,3.8,1.8,4.7,3.7
					l2.2,4.9c1.1,2.4,3.5,3.9,6.1,3.9c0.8,0,1.6-0.1,2.3-0.4l5-1.9c0.7-0.3,1.5-0.4,2.3-0.4c0.3,0,0.5,0,0.8,0L728,524.9z"/>
			</g>
			<g>
				<path class="st3" d="M723.4,484c0.4,0,0.8,0,1.2,0.1c1.9,0.4,3.5,1.6,4.3,3.4l2.2,4.9c1.2,2.6,3.8,4.2,6.6,4.2
					c0.9,0,1.7-0.2,2.5-0.4l5-1.9c0.7-0.2,1.3-0.4,2-0.4l-19.6,30.3c-0.2-0.1-0.4-0.2-0.7-0.3c0.1-1.2,0.2-3.8-0.1-6.8
					c-0.3-3.9-0.9-7.5-3.3-16c-1.7-5.9-2.8-10.5-3.6-13.5c-0.2-0.9-0.4-1.7-0.6-2.3C720.6,484.5,722,484,723.4,484 M723.4,483
					c-1.8,0-3.4,0.7-4.8,1.9l-0.2,0.2c0.6,2.4,2,8,4.4,16.4c2.3,8.2,3,11.8,3.3,15.8c0.3,4.3,0,7.5,0,7.5c1.3,0.4,2.1,0.8,2.1,0.8
					l20.9-32.4c-0.5-0.1-1.1-0.2-1.6-0.2c-0.8,0-1.7,0.1-2.5,0.4l-5,1.9c-0.7,0.3-1.4,0.4-2.1,0.4c-2.4,0-4.7-1.4-5.7-3.6l-2.2-4.9
					c-1-2.1-2.8-3.5-5-4C724.3,483,723.9,483,723.4,483L723.4,483z"/>
			</g>
		</g>
		<g>
			<g>
				<path class="st2" d="M723.4,627.3c-1.6,0-3.2-0.6-4.4-1.8l-3.9-3.7c-1.2-1.2-2.9-1.8-4.6-1.8c-1.7,0-3.3,0.6-4.6,1.8l-3.9,3.7
					c-1.2,1.1-2.8,1.8-4.4,1.8c-0.4,0-0.9,0-1.3-0.1c-2.1-0.4-3.8-1.8-4.7-3.7l-2.2-4.9c-1.1-2.4-3.5-3.9-6.1-3.9
					c-0.8,0-1.6,0.1-2.3,0.4l-5,1.9c-0.7,0.3-1.5,0.4-2.3,0.4c-1.3,0-2.5-0.4-3.6-1.1c-1.8-1.2-2.8-3.1-2.9-5.2l-0.2-5.4
					c-0.1-3.5-3-6.3-6.5-6.5l-5.4-0.2c-2.1-0.1-4-1.1-5.2-2.9s-1.4-3.9-0.7-5.9l1.9-5c1.2-3.3-0.3-7-3.5-8.5l-4.9-2.2
					c-1.9-0.9-3.3-2.6-3.7-4.7s0.2-4.2,1.6-5.7l3.7-3.9c2.4-2.6,2.4-6.6,0-9.2l-3.7-3.9c-1.4-1.6-2-3.7-1.6-5.7s1.8-3.8,3.7-4.7
					l4.9-2.2c3.2-1.5,4.7-5.2,3.5-8.5l-1.9-5c-0.7-2-0.5-4.2,0.7-5.9c1.2-1.8,3.1-2.8,5.2-2.9l5.4-0.2c3.5-0.1,6.3-3,6.5-6.5
					l0.2-5.4c0.1-2.1,1.1-4,2.9-5.2c1.1-0.7,2.3-1.1,3.6-1.1c0.8,0,1.6,0.1,2.3,0.4l5,1.9c0.7,0.3,1.5,0.4,2.3,0.4
					c2.6,0,5.1-1.5,6.1-3.9l2.2-4.9c0.9-1.9,2.6-3.3,4.7-3.7c0.4-0.1,0.9-0.1,1.3-0.1c1.6,0,3.2,0.6,4.4,1.8l3.9,3.7
					c1.2,1.2,2.9,1.8,4.6,1.8c1.7,0,3.3-0.6,4.6-1.8l0.9-0.8c1.2,4.7,4.3,16.5,5.1,19.6c0.9,3.7,2.2,8.8,2.1,16.2
					c-0.1,0-0.1,0-0.2,0c-0.6,0-1.6,0.1-2.9,0.4c-1.4,0.3-6.2,1.5-10.8,4.3c-3.8,2.3-12.9,7.8-14.6,9.3c-1.4,1.3-2,2.4-2.2,2.9
					c-1.1,0.7-8.9,5.7-11.8,7.5c-3.1,2-5.4,3.8-6.1,7.6c-0.8,4.1,0,6.6,0.8,8.6c0.9,2.1,12.7,24.7,14.9,28.7
					c0.3,0.6,0.6,1.2,0.9,1.7c1.4,2.7,2.2,4.1,5.2,5.7c1.4,0.7,2.7,1.1,4.1,1.1c2.1,0,4.3-0.7,7.2-2.4c4-2.3,32.8-19.7,36.4-22
					c3.5-2.3,5.4-5.2,5.8-9.1c0.4-3.8-0.7-8.8-2.8-12.7c-2.9-5.3-7.2-13-10.2-18.5c-1.8-3.3-3.2-5.8-3.7-6.7
					c-0.7-1.3-1.5-2.3-1.8-2.8c0.7-1.2,3.4-5.9,9.6-15.5c4.4-6.9,8.4-13.1,10.9-17c1.5,1.2,2.3,2.9,2.4,4.8l0.2,5.4
					c0.1,3.5,3,6.3,6.5,6.5l5.4,0.2c2.1,0.1,4,1.1,5.2,2.9s1.4,3.9,0.7,5.9l-1.9,5c-1.2,3.3,0.3,7,3.5,8.5l4.9,2.2
					c1.9,0.9,3.3,2.6,3.7,4.7c0.4,2.1-0.2,4.2-1.6,5.7l-3.7,3.9c-2.4,2.6-2.4,6.6,0,9.2l3.7,3.9c1.4,1.6,2,3.7,1.6,5.7
					c-0.4,2.1-1.8,3.8-3.7,4.7l-4.9,2.2c-3.2,1.5-4.7,5.2-3.5,8.5l1.9,5c0.7,2,0.5,4.2-0.7,5.9c-1.2,1.8-3.1,2.8-5.2,2.9l-5.4,0.2
					c-3.5,0.1-6.3,3-6.5,6.5L754,611c-0.1,2.1-1.1,4-2.9,5.2c-1.1,0.7-2.3,1.1-3.6,1.1l0,0c-0.8,0-1.6-0.1-2.3-0.4l-5-1.9
					c-0.7-0.3-1.5-0.4-2.3-0.4c-2.6,0-5.1,1.5-6.1,3.9l-2.2,4.9c-0.9,1.9-2.6,3.3-4.7,3.7C724.3,627.2,723.8,627.3,723.4,627.3z"/>
			</g>
			<g>
				<path class="st3" d="M697.5,484L697.5,484c1.5,0,3,0.6,4.1,1.6l3.9,3.7c1.3,1.2,3.1,1.9,4.9,1.9c1.8,0,3.6-0.7,4.9-1.9l0.3-0.3
					c1.7,6.5,4.2,16,4.9,18.7c0.9,3.6,2.1,8.5,2.1,15.6c-0.6,0-1.5,0.1-2.7,0.4c-1.4,0.3-6.3,1.6-10.9,4.3c-4.8,2.8-13,7.8-14.7,9.4
					c-1.4,1.2-2,2.3-2.3,2.9c-1.5,0.9-8.9,5.6-11.6,7.4c-3.2,2.1-5.6,3.9-6.3,7.9c-0.8,4.3,0,7,0.8,8.9c1,2.3,13,25.3,14.9,28.8
					c0.3,0.6,0.6,1.2,0.9,1.7c1.4,2.7,2.2,4.3,5.4,6c1.4,0.8,2.9,1.1,4.4,1.1c2.2,0,4.4-0.8,7.4-2.5c4-2.3,32.8-19.7,36.5-22
					c3.7-2.4,5.6-5.4,6-9.5c0.4-3.9-0.7-9-2.9-13c-2.9-5.3-7.1-12.9-10.2-18.5c-1.8-3.3-3.2-5.9-3.7-6.8c-0.6-1.1-1.3-2-1.7-2.6
					c0.9-1.5,3.7-6.2,9.4-15.2c4.1-6.4,7.9-12.4,10.6-16.5c1.1,1.1,1.7,2.5,1.8,4.1l0.2,5.4c0.1,3.8,3.2,6.8,7,7l5.4,0.2
					c2,0.1,3.7,1.1,4.8,2.7c1.1,1.6,1.3,3.6,0.6,5.5l-1.9,5c-1.3,3.5,0.3,7.5,3.8,9.1l4.9,2.2c1.8,0.8,3,2.4,3.4,4.3
					c0.4,1.9-0.2,3.9-1.5,5.3l-3.7,3.9c-2.6,2.8-2.6,7.1,0,9.8l3.7,3.9c1.3,1.4,1.9,3.4,1.5,5.3c-0.4,1.9-1.6,3.5-3.4,4.3l-4.9,2.2
					c-3.4,1.6-5.1,5.6-3.8,9.1l1.9,5c0.7,1.8,0.4,3.8-0.6,5.5c-1.1,1.6-2.8,2.6-4.8,2.7l-5.4,0.2c-3.8,0.1-6.8,3.2-7,7l-0.2,5.4
					c-0.1,2-1.1,3.7-2.7,4.8c-1,0.7-2.2,1-3.4,1c-0.7,0-1.4-0.1-2.1-0.4l-5-1.9c-0.8-0.3-1.6-0.4-2.5-0.4c-2.8,0-5.4,1.7-6.6,4.2
					l-2.2,4.9c-0.8,1.8-2.4,3-4.3,3.4c-0.4,0.1-0.8,0.1-1.2,0.1c-1.5,0-3-0.6-4.1-1.6l-3.9-3.7c-1.3-1.2-3.1-1.9-4.9-1.9
					c-1.8,0-3.6,0.7-4.9,1.9l-3.9,3.7c-1.1,1-2.6,1.6-4.1,1.6c-0.4,0-0.8,0-1.2-0.1c-1.9-0.4-3.5-1.6-4.3-3.4l-2.2-4.9
					c-1.2-2.6-3.8-4.2-6.6-4.2c-0.9,0-1.7,0.2-2.5,0.4l-5,1.9c-0.7,0.3-1.4,0.4-2.1,0.4c-1.2,0-2.3-0.4-3.4-1
					c-1.6-1.1-2.6-2.8-2.7-4.8l-0.2-5.4c-0.1-3.8-3.2-6.8-7-7l-5.4-0.2c-2-0.1-3.7-1.1-4.8-2.7c-1.1-1.6-1.3-3.6-0.6-5.5l1.9-5
					c1.3-3.5-0.3-7.5-3.8-9.1l-4.9-2.2c-1.8-0.8-3-2.4-3.4-4.3c-0.4-1.9,0.2-3.9,1.5-5.3l3.7-3.9c2.6-2.8,2.6-7.1,0-9.8l-3.7-3.9
					c-1.3-1.4-1.9-3.4-1.5-5.3c0.4-1.9,1.6-3.5,3.4-4.3l4.9-2.2c3.4-1.6,5.1-5.6,3.8-9.1l-1.9-5c-0.7-1.8-0.4-3.8,0.6-5.5
					c1.1-1.6,2.8-2.6,4.8-2.7l5.4-0.2c3.8-0.1,6.8-3.2,7-7l0.2-5.4c0.1-2,1.1-3.7,2.7-4.8c1-0.7,2.2-1,3.4-1c0.7,0,1.4,0.1,2.1,0.4
					l5,1.9c0.8,0.3,1.6,0.4,2.5,0.4c2.8,0,5.4-1.7,6.6-4.2l2.2-4.9c0.8-1.8,2.4-3,4.3-3.4C696.7,484,697.1,484,697.5,484 M697.5,483
					c-0.5,0-0.9,0-1.4,0.1c-2.2,0.4-4.1,1.9-5,4l-2.2,4.9c-1,2.3-3.3,3.6-5.7,3.6c-0.7,0-1.4-0.1-2.1-0.4l-5-1.9
					c-0.8-0.3-1.6-0.4-2.5-0.4c-1.4,0-2.7,0.4-3.9,1.2c-1.9,1.3-3.1,3.3-3.1,5.6l-0.2,5.4c-0.1,3.2-2.8,5.9-6,6l-5.4,0.2
					c-2.3,0.1-4.3,1.2-5.6,3.1s-1.5,4.2-0.8,6.4l1.9,5c1.1,3-0.3,6.5-3.2,7.8l-4.9,2.2c-2.1,1-3.5,2.8-4,5c-0.4,2.2,0.2,4.5,1.7,6.2
					l3.7,3.9c2.2,2.4,2.2,6.1,0,8.5l-3.7,3.9c-1.6,1.7-2.2,3.9-1.7,6.2s1.9,4.1,4,5l4.9,2.2c2.9,1.4,4.4,4.8,3.2,7.8l-1.9,5
					c-0.8,2.2-0.5,4.5,0.8,6.4s3.3,3.1,5.6,3.1l5.4,0.2c3.2,0.1,5.9,2.8,6,6l0.2,5.4c0.1,2.3,1.2,4.3,3.1,5.6
					c1.2,0.8,2.5,1.2,3.9,1.2c0.8,0,1.7-0.1,2.5-0.4l5-1.9c0.7-0.3,1.4-0.4,2.1-0.4c2.4,0,4.7,1.4,5.7,3.6l2.2,4.9
					c1,2.1,2.8,3.5,5,4c0.5,0.1,0.9,0.1,1.4,0.1c1.8,0,3.4-0.7,4.8-1.9l3.9-3.7c1.2-1.1,2.7-1.7,4.2-1.7c1.5,0,3.1,0.6,4.2,1.7
					l3.9,3.7c1.3,1.2,3,1.9,4.8,1.9l0,0c0.5,0,0.9,0,1.4-0.1c2.2-0.4,4.1-1.9,5-4l2.2-4.9c1-2.3,3.3-3.6,5.7-3.6
					c0.7,0,1.4,0.1,2.1,0.4l5,1.9c0.8,0.3,1.6,0.4,2.5,0.4c1.4,0,2.7-0.4,3.9-1.2c1.9-1.3,3.1-3.3,3.1-5.6l0.2-5.4
					c0.1-3.2,2.8-5.9,6-6l5.4-0.2c2.3-0.1,4.3-1.2,5.6-3.1s1.5-4.2,0.8-6.4l-1.9-5c-1.1-3,0.3-6.5,3.2-7.8l4.9-2.2
					c2.1-1,3.5-2.8,4-5s-0.2-4.5-1.7-6.2l-3.7-3.9c-2.2-2.4-2.2-6.1,0-8.5l3.7-3.9c1.6-1.7,2.2-3.9,1.7-6.2c-0.4-2.2-1.9-4.1-4-5
					l-4.9-2.2c-2.9-1.4-4.4-4.8-3.2-7.8l1.9-5c0.8-2.2,0.5-4.5-0.8-6.4s-3.3-3.1-5.6-3.1l-5.4-0.2c-3.2-0.1-5.9-2.8-6-6l-0.2-5.4
					c-0.1-2.2-1.2-4.2-3-5.5c-2.5,3.8-6.6,10.3-11.2,17.5c-7.2,11.3-9.7,15.8-9.7,15.8s1.1,1.3,2,3c1.3,2.4,9.3,16.7,13.9,25.2
					c2.2,4,3.1,8.9,2.8,12.4c-0.4,3.4-1.9,6.4-5.6,8.7c-3.7,2.4-32.3,19.6-36.4,22c-2.6,1.5-4.8,2.3-6.9,2.3c-1.3,0-2.6-0.3-3.9-1
					c-3.5-1.8-3.8-3.3-5.9-7.2c-2.1-3.9-14-26.5-14.9-28.7s-1.5-4.6-0.8-8.3s2.8-5.3,5.9-7.3c3.1-2,11.9-7.6,11.9-7.6
					s0.5-1.3,2.1-2.8c1.7-1.5,10.6-6.9,14.6-9.3c4-2.4,8.3-3.7,10.7-4.2c1.3-0.3,2.3-0.4,2.8-0.4c0.4,0,0.7,0,0.7,0
					c0.2-7.7-1.1-12.9-2.1-16.9c-0.8-3.1-3.9-15-5.3-20.4l-1.5,1.4c-1.2,1.1-2.7,1.7-4.2,1.7c-1.5,0-3.1-0.6-4.2-1.7l-3.9-3.7
					C700.9,483.7,699.2,483,697.5,483L697.5,483z"/>
			</g>
		</g>
	</g>
	<g>
		<g>
			<rect x="630.5" y="507.6" class="st2" width="55.6" height="26.8"/>
		</g>
		<g>
			<path class="st3" d="M685.6,508.1v25.8H631v-25.8H685.6 M686.6,507.1H630v27.8h56.6V507.1L686.6,507.1z"/>
		</g>
	</g>
	<g>
		<g>
			<g>
				<path class="st69" d="M678.3,522.1c-0.4,0.6-1.4,1.9-1.9,2.5c-0.5,0.6-1.5,1.6-2.3,1.8c-0.4,0.1-0.6-0.1-0.7-0.3
					c-0.1-0.2-0.1-0.8-0.1-1.5c0-0.3,0-2,0-2.4v-4.7c0-0.4-0.3-0.8-0.7-0.9c-0.4-0.1-0.9,0.1-1,0.6c-0.3,1-1.1,3.4-1.8,5.4
					c-0.9,2.4-1.8,4-2.8,3.5c-0.1,0-0.3-0.3-0.4-0.5c-0.1-0.5-0.1-0.8-0.1-2.3v-0.8c0-2.9-0.5-4.5-2.2-5.7c-1-0.7-3.2-1.2-5.4-0.3
					c-1.1,0.4-2.4,1.3-3.4,1.7c-0.5,0.2-1.5,0.4-2,0.5l0-4l-1.8,0l0,4c-1.1,0-2.4-0.2-3.6-0.3c-0.9-0.1-1.7-0.2-2.6-0.3c0,0,0,0,0,0
					c0-0.5,0-0.9,0-1.3v-2.4h-1.8v2.4c0,0.4,0,0.8,0,1.2c-1.9,0-3.2,0.3-4.2,1.2c-1.1,0.9-1.7,2.2-1.9,4c-0.1,1.5,0.2,3,1,3.8
					c1,1.1,2.2,1.4,3.2,1.4c0.6,0,1.4-0.2,1.9-0.5c1.2-0.8,1.5-1.9,1.7-3.4c0.1-0.9,0.1-2.3,0.1-4.6c0.8,0.1,1.6,0.2,2.4,0.2
					c1.3,0.2,2.6,0.3,3.8,0.3l-0.1,7.7l1.8,0l0.1-7.8c0.6-0.1,1.5-0.2,2.6-0.6c1.1-0.4,2.5-1.3,3.3-1.6c1.3-0.5,2.9-0.5,3.7,0.1
					c0.7,0.5,1.2,1.2,1.3,2.3c-0.9-0.4-2.1-0.7-3.7-0.7c0,0-0.1,0-0.1,0c-2.7,0-4.7,1.5-5,3.8c-0.1,1.2,0.2,2.3,1,3.2
					c0.8,0.9,2.1,1.5,3.5,1.5c2,0,3.6-0.9,4.6-1.9c0,0,0,0.1,0,0.1c0.2,0.9,0.8,1.6,1.7,1.7c1.5,0.2,2.7-0.7,3.5-2.3
					c0.7-1.2,1.3-2.8,1.4-3.3v0.3c0,0.4,0,1.5,0,1.8c0,1.8,0.2,3.2,1.6,3.5c1,0.2,2.6-0.4,3.8-1.5c1.5-1.3,2.1-2.4,2.2-2.6
					L678.3,522.1z M643.8,524.1c-0.1,1.4-0.4,1.7-0.9,2.1c-0.4,0.3-1.7,0.2-2.5-0.4c-0.5-0.4-0.9-1-0.9-2.3
					c-0.1-1.3,0.4-2.6,1.4-3.3c0.7-0.5,1.4-0.6,2.8-0.6c0.1,0,0.1,0,0.2,0C643.9,521.9,643.8,523.3,643.8,524.1z M660.3,526.4
					c-0.9,0-1.7-0.3-2.2-0.9c-0.4-0.5-0.6-1.1-0.5-1.8c0.2-1.4,1.4-2.2,3.2-2.2c0,0,0,0,0.1,0c2.2,0,3.4,0.8,3.9,1.1v0.4
					c0,0.3,0,0.5,0,0.7C664.2,524.4,662.6,526.4,660.3,526.4z"/>
			</g>
		</g>
		<g>
			<g>
				<path class="st69" d="M672.7,515c0.7,0,1.3-0.6,1.3-1.3c0-0.7-0.6-1.3-1.3-1.3c-0.7,0-1.3,0.6-1.3,1.3
					C671.4,514.4,672,515,672.7,515z"/>
			</g>
		</g>
	</g>
	<g>
		<g>
			<circle class="st2" cx="612.4" cy="521" r="11.8"/>
		</g>
		<g>
			<path class="st3" d="M612.4,509.7c6.2,0,11.3,5.1,11.3,11.3s-5.1,11.3-11.3,11.3c-6.2,0-11.3-5.1-11.3-11.3
				S606.1,509.7,612.4,509.7 M612.4,508.7c-6.8,0-12.3,5.5-12.3,12.3s5.5,12.3,12.3,12.3s12.3-5.5,12.3-12.3
				S619.1,508.7,612.4,508.7L612.4,508.7z"/>
		</g>
	</g>
	<g>
		<path class="st69" d="M610.3,524.9h6.5v1.9h-8.6v-2c0-1.4,0.5-2.4,1.5-3c0.3-0.2,0.7-0.4,1.1-0.6l2.3-0.9c0.5-0.2,0.9-0.4,1.1-0.8
			c0.2-0.3,0.4-0.7,0.4-1.1c0-0.4-0.2-0.8-0.5-1.1c-0.3-0.3-0.8-0.4-1.4-0.4c-0.6,0-1.1,0.1-1.5,0.4c-0.4,0.3-0.6,0.7-0.7,1.3h-2.3
			c0-1.1,0.5-2,1.3-2.6c0.8-0.6,1.8-0.9,3.1-0.9c1.2,0,2.2,0.3,2.9,1c0.8,0.7,1.2,1.5,1.2,2.4s-0.2,1.7-0.7,2.3
			c-0.5,0.6-1.2,1.1-2.2,1.4l-2.4,0.9c-0.5,0.2-0.8,0.4-1,0.6c-0.2,0.2-0.3,0.5-0.3,0.8V524.9z"/>
	</g>
</g>
<g id="Layer_3" class="st0">
	<g class="st1">
		<g>
			<path class="st2" d="M860.3,369.5c-2.8,0-5.2-2.1-5.5-5c-0.3-3,1.9-5.7,4.9-6c0.3,0,0.5,0,0.6,0c2.8,0,5.2,2.1,5.5,5
				c0.1,1.5-0.3,2.9-1.2,4s-2.2,1.8-3.7,2l-0.1,0C860.6,369.5,860.4,369.5,860.3,369.5z M884,365.3c-2.5,0-4.7-1.7-5.3-4.2
				c-0.3-1.4-0.1-2.9,0.7-4.2c0.8-1.3,2-2.1,3.4-2.5l0.2-0.1c0.4-0.1,0.8-0.1,1.2-0.1c2.6,0,4.8,1.8,5.4,4.3
				c0.3,1.4,0.1,2.9-0.7,4.1s-2,2.1-3.5,2.4C884.9,365.3,884.5,365.3,884,365.3z M907.1,358.2c-2.3,0-4.3-1.4-5.1-3.5
				c-1.1-2.8,0.3-6,3.1-7.1c0.7-0.3,1.4-0.4,2.1-0.4c2.3,0,4.3,1.4,5.1,3.5c1.1,2.8-0.2,6-3,7.1l-0.1,0.1
				C908.5,358.1,907.8,358.2,907.1,358.2z M928.5,347.1c-1.8,0-3.5-0.9-4.5-2.4c-1.7-2.5-1.1-5.9,1.3-7.6l0.1-0.1
				c0.9-0.6,2-0.9,3.1-0.9c1.8,0,3.5,0.9,4.6,2.4c1.7,2.5,1,5.9-1.5,7.6C930.7,346.8,929.7,347.1,928.5,347.1z M945.3,330.1
				c-1,0-2-0.3-2.9-0.8c-1.2-0.8-2.1-2-2.5-3.4c-0.3-1.4-0.1-2.9,0.7-4.2c1-1.7,2.8-2.7,4.7-2.7c1,0,2,0.3,2.9,0.8
				c2.6,1.6,3.4,5,1.8,7.6l-0.1,0.1C949,329.2,947.2,330.1,945.3,330.1z M952.3,307.4c-0.1,0-0.2,0-0.3,0c-1.5-0.1-2.8-0.7-3.8-1.9
				c-1-1.1-1.5-2.5-1.4-4l0-0.3c0.2-2.8,2.7-5,5.5-5c0.2,0,0.3,0,0.5,0c1.5,0.1,2.8,0.8,3.7,1.9c0.9,1.1,1.4,2.6,1.3,4
				C957.7,305.1,955.2,307.4,952.3,307.4z M948.7,283.7c-2.3,0-4.4-1.4-5.2-3.6l-0.1-0.2c-1-2.9,0.5-6,3.4-7
				c0.6-0.2,1.2-0.3,1.8-0.3c2.3,0,4.4,1.5,5.2,3.7c0.5,1.4,0.5,2.9-0.1,4.2c-0.6,1.3-1.7,2.3-3.1,2.9
				C950,283.6,949.4,283.7,948.7,283.7z M937.3,262.6c-1.8,0-3.5-0.9-4.5-2.3c-1.8-2.5-1.3-5.9,1.2-7.7c0.9-0.7,2.1-1.1,3.2-1.1
				c1.8,0,3.4,0.8,4.5,2.3l0.1,0.1c1.8,2.5,1.2,5.9-1.3,7.7C939.5,262.2,938.4,262.6,937.3,262.6z M921.5,244.3
				c-1.5,0-2.9-0.6-3.9-1.6c-2.2-2.1-2.3-5.6-0.2-7.8c1-1.1,2.5-1.7,4-1.7c1.4,0,2.8,0.5,3.8,1.5c0,0,0.1,0.1,0.2,0.2
				c1,1,1.6,2.4,1.6,3.9s-0.6,2.9-1.6,3.9C924.3,243.8,923,244.3,921.5,244.3z M903.1,228.7c-1.2,0-2.3-0.4-3.2-1.1
				c-2.5-1.8-3.1-5.2-1.3-7.6c1-1.5,2.7-2.4,4.5-2.4c1.1,0,2.2,0.3,3.1,1l0.2,0.1c2.4,1.8,3,5.3,1.2,7.7
				C906.5,227.8,904.9,228.7,903.1,228.7z"/>
			<path class="st3" d="M903.1,218.1L903.1,218.1c1,0,2,0.3,2.9,0.9c0,0,0.1,0.1,0.2,0.1c2.2,1.6,2.7,4.8,1.1,7c-0.9,1.3-2.4,2-4,2
				c-1.1,0-2.1-0.3-2.9-0.9c0,0-0.1,0-0.1-0.1c-2.2-1.6-2.7-4.7-1.2-6.9C899.9,218.9,901.4,218.1,903.1,218.1 M921.4,233.7
				L921.4,233.7c1.3,0,2.5,0.5,3.5,1.4c0,0,0.1,0.1,0.2,0.2c0.9,0.9,1.5,2.2,1.5,3.5c0,1.3-0.5,2.6-1.5,3.5
				c-0.9,0.9-2.2,1.5-3.5,1.5s-2.6-0.5-3.6-1.5c-2-1.9-2.1-5-0.2-7C918.7,234.3,920,233.7,921.4,233.7 M937.2,252L937.2,252
				c1.6,0,3.1,0.8,4,2.1l0.1,0.1c0.8,1.1,1.1,2.4,0.9,3.7c-0.2,1.3-0.9,2.5-2,3.2c-0.9,0.6-1.9,0.9-2.9,0.9c-1.6,0-3.1-0.8-4.1-2.1
				c0,0,0,0,0-0.1c-1.6-2.2-1.1-5.4,1.1-7C935.1,252.3,936.1,252,937.2,252 M948.7,273.1c2.1,0,4,1.4,4.7,3.4
				c0.5,1.2,0.4,2.6-0.1,3.8c-0.6,1.2-1.5,2.1-2.8,2.6c-0.6,0.2-1.1,0.3-1.7,0.3c-2.1,0-4-1.3-4.7-3.3c0,0-0.1-0.2-0.1-0.2
				c-0.9-2.6,0.5-5.5,3.1-6.4C947.6,273.2,948.1,273.1,948.7,273.1 M952.3,296.7L952.3,296.7c0.1,0,0.3,0,0.4,0
				c1.3,0.1,2.5,0.7,3.4,1.8c0.9,1,1.3,2.3,1.2,3.7c-0.2,2.6-2.3,4.7-5,4.7c-0.1,0-0.2,0-0.3,0c-1.3-0.1-2.6-0.7-3.4-1.7
				s-1.3-2.3-1.3-3.6l0-0.2C947.6,298.7,949.8,296.7,952.3,296.7 M945.4,319.6L945.4,319.6c0.9,0,1.8,0.3,2.6,0.7
				c2.4,1.4,3.1,4.5,1.7,6.9l-0.1,0.1c-0.9,1.5-2.5,2.4-4.3,2.4c-0.9,0-1.8-0.3-2.6-0.8c-1.1-0.7-1.9-1.8-2.2-3.1
				c-0.3-1.3-0.1-2.6,0.6-3.8l0,0C942,320.5,943.6,319.6,945.4,319.6 M928.6,336.6L928.6,336.6c1.7,0,3.2,0.8,4.1,2.2
				c1.5,2.3,1,5.4-1.3,6.9c-0.8,0.6-1.8,0.9-2.8,0.9c-1.7,0-3.2-0.8-4.1-2.1c-1.6-2.3-1-5.4,1.2-6.9l0.1,0l0.1,0
				C926.6,336.9,927.6,336.6,928.6,336.6 M907.2,347.7L907.2,347.7c2.1,0,3.9,1.2,4.7,3.1c1,2.6-0.2,5.5-2.8,6.5l-0.1,0l-0.1,0
				c-0.6,0.2-1.2,0.3-1.8,0.3c-2.1,0-3.9-1.2-4.7-3.2c-1-2.6,0.3-5.5,2.9-6.5C905.9,347.8,906.6,347.7,907.2,347.7 M884.2,354.8
				L884.2,354.8c2.3,0,4.4,1.7,4.9,3.9c0.3,1.3,0.1,2.6-0.7,3.8c-0.7,1.1-1.8,1.9-3.2,2.2c-0.4,0.1-0.8,0.1-1.2,0.1
				c-2.3,0-4.3-1.6-4.8-3.8c-0.3-1.3-0.1-2.6,0.6-3.8s1.8-1.9,3.1-2.3l0.2,0C883.5,354.8,883.8,354.8,884.2,354.8 M860.4,359
				L860.4,359c2.6,0,4.7,1.9,5,4.5c0.3,2.7-1.7,5.2-4.5,5.5l-0.1,0c-0.2,0-0.3,0-0.5,0c-2.6,0-4.7-1.9-5-4.5
				c-0.3-2.7,1.7-5.2,4.5-5.5l0.1,0C860,359,860.2,359,860.4,359 M903.1,217.1c-1.9,0-3.8,0.9-4.9,2.6c-1.9,2.7-1.2,6.4,1.4,8.3
				c0,0,0,0,0,0c1.1,0.8,2.3,1.2,3.5,1.2c1.8,0,3.7-0.8,4.8-2.4c2-2.7,1.4-6.4-1.3-8.4c0,0-0.1-0.1-0.2-0.1
				C905.4,217.5,904.2,217.1,903.1,217.1L903.1,217.1z M921.4,232.7c-1.6,0-3.2,0.6-4.4,1.9c-2.3,2.4-2.2,6.2,0.2,8.4l0,0
				c1.2,1.2,2.7,1.8,4.2,1.8s3.1-0.6,4.2-1.8c2.3-2.3,2.3-6.1,0-8.5c0,0-0.2-0.2-0.2-0.2C924.4,233.3,922.9,232.7,921.4,232.7
				L921.4,232.7z M937.2,251c-1.2,0-2.5,0.4-3.5,1.1c-2.7,1.9-3.3,5.7-1.3,8.4l0,0c1.2,1.6,3,2.5,4.9,2.5c1.2,0,2.4-0.4,3.5-1.1
				c2.7-1.9,3.3-5.7,1.4-8.4l-0.1-0.1C940.9,251.8,939,251,937.2,251L937.2,251z M948.7,272.1c-0.6,0-1.3,0.1-1.9,0.3
				c-3.1,1.1-4.8,4.5-3.7,7.6c0,0.1,0.1,0.2,0.1,0.2c0.9,2.4,3.2,3.9,5.6,3.9c0.7,0,1.4-0.1,2.1-0.4c3.1-1.2,4.7-4.6,3.5-7.7
				C953.5,273.7,951.1,272.1,948.7,272.1L948.7,272.1z M952.3,295.7c-3.1,0-5.7,2.4-6,5.5l0,0.3c-0.2,3.3,2.3,6.2,5.6,6.4
				c0.1,0,0.2,0,0.4,0c3.2,0,5.8-2.4,6-5.6c0.3-3.3-2.2-6.2-5.5-6.5C952.7,295.7,952.5,295.7,952.3,295.7L952.3,295.7z M945.4,318.6
				c-2,0-4,1-5.1,2.9l0,0c-1.7,2.8-0.9,6.5,1.9,8.3c1,0.6,2.1,0.9,3.2,0.9c2,0,4-1,5.1-2.8l0.1-0.1c1.7-2.8,0.8-6.5-2-8.2
				C947.5,318.8,946.5,318.6,945.4,318.6L945.4,318.6z M928.6,335.6c-1.2,0-2.3,0.3-3.4,1c0,0-0.1,0.1-0.1,0.1
				c-2.7,1.9-3.3,5.6-1.5,8.3c1.2,1.7,3,2.6,5,2.6c1.2,0,2.4-0.3,3.4-1c2.7-1.9,3.5-5.6,1.6-8.3
				C932.4,336.5,930.5,335.6,928.6,335.6L928.6,335.6z M907.2,346.7c-0.7,0-1.5,0.1-2.2,0.4l0,0c-3.1,1.2-4.6,4.7-3.4,7.8
				c0.9,2.4,3.2,3.8,5.6,3.8c0.7,0,1.5-0.1,2.2-0.4c0,0,0.1-0.1,0.2-0.1c3.1-1.2,4.5-4.7,3.3-7.8
				C911.8,348.1,909.6,346.7,907.2,346.7L907.2,346.7z M884.2,353.8c-0.4,0-0.9,0-1.3,0.1l-0.2,0.1c-3.2,0.8-5.2,4-4.4,7.2
				c0.7,2.7,3.1,4.6,5.8,4.6c0.5,0,0.9-0.1,1.4-0.2c3.2-0.7,5.3-3.9,4.6-7.2C889.4,355.7,886.9,353.8,884.2,353.8L884.2,353.8z
				 M860.4,358c-0.2,0-0.4,0-0.6,0l-0.1,0c-3.3,0.3-5.7,3.3-5.4,6.6c0.3,3.1,2.9,5.4,6,5.4c0.2,0,0.4,0,0.6,0l0.1,0
				c3.3-0.3,5.7-3.3,5.4-6.6C866,360.3,863.4,358,860.4,358L860.4,358z"/>
		</g>
	</g>
	<g class="st1">
		<g>
			<path class="st2" d="M663.8,350.5c-1.3,0-2.6-0.5-3.6-1.4L660,349c-1.1-1-1.8-2.4-1.8-3.9c-0.1-1.5,0.4-2.9,1.4-4
				c1-1.1,2.5-1.8,4.1-1.8c1.4,0,2.7,0.5,3.7,1.4c1.1,1,1.8,2.3,1.9,3.8c0.1,1.5-0.4,2.9-1.4,4c-0.9,1-2.1,1.7-3.5,1.8
				C664.2,350.4,664,350.5,663.8,350.5z M642.7,336.6c-1.3,0-2.6-0.5-3.6-1.4l-0.1-0.1c-1.1-1-1.8-2.4-1.8-3.9
				c-0.1-1.5,0.4-2.9,1.4-4c1-1.1,2.5-1.8,4.1-1.8c1.4,0,2.7,0.5,3.7,1.4c1.1,1,1.8,2.3,1.9,3.8c0.1,1.5-0.4,2.9-1.4,4
				c-0.9,1-2.1,1.7-3.5,1.8C643.1,336.6,642.9,336.6,642.7,336.6z M627.4,318.1c-1.9,0-3.8-1-4.8-2.7l-0.1-0.2
				c-1.5-2.6-0.6-6,2.1-7.5c0.8-0.5,1.8-0.7,2.7-0.7c2,0,3.8,1.1,4.8,2.8c0.8,1.3,1,2.7,0.6,4.2c-0.4,1.4-1.2,2.6-2.5,3.4
				c-0.7,0.4-1.4,0.7-2.2,0.7C627.9,318.1,627.7,318.1,627.4,318.1z M618.7,295.7c-2.6,0-4.8-1.8-5.4-4.4c-0.7-3,1.1-5.9,4.1-6.6
				c0.4-0.1,0.8-0.2,1.3-0.2c2.5,0,4.8,1.8,5.4,4.3l0.1,0.3c0.6,3-1.3,5.9-4.3,6.5c-0.2,0-0.3,0.1-0.5,0.1
				C619.1,295.7,618.9,295.7,618.7,295.7z M617.2,271.8c-0.2,0-0.3,0-0.5,0c-3-0.3-5.3-2.9-5-5.9l0-0.1c0.3-2.9,2.6-5,5.5-5
				c0.2,0,0.3,0,0.5,0c3,0.3,5.3,3,5,6c-0.2,2.6-2.3,4.7-4.8,5C617.6,271.7,617.4,271.8,617.2,271.8z M622.4,248.3
				c-0.6,0-1.2-0.1-1.8-0.3c-1.4-0.5-2.5-1.5-3.1-2.8c-0.6-1.3-0.7-2.8-0.2-4.2c0.8-2.3,2.9-3.8,5.2-3.8c0.6,0,1.2,0.1,1.8,0.3
				c2.9,1,4.4,4.1,3.4,7l0,0.1c-0.7,2-2.4,3.4-4.5,3.6C622.8,248.3,622.6,248.3,622.4,248.3z M632.4,226.4c-0.9,0-1.8-0.2-2.7-0.7
				c-1.3-0.7-2.2-1.9-2.6-3.3c-0.4-1.4-0.2-2.9,0.5-4.2c1-1.8,2.9-2.9,4.9-2.9c0.9,0,1.9,0.2,2.7,0.7c2.6,1.5,3.6,4.8,2.1,7.5
				c-0.9,1.5-2.4,2.6-4.2,2.8C632.8,226.3,632.6,226.4,632.4,226.4z M645.9,206.4c-1.3,0-2.6-0.5-3.5-1.3c-2.3-2-2.6-5.4-0.7-7.7
				l0.2-0.2c1-1.1,2.5-1.8,4.1-1.8c1.4,0,2.7,0.5,3.7,1.4c2.2,2,2.4,5.5,0.5,7.7c-0.9,1.1-2.2,1.7-3.6,1.9
				C646.3,206.4,646.1,206.4,645.9,206.4z"/>
			<path class="st3" d="M646,195.8L646,195.8c1.2,0,2.4,0.5,3.3,1.3c2,1.8,2.2,5,0.4,7c-0.8,1-2,1.6-3.2,1.7c-0.2,0-0.4,0-0.6,0
				c-1.2,0-2.3-0.4-3.2-1.2c-2.1-1.8-2.4-4.9-0.6-7c0,0,0.1-0.2,0.2-0.2C643.2,196.4,644.6,195.8,646,195.8 M632.4,215.8
				L632.4,215.8c0.8,0,1.7,0.2,2.4,0.6c1.2,0.7,2,1.7,2.4,3c0.4,1.3,0.2,2.6-0.5,3.8c-0.8,1.4-2.2,2.4-3.8,2.6c-0.2,0-0.4,0-0.6,0
				c-0.8,0-1.7-0.2-2.4-0.6c-1.2-0.7-2-1.7-2.4-3c-0.4-1.3-0.2-2.6,0.4-3.8l0-0.1C629,216.8,630.6,215.8,632.4,215.8 M622.4,237.7
				L622.4,237.7c0.6,0,1.1,0.1,1.6,0.3c1.3,0.4,2.3,1.3,2.9,2.5c0.6,1.2,0.7,2.6,0.2,3.8l0,0.1c-0.6,1.8-2.2,3.1-4.1,3.3
				c-0.2,0-0.4,0-0.6,0c-0.6,0-1.1-0.1-1.7-0.3c-1.3-0.4-2.3-1.4-2.8-2.6c-0.6-1.2-0.6-2.6-0.2-3.8l0-0.1
				C618.4,239.1,620.3,237.7,622.4,237.7 M617.2,261.2L617.2,261.2c0.2,0,0.3,0,0.5,0c2.7,0.3,4.8,2.7,4.5,5.4
				c-0.2,2.4-2.1,4.3-4.4,4.6c-0.2,0-0.4,0-0.6,0c-0.1,0-0.3,0-0.4,0c-2.7-0.2-4.8-2.7-4.5-5.4l0-0.1c0,0,0,0,0,0
				C612.4,263.2,614.6,261.2,617.2,261.2 M618.7,285.1c2.3,0,4.3,1.6,4.9,3.9l0.1,0.3c0.3,1.3,0,2.6-0.7,3.8
				c-0.7,1.1-1.9,1.9-3.2,2.2c-0.1,0-0.3,0.1-0.4,0.1c-0.2,0-0.4,0-0.6,0c-2.4,0-4.4-1.7-4.9-4c-0.6-2.7,1-5.3,3.7-6
				C617.9,285.2,618.3,285.1,618.7,285.1 M627.3,307.5L627.3,307.5c1.8,0,3.5,1,4.4,2.6c0.7,1.1,0.9,2.5,0.6,3.8
				c-0.3,1.3-1.1,2.4-2.3,3.1c-0.6,0.4-1.3,0.6-2,0.7c-0.2,0-0.4,0-0.6,0c-1.8,0-3.4-0.9-4.3-2.4L623,315c-1.4-2.4-0.5-5.5,1.9-6.8
				C625.6,307.7,626.5,307.5,627.3,307.5 M642.6,326L642.6,326c1.3,0,2.4,0.5,3.4,1.3c1,0.9,1.6,2.1,1.7,3.4
				c0.1,1.3-0.4,2.6-1.2,3.6c-0.8,0.9-1.9,1.5-3.2,1.7c-0.2,0-0.4,0-0.6,0c-1.2,0-2.4-0.4-3.3-1.2c0,0-0.1-0.1-0.1-0.1
				c-1-0.9-1.6-2.1-1.6-3.5c-0.1-1.3,0.4-2.6,1.3-3.6C639.9,326.6,641.2,326,642.6,326 M663.7,339.9L663.7,339.9
				c1.3,0,2.4,0.5,3.4,1.3c1,0.9,1.6,2.1,1.7,3.4c0.1,1.3-0.4,2.6-1.2,3.6c-0.8,0.9-1.9,1.5-3.2,1.7c-0.2,0-0.4,0-0.6,0
				c-1.2,0-2.4-0.4-3.3-1.3l-0.1-0.1l0,0c-1-0.9-1.6-2.1-1.6-3.5s0.4-2.6,1.3-3.6C660.9,340.5,662.3,339.9,663.7,339.9 M646,194.8
				c-1.6,0-3.3,0.7-4.5,2c0,0-0.1,0.2-0.2,0.2l0,0c-2.1,2.5-1.8,6.3,0.7,8.4c1.1,0.9,2.5,1.4,3.9,1.4c0.2,0,0.5,0,0.7,0
				c1.5-0.2,2.8-0.9,3.9-2.1c2.2-2.5,1.9-6.2-0.5-8.4C648.8,195.4,647.4,194.8,646,194.8L646,194.8z M632.4,214.8
				c-2.1,0-4.1,1.1-5.2,3.1l0,0.1c-1.6,2.9-0.6,6.5,2.3,8.1c0.9,0.5,1.9,0.8,2.9,0.8c0.2,0,0.5,0,0.7,0c1.9-0.2,3.6-1.3,4.6-3.1
				c1.6-2.9,0.6-6.5-2.3-8.2C634.4,215.1,633.4,214.8,632.4,214.8L632.4,214.8z M622.4,236.7c-2.5,0-4.8,1.6-5.7,4l0,0.1
				c-1.1,3.1,0.5,6.6,3.7,7.7c0.7,0.2,1.3,0.3,2,0.3c0.2,0,0.5,0,0.7,0c2.2-0.3,4.2-1.7,5-4l0-0.1c1.1-3.1-0.6-6.5-3.7-7.6
				C623.7,236.8,623.1,236.7,622.4,236.7L622.4,236.7z M617.2,260.2c-3.1,0-5.7,2.3-6,5.5c0,0,0,0.1,0,0.1c-0.3,3.3,2.1,6.2,5.4,6.5
				c0.2,0,0.4,0,0.5,0c0.2,0,0.5,0,0.7,0c2.8-0.3,5-2.6,5.3-5.5c0.3-3.3-2.1-6.2-5.4-6.5C617.5,260.2,617.4,260.2,617.2,260.2
				L617.2,260.2z M618.7,284.1c-0.5,0-0.9,0.1-1.4,0.2c-3.2,0.8-5.2,4-4.4,7.2l0,0c0.6,2.8,3.1,4.8,5.9,4.8c0.2,0,0.5,0,0.7,0
				c0.2,0,0.4,0,0.5-0.1c3.2-0.7,5.3-3.9,4.6-7.1l-0.1-0.3C623.9,286,621.4,284.1,618.7,284.1L618.7,284.1z M627.3,306.5
				c-1,0-2,0.3-2.9,0.8c-2.9,1.6-3.9,5.3-2.3,8.2c0,0,0.1,0.2,0.1,0.2c1.1,1.9,3.1,2.9,5.2,2.9c0.2,0,0.5,0,0.7,0
				c0.8-0.1,1.6-0.4,2.4-0.8c2.8-1.7,3.8-5.4,2.1-8.2C631.5,307.6,629.4,306.5,627.3,306.5L627.3,306.5z M642.6,325
				c-1.6,0-3.2,0.7-4.4,1.9c-2.2,2.4-2.1,6.2,0.4,8.5c0,0,0.1,0.1,0.2,0.2c1.1,1,2.6,1.5,4,1.5c0.2,0,0.5,0,0.7,0
				c1.4-0.2,2.8-0.8,3.8-2c2.2-2.5,1.9-6.3-0.6-8.5C645.5,325.6,644.1,325,642.6,325L642.6,325z M663.7,338.9
				c-1.6,0-3.2,0.7-4.4,1.9c-2.2,2.4-2.1,6.2,0.4,8.5c0,0,0.1,0.1,0.2,0.2c1.1,1,2.6,1.5,4,1.5c0.2,0,0.5,0,0.7,0
				c1.4-0.2,2.8-0.8,3.8-2c2.2-2.5,1.9-6.3-0.6-8.5C666.6,339.4,665.1,338.9,663.7,338.9L663.7,338.9z"/>
		</g>
	</g>
	<g class="st1">
		<g>
			<path class="st2" d="M884.6,231.8c-1.8,0-3.3-1.5-3.3-3.3v-21.1c0-3.8,3.1-7,7-7h21c1.9,0,3.4,1.4,3.5,3.2c0,0.9-0.3,1.8-0.9,2.4
				c-0.6,0.6-1.5,1-2.4,1h-17.1c-2.4,0-4.4,2-4.4,4.4v17c0,1.9-1.4,3.4-3.2,3.5L884.6,231.8z"/>
			<path class="st3" d="M909.3,200.9c1.6,0,2.9,1.2,3,2.7c0,0.8-0.3,1.5-0.8,2c-0.5,0.5-1.2,0.8-2,0.8h-17.1c-2.7,0-4.9,2.2-4.9,4.9
				v17c0,1.6-1.2,2.9-2.7,3l-0.1,0c-1.5,0-2.8-1.3-2.8-2.8v-21.1c0-3.6,2.9-6.5,6.5-6.5H909.3 M909.3,199.9h-21
				c-4.1,0-7.5,3.3-7.5,7.5v21.1c0,2.1,1.7,3.8,3.8,3.8c0,0,0.1,0,0.1,0c2.1-0.1,3.7-1.9,3.7-4v-17c0-2.2,1.7-3.9,3.9-3.9h17.1
				c2.1,0,3.9-1.8,3.8-3.9C913.2,201.5,911.4,199.9,909.3,199.9L909.3,199.9z"/>
		</g>
	</g>
	<g class="st1">
		<g>
			<path class="st2" d="M664.7,208.6c-1.7,0-3.1-1.2-3.3-2.9l-2-17c-0.3-2.2-2.1-3.9-4.4-3.9c-0.2,0-0.3,0-0.5,0l-16.8,2
				c-0.1,0-0.3,0-0.4,0c-1.7,0-3.1-1.2-3.4-2.8c-0.1-0.9,0.1-1.8,0.6-2.5c0.5-0.7,1.3-1.2,2.2-1.3l21-2.5c0.3,0,0.6,0,0.8,0
				c3.5,0,6.5,2.6,6.9,6.2l2.5,20.8c0.2,1.8-1,3.5-2.8,3.8C665,208.6,664.8,208.6,664.7,208.6z"/>
			<path class="st3" d="M658.5,178.3L658.5,178.3c3.3,0,6,2.5,6.4,5.7l2.5,20.8c0.2,1.6-0.9,3-2.3,3.2c-0.1,0-0.3,0-0.4,0
				c-1.4,0-2.6-1.1-2.8-2.5l-2-17c-0.3-2.5-2.4-4.3-4.9-4.3c-0.2,0-0.4,0-0.6,0l-16.8,2c-0.1,0-0.2,0-0.4,0c-1.4,0-2.7-1-2.9-2.4
				c-0.1-0.8,0.1-1.5,0.5-2.1c0.5-0.6,1.1-1,1.9-1.1l21-2.5C658,178.3,658.3,178.3,658.5,178.3 M658.5,177.3c-0.3,0-0.6,0-0.9,0.1
				l-21,2.5c-2.1,0.3-3.6,2.2-3.3,4.3c0.3,1.9,2,3.2,3.9,3.2c0.2,0,0.3,0,0.5,0l16.8-2c0.2,0,0.3,0,0.5,0c2,0,3.6,1.5,3.9,3.4l2,17
				c0.2,1.9,1.9,3.3,3.8,3.3c0.2,0,0.4,0,0.6,0c2.1-0.3,3.4-2.3,3.2-4.4l-2.5-20.8C665.5,180.1,662.3,177.3,658.5,177.3L658.5,177.3
				z"/>
		</g>
	</g>
	<g class="st1">
		<g>
			<path class="st2" d="M862.5,404.8c-6.5,0-11.8-5.3-11.8-11.8c0-6.5,5.3-11.8,11.8-11.8s11.8,5.3,11.8,11.8
				C874.2,399.5,869,404.8,862.5,404.8z"/>
		</g>
		<g>
			<path class="st3" d="M862.5,381.7c6.2,0,11.3,5.1,11.3,11.3c0,6.2-5.1,11.3-11.3,11.3c-6.2,0-11.3-5.1-11.3-11.3
				C851.2,386.7,856.2,381.7,862.5,381.7 M862.5,380.7c-6.8,0-12.3,5.5-12.3,12.3s5.5,12.3,12.3,12.3s12.3-5.5,12.3-12.3
				S869.2,380.7,862.5,380.7L862.5,380.7z"/>
		</g>
	</g>
	<g class="st1">
		<path class="st69" d="M862.7,389c-1.3,0-2,0.5-2.2,1.5h-2.2c0.1-1.1,0.6-2,1.4-2.6c0.8-0.5,1.7-0.8,3-0.8c1.3,0,2.3,0.3,3.1,0.9
			c0.8,0.6,1.2,1.4,1.2,2.3c0,0.6-0.2,1.1-0.5,1.5c-0.3,0.4-0.8,0.8-1.4,1c0.7,0.2,1.2,0.6,1.7,1c0.4,0.5,0.6,1,0.6,1.6
			s-0.1,1.1-0.3,1.5c-0.2,0.4-0.5,0.8-0.9,1.1c-0.8,0.6-1.9,1-3.3,1c-1.3,0-2.4-0.3-3.3-1c-1-0.7-1.5-1.7-1.5-2.9h2.2
			c0,0.6,0.3,1.1,0.7,1.4c0.5,0.3,1,0.5,1.8,0.5s1.3-0.2,1.7-0.5s0.6-0.7,0.6-1.2s-0.2-0.9-0.6-1.2c-0.4-0.3-1-0.4-1.8-0.4h-1.5
			v-1.6h1.3c0.7,0,1.2-0.1,1.6-0.4c0.4-0.3,0.6-0.7,0.6-1.1c0-0.5-0.2-0.9-0.5-1.1C863.9,389.1,863.4,389,862.7,389z"/>
	</g>
</g>
</svg>
